SplineFontDB: 3.0
FontName: OxygenSans-Regular
FullName: OxygenSans Regular
FamilyName: OxygenSans
Weight: Regular
Copyright: Copyright (c) 2011-12 by vernon adams. All rights reserved.
Version: Release 0.2.3
ItalicAngle: 0
UnderlinePosition: -22
UnderlineWidth: 0
Ascent: 1638
Descent: 410
UFOAscent: 2035
UFODescent: -672
LayerCount: 2
Layer: 0 0 "Back"  1
Layer: 1 0 "Fore"  0
FSType: 0
OS2Version: 0
OS2_WeightWidthSlopeOnly: 0
OS2_UseTypoMetrics: 0
CreationTime: 1353440713
ModificationTime: 1363986067
PfmFamily: 0
TTFWeight: 400
TTFWidth: 5
LineGap: 0
VLineGap: 0
Panose: 2 0 5 3 0 0 0 0 0 0
OS2TypoAscent: 2035
OS2TypoAOffset: 0
OS2TypoDescent: -672
OS2TypoDOffset: 0
OS2TypoLinegap: 0
OS2WinAscent: 2035
OS2WinAOffset: 0
OS2WinDescent: 672
OS2WinDOffset: 0
HheadAscent: 2035
HheadAOffset: 0
HheadDescent: -672
HheadDOffset: 0
OS2SubXSize: 1331
OS2SubYSize: 1433
OS2SubXOff: 0
OS2SubYOff: 286
OS2SupXSize: 1331
OS2SupYSize: 1433
OS2SupXOff: 0
OS2SupYOff: 983
OS2StrikeYSize: 102
OS2StrikeYPos: 530
OS2Vendor: 'newt'
OS2CodePages: 0000009f.00000001
OS2UnicodeRanges: 000010ff.0001004f.00000002.00000000
Lookup: 258 0 0 "'kern' Horizontal Kerning in Latin lookup 0"  {"'kern' Horizontal Kerning in Latin lookup 0 subtable"  } ['kern' ('latn' <'dflt' > ) ]
DEI: 91125
LangName: 1033 "" "" "" "vernon adams : OxygenSans Regular : 5-11-2012" "" "Version Release 0.2.3" "" "Oxygen Sans is a trademark of vernon adams." "vernon adams" "vernon adams" "Copyright (c) 2011-12 by vernon adams. All rights reserved." "newtypography.co.uk" "newtypography.co.uk" "Copyright (c) 2011-12, Vernon Adams (vern@newtypography.co.uk),+AAoA-with Reserved Font Name Oxygen+AAoA-This Font Software is licensed under the SIL Open Font License, Version 1.1.+AAoA-This license is copied below, and is also available with a FAQ at:+AAoA-http://scripts.sil.org/OFL" "http://scripts.sil.org/OFL" 
PickledData: "(dp1
S'com.typemytype.robofont.compileSettings.autohint'
p2
I0

StartChar: .notdef
Encoding: 665 -1 0
Width: 931
VWidth: 0
Flags: W
PickledData: "(dp1
S'com.typemytype.robofont.layerData'
p2
(dp3
S'b'
(dp4
S'name'
p5
S'.notdef'
p6
sS'lib'
p7
(dp8
sS'unicodes'
p9
(tsS'width'
p10
I931
sS'contours'
p11
(tsS'components'
p12
(tsS'anchors'
p13
(tsss."
HStem: 0 93<186 746> 901 93<186 746>
VStem: 93 93<93 901> 746 93<93 901>
LayerCount: 2
Fore
SplineSet
186 93 m 1
 746 93 l 1
 746 901 l 1
 186 901 l 1
 186 93 l 1
93 0 m 1
 93 994 l 1
 839 994 l 1
 839 0 l 1
 93 0 l 1
EndSplineSet
EndChar

StartChar: A
Encoding: 34 65 1
Width: 1357
VWidth: 0
Flags: HW
PickledData: "(dp1
S'com.typemytype.robofont.layerData'
p2
(dp3
S'b'
(dp4
S'name'
p5
S'A'
sS'lib'
p6
(dp7
sS'unicodes'
p8
(tsS'width'
p9
I1357
sS'contours'
p10
(tsS'components'
p11
(tsS'anchors'
p12
(tsss."
LayerCount: 2
Fore
SplineSet
74 0 m 1
 578 1390 l 1
 780 1390 l 1
 1283 0 l 1
 1115 0 l 1
 956 430 l 1
 412 430 l 1
 252 0 l 1
 74 0 l 1
463 561 m 1
 907 561 l 1
 678 1223 l 1
 463 561 l 1
EndSplineSet
EndChar

StartChar: AE
Encoding: 133 198 2
Width: 1918
VWidth: 0
Flags: HW
PickledData: "(dp1
S'com.typemytype.robofont.layerData'
p2
(dp3
S'b'
(dp4
S'name'
p5
S'AE'
p6
sS'lib'
p7
(dp8
sS'unicodes'
p9
(tsS'width'
p10
I1918
sS'contours'
p11
(tsS'components'
p12
(tsS'anchors'
p13
(tsss."
LayerCount: 2
Fore
SplineSet
1035 536 m 1
 979 1282 l 1
 536 536 l 1
 1035 536 l 1
1136 1282 m 1
 1171 803 l 1
 1745 803 l 1
 1745 659 l 1
 1189 659 l 1
 1228 144 l 1
 1795 144 l 1
 1795 0 l 1
 1083 0 l 1
 1055 389 l 1
 460 389 l 1
 241 0 l 1
 84 0 l 1
 917 1427 l 1
 1777 1427 l 1
 1777 1282 l 1
 1136 1282 l 1
EndSplineSet
EndChar

StartChar: AEacute
Encoding: 373 508 3
Width: 1918
VWidth: 0
Flags: HW
PickledData: "(dp1
S'com.typemytype.robofont.layerData'
p2
(dp3
S'b'
(dp4
S'name'
p5
S'AEacute'
p6
sS'lib'
p7
(dp8
sS'unicodes'
p9
(tsS'width'
p10
I1918
sS'contours'
p11
(tsS'components'
p12
(tsS'anchors'
p13
(tsss."
LayerCount: 2
Fore
SplineSet
1035 536 m 1
 979 1282 l 1
 536 536 l 1
 1035 536 l 1
1136 1282 m 1
 1171 803 l 1
 1745 803 l 1
 1745 659 l 1
 1189 659 l 1
 1228 144 l 1
 1795 144 l 1
 1795 0 l 1
 1083 0 l 1
 1055 389 l 1
 460 389 l 1
 241 0 l 1
 84 0 l 1
 917 1427 l 1
 1777 1427 l 1
 1777 1282 l 1
 1136 1282 l 1
888 1590 m 1
 1058 1943 l 1
 1288 1943 l 1
 992 1590 l 1
 888 1590 l 1
EndSplineSet
EndChar

StartChar: Aacute
Encoding: 128 193 4
Width: 1379
VWidth: 0
Flags: HW
PickledData: "(dp1
S'com.typemytype.robofont.layerData'
p2
(dp3
S'b'
(dp4
S'name'
p5
S'Aacute'
p6
sS'lib'
p7
(dp8
sS'unicodes'
p9
(tsS'width'
p10
I1379
sS'contours'
p11
(tsS'components'
p12
(tsS'anchors'
p13
(tsss."
LayerCount: 2
Fore
SplineSet
85 0 m 1
 589 1390 l 1
 791 1390 l 1
 1294 0 l 1
 1126 0 l 1
 967 430 l 1
 423 430 l 1
 263 0 l 1
 85 0 l 1
474 561 m 1
 918 561 l 1
 689 1223 l 1
 474 561 l 1
638 1576 m 1
 808 1929 l 1
 1038 1929 l 1
 742 1576 l 1
 638 1576 l 1
EndSplineSet
EndChar

StartChar: Abreve
Encoding: 193 258 5
Width: 1379
VWidth: 0
Flags: HW
PickledData: "(dp1
S'com.typemytype.robofont.layerData'
p2
(dp3
S'b'
(dp4
S'name'
p5
S'Abreve'
p6
sS'lib'
p7
(dp8
sS'unicodes'
p9
(tsS'width'
p10
I1379
sS'contours'
p11
(tsS'components'
p12
(tsS'anchors'
p13
(tsss."
LayerCount: 2
Fore
SplineSet
85 0 m 1
 589 1390 l 1
 791 1390 l 1
 1294 0 l 1
 1126 0 l 1
 967 430 l 1
 423 430 l 1
 263 0 l 1
 85 0 l 1
474 561 m 1
 918 561 l 1
 689 1223 l 1
 474 561 l 1
918 1798 m 1
 918 1641 801 1576 688 1576 c 0
 576 1576 461 1641 461 1798 c 1
 567 1798 l 1
 567 1711 622 1670 688 1670 c 0
 754 1670 812 1711 812 1798 c 1
 918 1798 l 1
EndSplineSet
EndChar

StartChar: Acircumflex
Encoding: 129 194 6
Width: 1379
VWidth: 0
Flags: HW
PickledData: "(dp1
S'com.typemytype.robofont.layerData'
p2
(dp3
S'b'
(dp4
S'name'
p5
S'Acircumflex'
p6
sS'lib'
p7
(dp8
sS'unicodes'
p9
(tsS'width'
p10
I1379
sS'contours'
p11
(tsS'components'
p12
(tsS'anchors'
p13
(tsss."
LayerCount: 2
Fore
SplineSet
85 0 m 1
 589 1390 l 1
 791 1390 l 1
 1294 0 l 1
 1126 0 l 1
 967 430 l 1
 423 430 l 1
 263 0 l 1
 85 0 l 1
474 561 m 1
 918 561 l 1
 689 1223 l 1
 474 561 l 1
422 1576 m 1
 592 1929 l 1
 786 1929 l 1
 956 1576 l 1
 836 1576 l 1
 688 1824 l 1
 542 1576 l 1
 422 1576 l 1
EndSplineSet
EndChar

StartChar: Adieresis
Encoding: 131 196 7
Width: 1379
VWidth: 0
Flags: HW
PickledData: "(dp1
S'com.typemytype.robofont.layerData'
p2
(dp3
S'b'
(dp4
S'name'
p5
S'Adieresis'
p6
sS'lib'
p7
(dp8
sS'unicodes'
p9
(tsS'width'
p10
I1379
sS'contours'
p11
(tsS'components'
p12
(tsS'anchors'
p13
(tsss."
LayerCount: 2
Fore
SplineSet
85 0 m 1
 589 1390 l 1
 791 1390 l 1
 1294 0 l 1
 1126 0 l 1
 967 430 l 1
 423 430 l 1
 263 0 l 1
 85 0 l 1
474 561 m 1
 918 561 l 1
 689 1223 l 1
 474 561 l 1
796 1576 m 1
 796 1769 l 1
 938 1769 l 1
 938 1576 l 1
 796 1576 l 1
442 1576 m 1
 442 1769 l 1
 582 1769 l 1
 582 1576 l 1
 442 1576 l 1
EndSplineSet
EndChar

StartChar: Agrave
Encoding: 127 192 8
Width: 1379
VWidth: 0
Flags: HW
PickledData: "(dp1
S'com.typemytype.robofont.layerData'
p2
(dp3
S'b'
(dp4
S'name'
p5
S'Agrave'
p6
sS'lib'
p7
(dp8
sS'unicodes'
p9
(tsS'width'
p10
I1379
sS'contours'
p11
(tsS'components'
p12
(tsS'anchors'
p13
(tsss."
LayerCount: 2
Fore
SplineSet
85 0 m 1
 589 1390 l 1
 791 1390 l 1
 1294 0 l 1
 1126 0 l 1
 967 430 l 1
 423 430 l 1
 263 0 l 1
 85 0 l 1
474 561 m 1
 918 561 l 1
 689 1223 l 1
 474 561 l 1
638 1576 m 1
 344 1929 l 1
 572 1929 l 1
 740 1576 l 1
 638 1576 l 1
EndSplineSet
EndChar

StartChar: Alpha
Encoding: 447 913 9
Width: 1344
VWidth: 0
Flags: HW
PickledData: "(dp1
S'com.typemytype.robofont.layerData'
p2
(dp3
S'b'
(dp4
S'name'
p5
S'Alpha'
p6
sS'lib'
p7
(dp8
sS'unicodes'
p9
(tsS'width'
p10
I1344
sS'contours'
p11
(tsS'components'
p12
(tsS'anchors'
p13
(tsss."
LayerCount: 2
Fore
SplineSet
1090 0 m 1
 935 430 l 1
 421 430 l 1
 264 0 l 1
 90 0 l 1
 574 1346 l 1
 772 1346 l 1
 1255 0 l 1
 1090 0 l 1
474 561 m 1
 885 561 l 1
 885 561 692 1117 672 1186 c 1
 654 1126 474 561 474 561 c 1
EndSplineSet
EndChar

StartChar: Alphatonos
Encoding: 439 902 10
Width: 451
VWidth: 0
Flags: HW
PickledData: "(dp1
S'com.typemytype.robofont.layerData'
p2
(dp3
S'b'
(dp4
S'name'
p5
S'Alphatonos'
p6
sS'lib'
p7
(dp8
sS'unicodes'
p9
(tsS'width'
p10
I451
sS'contours'
p11
(tsS'components'
p12
(tsS'anchors'
p13
(tsss."
LayerCount: 2
Fore
SplineSet
223 484 m 0
 143 484 102 544 102 604 c 0
 102 664 143 724 223 724 c 0
 304 724 344 664 344 604 c 0
 344 544 304 484 223 484 c 0
EndSplineSet
EndChar

StartChar: Amacron
Encoding: 191 256 11
Width: 1379
VWidth: 0
Flags: HW
PickledData: "(dp1
S'com.typemytype.robofont.layerData'
p2
(dp3
S'b'
(dp4
S'name'
p5
S'Amacron'
p6
sS'lib'
p7
(dp8
sS'unicodes'
p9
(tsS'width'
p10
I1379
sS'contours'
p11
(tsS'components'
p12
(tsS'anchors'
p13
(tsss."
LayerCount: 2
Fore
SplineSet
85 0 m 1
 589 1390 l 1
 791 1390 l 1
 1294 0 l 1
 1126 0 l 1
 967 430 l 1
 423 430 l 1
 263 0 l 1
 85 0 l 1
474 561 m 1
 918 561 l 1
 689 1223 l 1
 474 561 l 1
386 1576 m 1
 386 1703 l 1
 994 1703 l 1
 994 1576 l 1
 386 1576 l 1
EndSplineSet
EndChar

StartChar: Aogonek
Encoding: 195 260 12
Width: 1379
VWidth: 0
Flags: HW
PickledData: "(dp1
S'com.typemytype.robofont.layerData'
p2
(dp3
S'b'
(dp4
S'name'
p5
S'Aogonek'
p6
sS'lib'
p7
(dp8
sS'unicodes'
p9
(tsS'width'
p10
I1379
sS'contours'
p11
(tsS'components'
p12
(tsS'anchors'
p13
(tsss."
LayerCount: 2
Fore
SplineSet
85 0 m 1
 589 1390 l 1
 791 1390 l 1
 1294 0 l 1
 1126 0 l 1
 967 430 l 1
 423 430 l 1
 263 0 l 1
 85 0 l 1
474 561 m 1
 918 561 l 1
 689 1223 l 1
 474 561 l 1
692 -373 m 0
 594 -373 516 -317 516 -213 c 0
 516 -114 603 -38 690 13 c 1
 794 13 l 1
 699 -57 630 -125 630 -187 c 0
 630 -235 673 -268 710 -268 c 0
 759 -268 788 -257 834 -238 c 1
 834 -344 l 1
 799 -359 741 -373 692 -373 c 0
EndSplineSet
EndChar

StartChar: Aring
Encoding: 132 197 13
Width: 1379
VWidth: 0
Flags: HW
PickledData: "(dp1
S'com.typemytype.robofont.layerData'
p2
(dp3
S'b'
(dp4
S'name'
p5
S'Aring'
p6
sS'lib'
p7
(dp8
sS'unicodes'
p9
(tsS'width'
p10
I1379
sS'contours'
p11
(tsS'components'
p12
(tsS'anchors'
p13
(tsss."
LayerCount: 2
Fore
SplineSet
85 0 m 1
 589 1390 l 1
 791 1390 l 1
 1294 0 l 1
 1126 0 l 1
 967 430 l 1
 423 430 l 1
 263 0 l 1
 85 0 l 1
474 561 m 1
 918 561 l 1
 689 1223 l 1
 474 561 l 1
691 1401 m 0
 596 1401 512 1464 512 1569 c 0
 512 1677 597 1748 689 1748 c 0
 784 1748 866 1671 866 1569 c 0
 866 1464 781 1401 691 1401 c 0
689 1467 m 0
 735 1467 777 1513 777 1569 c 0
 777 1625 739 1674 689 1674 c 0
 643 1674 599 1625 599 1569 c 0
 599 1508 633 1467 689 1467 c 0
EndSplineSet
EndChar

StartChar: Aringacute
Encoding: 371 506 14
Width: 1379
VWidth: 0
Flags: HW
PickledData: "(dp1
S'com.typemytype.robofont.layerData'
p2
(dp3
S'b'
(dp4
S'name'
p5
S'Aringacute'
p6
sS'lib'
p7
(dp8
sS'unicodes'
p9
(tsS'width'
p10
I1379
sS'contours'
p11
(tsS'components'
p12
(tsS'anchors'
p13
(tsss."
LayerCount: 2
Fore
SplineSet
85 0 m 1
 589 1390 l 1
 791 1390 l 1
 1294 0 l 1
 1126 0 l 1
 967 430 l 1
 423 430 l 1
 263 0 l 1
 85 0 l 1
474 561 m 1
 918 561 l 1
 689 1223 l 1
 474 561 l 1
691 1401 m 0
 596 1401 512 1464 512 1569 c 0
 512 1677 597 1748 689 1748 c 0
 784 1748 866 1671 866 1569 c 0
 866 1464 781 1401 691 1401 c 0
689 1467 m 0
 735 1467 777 1513 777 1569 c 0
 777 1625 739 1674 689 1674 c 0
 643 1674 599 1625 599 1569 c 0
 599 1508 633 1467 689 1467 c 0
638 1911 m 1
 808 2264 l 1
 1038 2264 l 1
 742 1911 l 1
 638 1911 l 1
EndSplineSet
EndChar

StartChar: Atilde
Encoding: 130 195 15
Width: 1379
VWidth: 0
Flags: HW
PickledData: "(dp1
S'com.typemytype.robofont.layerData'
p2
(dp3
S'b'
(dp4
S'name'
p5
S'Atilde'
p6
sS'lib'
p7
(dp8
sS'unicodes'
p9
(tsS'width'
p10
I1379
sS'contours'
p11
(tsS'components'
p12
(tsS'anchors'
p13
(tsss."
LayerCount: 2
Fore
SplineSet
85 0 m 1
 589 1390 l 1
 791 1390 l 1
 1294 0 l 1
 1126 0 l 1
 967 430 l 1
 423 430 l 1
 263 0 l 1
 85 0 l 1
474 561 m 1
 918 561 l 1
 689 1223 l 1
 474 561 l 1
406 1576 m 1
 406 1712 465 1775 562 1775 c 0
 675 1775 831 1690 831 1690 c 1
 867 1693 870 1737 873 1775 c 1
 973 1775 l 1
 973 1650 933 1576 837 1576 c 0
 755 1576 553 1664 553 1664 c 1
 523 1663 506 1626 503 1576 c 1
 406 1576 l 1
EndSplineSet
EndChar

StartChar: B
Encoding: 35 66 16
Width: 1316
VWidth: 0
Flags: HW
PickledData: "(dp1
S'com.typemytype.robofont.layerData'
p2
(dp3
S'b'
(dp4
S'name'
p5
S'B'
sS'lib'
p6
(dp7
sS'unicodes'
p8
(tsS'width'
p9
I1316
sS'contours'
p10
(tsS'components'
p11
(tsS'anchors'
p12
(tsss."
LayerCount: 2
Fore
SplineSet
347 797 m 1
 651 797 l 2
 828 797 942 854 942 1031 c 0
 942 1208 814 1257 582 1257 c 2
 347 1257 l 1
 347 797 l 1
347 129 m 1
 658 129 l 2
 889 129 1007 239 1007 419 c 0
 1007 611 861 671 606 671 c 2
 347 671 l 1
 347 129 l 1
186 0 m 1
 186 1390 l 1
 590 1390 l 2
 938 1390 1110 1289 1110 1055 c 0
 1110 989 1093 809 880 743 c 1
 1071 708 1175 574 1175 413 c 0
 1175 175 1017 0 690 0 c 2
 186 0 l 1
EndSplineSet
EndChar

StartChar: Beta
Encoding: 448 914 17
Width: 1201
VWidth: 0
Flags: HW
PickledData: "(dp1
S'com.typemytype.robofont.layerData'
p2
(dp3
S'b'
(dp4
S'name'
p5
S'Beta'
p6
sS'lib'
p7
(dp8
sS'unicodes'
p9
(tsS'width'
p10
I1201
sS'contours'
p11
(tsS'components'
p12
(tsS'anchors'
p13
(tsss."
LayerCount: 2
Fore
SplineSet
294 1213 m 1
 294 767 l 1
 582 767 l 2
 756 767 867 814 867 991 c 0
 867 1168 741 1213 514 1213 c 2
 294 1213 l 1
294 641 m 1
 294 129 l 1
 575 129 l 2
 801 129 917 209 917 389 c 0
 917 581 787 641 537 641 c 2
 294 641 l 1
136 0 m 1
 136 1346 l 1
 522 1346 l 2
 863 1346 1032 1249 1032 1015 c 0
 1032 949 1015 779 806 713 c 1
 993 678 1082 544 1082 383 c 0
 1082 145 927 0 606 0 c 2
 136 0 l 1
EndSplineSet
EndChar

StartChar: C
Encoding: 36 67 18
Width: 1269
VWidth: 0
Flags: HW
PickledData: "(dp1
S'com.typemytype.robofont.layerData'
p2
(dp3
S'b'
(dp4
S'name'
p5
S'C'
sS'lib'
p6
(dp7
sS'unicodes'
p8
(tsS'width'
p9
I1269
sS'contours'
p10
(tsS'components'
p11
(tsS'anchors'
p12
(tsss."
LayerCount: 2
Fore
SplineSet
780 -18 m 0
 364 -2 143 310 143 725 c 0
 143 1130 386 1413 798 1413 c 0
 960 1413 1071 1381 1172 1317 c 1
 1130 1193 l 1
 1039 1247 922 1275 800 1275 c 0
 483 1275 315 1038 315 719 c 0
 315 401 451 129 816 120 c 0
 933 117 1037 149 1136 196 c 1
 1162 68 l 1
 1097 28 951 -25 780 -18 c 0
EndSplineSet
EndChar

StartChar: Cacute
Encoding: 197 262 19
Width: 1346
VWidth: 0
Flags: HW
PickledData: "(dp1
S'com.typemytype.robofont.layerData'
p2
(dp3
S'b'
(dp4
S'name'
p5
S'Cacute'
p6
sS'lib'
p7
(dp8
sS'unicodes'
p9
(tsS'width'
p10
I1346
sS'contours'
p11
(tsS'components'
p12
(tsS'anchors'
p13
(tsss."
LayerCount: 2
Fore
SplineSet
817 -18 m 0
 401 -2 177 310 177 725 c 0
 177 1130 423 1413 835 1413 c 0
 997 1413 1124 1377 1225 1313 c 1
 1171 1189 l 1
 1080 1243 959 1275 837 1275 c 0
 520 1275 349 1038 349 719 c 0
 349 401 488 129 853 120 c 0
 970 117 1080 149 1179 196 c 1
 1205 68 l 1
 1140 28 988 -25 817 -18 c 0
649 1576 m 1
 819 1929 l 1
 1049 1929 l 1
 753 1576 l 1
 649 1576 l 1
EndSplineSet
EndChar

StartChar: Ccaron
Encoding: 203 268 20
Width: 1346
VWidth: 0
Flags: HW
PickledData: "(dp1
S'com.typemytype.robofont.layerData'
p2
(dp3
S'b'
(dp4
S'name'
p5
S'Ccaron'
p6
sS'lib'
p7
(dp8
sS'unicodes'
p9
(tsS'width'
p10
I1346
sS'contours'
p11
(tsS'components'
p12
(tsS'anchors'
p13
(tsss."
LayerCount: 2
Fore
SplineSet
817 -18 m 0
 401 -2 177 310 177 725 c 0
 177 1130 423 1413 835 1413 c 0
 997 1413 1124 1377 1225 1313 c 1
 1171 1189 l 1
 1080 1243 959 1275 837 1275 c 0
 520 1275 349 1038 349 719 c 0
 349 401 488 129 853 120 c 0
 970 117 1080 149 1179 196 c 1
 1205 68 l 1
 1140 28 988 -25 817 -18 c 0
604 1576 m 1
 434 1929 l 1
 553 1929 l 1
 700 1646 l 1
 847 1929 l 1
 968 1929 l 1
 798 1576 l 1
 604 1576 l 1
EndSplineSet
EndChar

StartChar: Ccedilla
Encoding: 134 199 21
Width: 1346
VWidth: 0
Flags: HW
PickledData: "(dp1
S'com.typemytype.robofont.layerData'
p2
(dp3
S'b'
(dp4
S'name'
p5
S'Ccedilla'
p6
sS'lib'
p7
(dp8
sS'unicodes'
p9
(tsS'width'
p10
I1346
sS'contours'
p11
(tsS'components'
p12
(tsS'anchors'
p13
(tsss."
LayerCount: 2
Fore
SplineSet
560 -394 m 1
 662 -6 l 1
 704 -6 l 1
 360 58 177 349 177 725 c 0
 177 1130 423 1413 835 1413 c 0
 997 1413 1124 1377 1225 1313 c 1
 1171 1189 l 1
 1080 1243 959 1275 837 1275 c 0
 520 1275 349 1038 349 719 c 0
 349 401 488 129 853 120 c 0
 970 117 1080 149 1179 196 c 1
 1205 68 l 1
 1140 28 988 -25 817 -18 c 0
 790 -17 764 -14 739 -11 c 1
 700 -394 l 1
 560 -394 l 1
EndSplineSet
EndChar

StartChar: Ccircumflex
Encoding: 199 264 22
Width: 1346
VWidth: 0
Flags: HW
PickledData: "(dp1
S'com.typemytype.robofont.layerData'
p2
(dp3
S'b'
(dp4
S'name'
p5
S'Ccircumflex'
p6
sS'lib'
p7
(dp8
sS'unicodes'
p9
(tsS'width'
p10
I1346
sS'contours'
p11
(tsS'components'
p12
(tsS'anchors'
p13
(tsss."
LayerCount: 2
Fore
SplineSet
817 -18 m 0
 401 -2 177 310 177 725 c 0
 177 1130 423 1413 835 1413 c 0
 997 1413 1124 1377 1225 1313 c 1
 1171 1189 l 1
 1080 1243 959 1275 837 1275 c 0
 520 1275 349 1038 349 719 c 0
 349 401 488 129 853 120 c 0
 970 117 1080 149 1179 196 c 1
 1205 68 l 1
 1140 28 988 -25 817 -18 c 0
434 1576 m 1
 604 1929 l 1
 798 1929 l 1
 968 1576 l 1
 847 1576 l 1
 700 1824 l 1
 553 1576 l 1
 434 1576 l 1
EndSplineSet
EndChar

StartChar: Cdotaccent
Encoding: 201 266 23
Width: 1346
VWidth: 0
Flags: HW
PickledData: "(dp1
S'com.typemytype.robofont.layerData'
p2
(dp3
S'b'
(dp4
S'name'
p5
S'Cdotaccent'
p6
sS'lib'
p7
(dp8
sS'unicodes'
p9
(tsS'width'
p10
I1346
sS'contours'
p11
(tsS'components'
p12
(tsS'anchors'
p13
(tsss."
LayerCount: 2
Fore
SplineSet
817 -18 m 0
 401 -2 177 310 177 725 c 0
 177 1130 423 1413 835 1413 c 0
 997 1413 1124 1377 1225 1313 c 1
 1171 1189 l 1
 1080 1243 959 1275 837 1275 c 0
 520 1275 349 1038 349 719 c 0
 349 401 488 129 853 120 c 0
 970 117 1080 149 1179 196 c 1
 1205 68 l 1
 1140 28 988 -25 817 -18 c 0
624 1576 m 1
 624 1756 l 1
 778 1756 l 1
 778 1576 l 1
 624 1576 l 1
EndSplineSet
EndChar

StartChar: Chi
Encoding: 468 935 24
Width: 1279
VWidth: 0
Flags: HW
PickledData: "(dp1
S'com.typemytype.robofont.layerData'
p2
(dp3
S'b'
(dp4
S'name'
p5
S'Chi'
p6
sS'lib'
p7
(dp8
sS'unicodes'
p9
(tsS'width'
p10
I1279
sS'contours'
p11
(tsS'components'
p12
(tsS'anchors'
p13
(tsss."
LayerCount: 2
Fore
SplineSet
733 679 m 1
 1181 0 l 1
 999 0 l 1
 642 542 l 1
 286 0 l 1
 104 0 l 1
 551 679 l 1
 104 1346 l 1
 286 1346 l 1
 642 816 l 1
 999 1346 l 1
 1181 1346 l 1
 733 679 l 1
EndSplineSet
EndChar

StartChar: D
Encoding: 37 68 25
Width: 1460
VWidth: 0
Flags: HW
PickledData: "(dp1
S'com.typemytype.robofont.layerData'
p2
(dp3
S'b'
(dp4
S'name'
p5
S'D'
sS'lib'
p6
(dp7
sS'unicodes'
p8
(tsS'width'
p9
I1460
sS'contours'
p10
(tsS'components'
p11
(tsS'anchors'
p12
(tsss."
LayerCount: 2
Fore
SplineSet
186 0 m 1
 186 1390 l 1
 573 1390 l 2
 1023 1390 1317 1172 1317 698 c 0
 1317 247 1049 0 601 0 c 2
 186 0 l 1
364 1252 m 1
 364 137 l 1
 602 137 l 2
 960 137 1139 340 1139 694 c 0
 1139 1082 940 1252 575 1252 c 2
 364 1252 l 1
EndSplineSet
EndChar

StartChar: Dcaron
Encoding: 205 270 26
Width: 1520
VWidth: 0
Flags: HW
PickledData: "(dp1
S'com.typemytype.robofont.layerData'
p2
(dp3
S'b'
(dp4
S'name'
p5
S'Dcaron'
p6
sS'lib'
p7
(dp8
sS'unicodes'
p9
(tsS'width'
p10
I1520
sS'contours'
p11
(tsS'components'
p12
(tsS'anchors'
p13
(tsss."
LayerCount: 2
Fore
SplineSet
214 0 m 1
 214 1390 l 1
 594 1390 l 2
 1044 1390 1343 1166 1343 698 c 0
 1343 253 1070 0 622 0 c 2
 214 0 l 1
392 1252 m 1
 392 137 l 1
 617 137 l 2
 975 137 1165 340 1165 694 c 0
 1165 1082 955 1252 590 1252 c 2
 392 1252 l 1
682 1576 m 1
 512 1929 l 1
 630 1929 l 1
 778 1646 l 1
 924 1929 l 1
 1046 1929 l 1
 876 1576 l 1
 682 1576 l 1
EndSplineSet
EndChar

StartChar: Dcroat
Encoding: 207 272 27
Width: 1490
VWidth: 0
Flags: HW
PickledData: "(dp1
S'com.typemytype.robofont.layerData'
p2
(dp3
S'b'
(dp4
S'name'
p5
S'Dcroat'
p6
sS'lib'
p7
(dp8
sS'unicodes'
p9
(tsS'width'
p10
I1490
sS'contours'
p11
(tsS'components'
p12
(tsS'anchors'
p13
(tsss."
LayerCount: 2
Fore
SplineSet
223 757 m 1
 223 1361 l 1
 561 1361 l 2
 1031 1361 1374 1197 1374 672 c 0
 1374 219 1084 0 654 0 c 2
 223 0 l 1
 223 634 l 1
 116 634 l 1
 116 757 l 1
 223 757 l 1
384 634 m 1
 384 141 l 1
 671 141 l 2
 1004 141 1202 316 1202 668 c 0
 1202 1097 953 1220 581 1220 c 2
 384 1220 l 1
 384 757 l 1
 604 757 l 1
 604 634 l 1
 384 634 l 1
EndSplineSet
EndChar

StartChar: Delta
Encoding: 450 916 28
Width: 1347
VWidth: 0
Flags: HW
PickledData: "(dp1
S'com.typemytype.robofont.layerData'
p2
(dp3
S'b'
(dp4
S'name'
p5
S'Delta'
p6
sS'lib'
p7
(dp8
sS'unicodes'
p9
(tsS'width'
p10
I1347
sS'contours'
p11
(tsS'components'
p12
(tsS'anchors'
p13
(tsss."
LayerCount: 2
Fore
SplineSet
1044 141 m 1
 674 1188 l 1
 309 141 l 1
 1044 141 l 1
90 0 m 1
 590 1361 l 1
 758 1361 l 1
 1259 0 l 1
 90 0 l 1
EndSplineSet
EndChar

StartChar: E
Encoding: 38 69 29
Width: 1169
VWidth: 0
Flags: HW
PickledData: "(dp1
S'com.typemytype.robofont.layerData'
p2
(dp3
S'b'
(dp4
S'name'
p5
S'E'
sS'lib'
p6
(dp7
sS'unicodes'
p8
(tsS'width'
p9
I1169
sS'contours'
p10
(tsS'components'
p11
(tsS'anchors'
p12
(tsss."
LayerCount: 2
Fore
SplineSet
364 1251 m 1
 364 790 l 1
 983 790 l 1
 983 653 l 1
 364 653 l 1
 364 139 l 1
 1073 139 l 1
 1065 0 l 1
 186 0 l 1
 186 1390 l 1
 1038 1390 l 1
 1031 1251 l 1
 364 1251 l 1
EndSplineSet
EndChar

StartChar: Eacute
Encoding: 136 201 30
Width: 1192
VWidth: 0
Flags: HW
PickledData: "(dp1
S'com.typemytype.robofont.layerData'
p2
(dp3
S'b'
(dp4
S'name'
p5
S'Eacute'
p6
sS'lib'
p7
(dp8
sS'unicodes'
p9
(tsS'width'
p10
I1192
sS'contours'
p11
(tsS'components'
p12
(tsS'anchors'
p13
(tsss."
LayerCount: 2
Fore
SplineSet
392 1251 m 1
 392 790 l 1
 982 790 l 1
 982 653 l 1
 392 653 l 1
 392 139 l 1
 1058 139 l 1
 1050 0 l 1
 214 0 l 1
 214 1390 l 1
 1037 1390 l 1
 1030 1251 l 1
 392 1251 l 1
584 1576 m 1
 754 1929 l 1
 984 1929 l 1
 688 1576 l 1
 584 1576 l 1
EndSplineSet
EndChar

StartChar: Ebreve
Encoding: 211 276 31
Width: 1192
VWidth: 0
Flags: HW
PickledData: "(dp1
S'com.typemytype.robofont.layerData'
p2
(dp3
S'b'
(dp4
S'name'
p5
S'Ebreve'
p6
sS'lib'
p7
(dp8
sS'unicodes'
p9
(tsS'width'
p10
I1192
sS'contours'
p11
(tsS'components'
p12
(tsS'anchors'
p13
(tsss."
LayerCount: 2
Fore
SplineSet
392 1251 m 1
 392 790 l 1
 982 790 l 1
 982 653 l 1
 392 653 l 1
 392 139 l 1
 1058 139 l 1
 1050 0 l 1
 214 0 l 1
 214 1390 l 1
 1037 1390 l 1
 1030 1251 l 1
 392 1251 l 1
864 1798 m 1
 864 1641 747 1576 634 1576 c 0
 522 1576 408 1641 408 1798 c 1
 514 1798 l 1
 514 1711 568 1670 634 1670 c 0
 700 1670 758 1711 758 1798 c 1
 864 1798 l 1
EndSplineSet
EndChar

StartChar: Ecaron
Encoding: 217 282 32
Width: 1192
VWidth: 0
Flags: HW
PickledData: "(dp1
S'com.typemytype.robofont.layerData'
p2
(dp3
S'b'
(dp4
S'name'
p5
S'Ecaron'
p6
sS'lib'
p7
(dp8
sS'unicodes'
p9
(tsS'width'
p10
I1192
sS'contours'
p11
(tsS'components'
p12
(tsS'anchors'
p13
(tsss."
LayerCount: 2
Fore
SplineSet
392 1251 m 1
 392 790 l 1
 982 790 l 1
 982 653 l 1
 392 653 l 1
 392 139 l 1
 1058 139 l 1
 1050 0 l 1
 214 0 l 1
 214 1390 l 1
 1037 1390 l 1
 1030 1251 l 1
 392 1251 l 1
539 1576 m 1
 369 1929 l 1
 488 1929 l 1
 635 1646 l 1
 782 1929 l 1
 903 1929 l 1
 733 1576 l 1
 539 1576 l 1
EndSplineSet
EndChar

StartChar: Ecircumflex
Encoding: 137 202 33
Width: 1192
VWidth: 0
Flags: HW
PickledData: "(dp1
S'com.typemytype.robofont.layerData'
p2
(dp3
S'b'
(dp4
S'name'
p5
S'Ecircumflex'
p6
sS'lib'
p7
(dp8
sS'unicodes'
p9
(tsS'width'
p10
I1192
sS'contours'
p11
(tsS'components'
p12
(tsS'anchors'
p13
(tsss."
LayerCount: 2
Fore
SplineSet
392 1251 m 1
 392 790 l 1
 982 790 l 1
 982 653 l 1
 392 653 l 1
 392 139 l 1
 1058 139 l 1
 1050 0 l 1
 214 0 l 1
 214 1390 l 1
 1037 1390 l 1
 1030 1251 l 1
 392 1251 l 1
369 1576 m 1
 539 1929 l 1
 733 1929 l 1
 903 1576 l 1
 782 1576 l 1
 635 1824 l 1
 488 1576 l 1
 369 1576 l 1
EndSplineSet
EndChar

StartChar: Edieresis
Encoding: 138 203 34
Width: 1192
VWidth: 0
Flags: HW
PickledData: "(dp1
S'com.typemytype.robofont.layerData'
p2
(dp3
S'b'
(dp4
S'name'
p5
S'Edieresis'
p6
sS'lib'
p7
(dp8
sS'unicodes'
p9
(tsS'width'
p10
I1192
sS'contours'
p11
(tsS'components'
p12
(tsS'anchors'
p13
(tsss."
LayerCount: 2
Fore
SplineSet
392 1251 m 1
 392 790 l 1
 982 790 l 1
 982 653 l 1
 392 653 l 1
 392 139 l 1
 1058 139 l 1
 1050 0 l 1
 214 0 l 1
 214 1390 l 1
 1037 1390 l 1
 1030 1251 l 1
 392 1251 l 1
743 1576 m 1
 743 1769 l 1
 884 1769 l 1
 884 1576 l 1
 743 1576 l 1
388 1576 m 1
 388 1769 l 1
 529 1769 l 1
 529 1576 l 1
 388 1576 l 1
EndSplineSet
EndChar

StartChar: Edotaccent
Encoding: 213 278 35
Width: 1192
VWidth: 0
Flags: HW
PickledData: "(dp1
S'com.typemytype.robofont.layerData'
p2
(dp3
S'b'
(dp4
S'name'
p5
S'Edotaccent'
p6
sS'lib'
p7
(dp8
sS'unicodes'
p9
(tsS'width'
p10
I1192
sS'contours'
p11
(tsS'components'
p12
(tsS'anchors'
p13
(tsss."
LayerCount: 2
Fore
SplineSet
392 1251 m 1
 392 790 l 1
 982 790 l 1
 982 653 l 1
 392 653 l 1
 392 139 l 1
 1058 139 l 1
 1050 0 l 1
 214 0 l 1
 214 1390 l 1
 1037 1390 l 1
 1030 1251 l 1
 392 1251 l 1
560 1576 m 1
 560 1756 l 1
 712 1756 l 1
 712 1576 l 1
 560 1576 l 1
EndSplineSet
EndChar

StartChar: Egrave
Encoding: 135 200 36
Width: 1192
VWidth: 0
Flags: HW
PickledData: "(dp1
S'com.typemytype.robofont.layerData'
p2
(dp3
S'b'
(dp4
S'name'
p5
S'Egrave'
p6
sS'lib'
p7
(dp8
sS'unicodes'
p9
(tsS'width'
p10
I1192
sS'contours'
p11
(tsS'components'
p12
(tsS'anchors'
p13
(tsss."
LayerCount: 2
Fore
SplineSet
392 1251 m 1
 392 790 l 1
 982 790 l 1
 982 653 l 1
 392 653 l 1
 392 139 l 1
 1058 139 l 1
 1050 0 l 1
 214 0 l 1
 214 1390 l 1
 1037 1390 l 1
 1030 1251 l 1
 392 1251 l 1
585 1576 m 1
 291 1929 l 1
 519 1929 l 1
 687 1576 l 1
 585 1576 l 1
EndSplineSet
EndChar

StartChar: Emacron
Encoding: 209 274 37
Width: 1192
VWidth: 0
Flags: HW
PickledData: "(dp1
S'com.typemytype.robofont.layerData'
p2
(dp3
S'b'
(dp4
S'name'
p5
S'Emacron'
p6
sS'lib'
p7
(dp8
sS'unicodes'
p9
(tsS'width'
p10
I1192
sS'contours'
p11
(tsS'components'
p12
(tsS'anchors'
p13
(tsss."
LayerCount: 2
Fore
SplineSet
392 1251 m 1
 392 790 l 1
 982 790 l 1
 982 653 l 1
 392 653 l 1
 392 139 l 1
 1058 139 l 1
 1050 0 l 1
 214 0 l 1
 214 1390 l 1
 1037 1390 l 1
 1030 1251 l 1
 392 1251 l 1
332 1576 m 1
 332 1703 l 1
 940 1703 l 1
 940 1576 l 1
 332 1576 l 1
EndSplineSet
EndChar

StartChar: Eng
Encoding: 265 330 38
Width: 1292
VWidth: 0
Flags: HW
PickledData: "(dp1
S'com.typemytype.robofont.layerData'
p2
(dp3
S'b'
(dp4
S'name'
p5
S'Eng'
p6
sS'lib'
p7
(dp8
sS'unicodes'
p9
(tsS'width'
p10
I1292
sS'contours'
p11
(tsS'components'
p12
(tsS'anchors'
p13
(tsss."
LayerCount: 2
Fore
SplineSet
769 -298 m 0
 744 -298 698 -297 587 -286 c 1
 566 -151 l 1
 690 -158 709 -159 728 -159 c 0
 980 -159 1001 -92 1001 156 c 2
 1001 913 l 2
 1001 1155 934 1236 737 1236 c 0
 539 1236 384 1121 298 991 c 1
 298 0 l 1
 138 0 l 1
 136 1361 l 1
 282 1361 l 1
 298 1168 l 1
 463 1346 627 1383 785 1383 c 0
 1032 1383 1160 1220 1160 918 c 2
 1160 150 l 2
 1160 -130 1098 -298 769 -298 c 0
EndSplineSet
EndChar

StartChar: Eogonek
Encoding: 215 280 39
Width: 1192
VWidth: 0
Flags: HW
PickledData: "(dp1
S'com.typemytype.robofont.layerData'
p2
(dp3
S'b'
(dp4
S'name'
p5
S'Eogonek'
p6
sS'lib'
p7
(dp8
sS'unicodes'
p9
(tsS'width'
p10
I1192
sS'contours'
p11
(tsS'components'
p12
(tsS'anchors'
p13
(tsss."
LayerCount: 2
Fore
SplineSet
392 1251 m 1
 392 790 l 1
 982 790 l 1
 982 653 l 1
 392 653 l 1
 392 139 l 1
 1058 139 l 1
 1050 0 l 1
 723 0 l 1
 637 -65 576 -129 576 -187 c 0
 576 -235 619 -268 656 -268 c 0
 705 -268 735 -257 781 -238 c 1
 781 -344 l 1
 746 -359 687 -373 638 -373 c 0
 540 -373 462 -317 462 -213 c 0
 462 -122 536 -51 615 0 c 1
 214 0 l 1
 214 1390 l 1
 1037 1390 l 1
 1030 1251 l 1
 392 1251 l 1
EndSplineSet
EndChar

StartChar: Epsilon
Encoding: 451 917 40
Width: 1074
VWidth: 0
Flags: HW
PickledData: "(dp1
S'com.typemytype.robofont.layerData'
p2
(dp3
S'b'
(dp4
S'name'
p5
S'Epsilon'
p6
sS'lib'
p7
(dp8
sS'unicodes'
p9
(tsS'width'
p10
I1074
sS'contours'
p11
(tsS'components'
p12
(tsS'anchors'
p13
(tsss."
LayerCount: 2
Fore
SplineSet
311 1207 m 1
 311 766 l 1
 894 766 l 1
 894 629 l 1
 311 629 l 1
 311 139 l 1
 952 139 l 1
 945 0 l 1
 136 0 l 1
 136 1346 l 1
 952 1346 l 1
 945 1207 l 1
 311 1207 l 1
EndSplineSet
EndChar

StartChar: Epsilontonos
Encoding: 440 904 41
Width: 451
VWidth: 0
Flags: HW
PickledData: "(dp1
S'com.typemytype.robofont.layerData'
p2
(dp3
S'b'
(dp4
S'name'
p5
S'Epsilontonos'
p6
sS'lib'
p7
(dp8
sS'unicodes'
p9
(tsS'width'
p10
I451
sS'contours'
p11
(tsS'components'
p12
(tsS'anchors'
p13
(tsss."
LayerCount: 2
Fore
SplineSet
223 484 m 0
 143 484 102 544 102 604 c 0
 102 664 143 724 223 724 c 0
 304 724 344 664 344 604 c 0
 344 544 304 484 223 484 c 0
EndSplineSet
EndChar

StartChar: Eta
Encoding: 453 919 42
Width: 1320
VWidth: 0
Flags: HW
PickledData: "(dp1
S'com.typemytype.robofont.layerData'
p2
(dp3
S'b'
(dp4
S'name'
p5
S'Eta'
p6
sS'lib'
p7
(dp8
sS'unicodes'
p9
(tsS'width'
p10
I1320
sS'contours'
p11
(tsS'components'
p12
(tsS'anchors'
p13
(tsss."
LayerCount: 2
Fore
SplineSet
1010 768 m 1
 1010 1346 l 1
 1185 1346 l 1
 1185 0 l 1
 1010 0 l 1
 1010 630 l 1
 311 630 l 1
 311 0 l 1
 136 0 l 1
 136 1346 l 1
 311 1346 l 1
 311 768 l 1
 1010 768 l 1
EndSplineSet
EndChar

StartChar: Etatonos
Encoding: 441 905 43
Width: 451
VWidth: 0
Flags: HW
PickledData: "(dp1
S'com.typemytype.robofont.layerData'
p2
(dp3
S'b'
(dp4
S'name'
p5
S'Etatonos'
p6
sS'lib'
p7
(dp8
sS'unicodes'
p9
(tsS'width'
p10
I451
sS'contours'
p11
(tsS'components'
p12
(tsS'anchors'
p13
(tsss."
LayerCount: 2
Fore
SplineSet
223 484 m 0
 143 484 102 544 102 604 c 0
 102 664 143 724 223 724 c 0
 304 724 344 664 344 604 c 0
 344 544 304 484 223 484 c 0
EndSplineSet
EndChar

StartChar: Eth
Encoding: 143 208 44
Width: 1490
VWidth: 0
Flags: HW
PickledData: "(dp1
S'com.typemytype.robofont.layerData'
p2
(dp3
S'b'
(dp4
S'name'
p5
S'Eth'
p6
sS'lib'
p7
(dp8
sS'unicodes'
p9
(tsS'width'
p10
I1490
sS'contours'
p11
(tsS'components'
p12
(tsS'anchors'
p13
(tsss."
LayerCount: 2
Fore
SplineSet
223 757 m 1
 223 1361 l 1
 561 1361 l 2
 1031 1361 1374 1197 1374 672 c 0
 1374 219 1084 0 654 0 c 2
 223 0 l 1
 223 634 l 1
 116 634 l 1
 116 757 l 1
 223 757 l 1
384 634 m 1
 384 141 l 1
 671 141 l 2
 1004 141 1202 316 1202 668 c 0
 1202 1097 953 1220 581 1220 c 2
 384 1220 l 1
 384 757 l 1
 604 757 l 1
 604 634 l 1
 384 634 l 1
EndSplineSet
EndChar

StartChar: Euro
Encoding: 647 8364 45
Width: 1125
VWidth: 0
Flags: HW
PickledData: "(dp1
S'com.typemytype.robofont.layerData'
p2
(dp3
S'b'
(dp4
S'name'
p5
S'Euro'
p6
sS'lib'
p7
(dp8
sS'unicodes'
p9
(tsS'width'
p10
I1125
sS'contours'
p11
(tsS'components'
p12
(tsS'anchors'
p13
(tsss."
LayerCount: 2
Fore
SplineSet
725 -20 m 0
 408 -20 260 261 221 528 c 1
 111 528 l 1
 126 622 l 1
 210 622 l 1
 209 637 208 650 208 665 c 0
 208 700 211 735 213 769 c 1
 110 769 l 1
 127 871 l 1
 228 871 l 1
 274 1172 441 1387 739 1387 c 0
 852 1387 936 1359 1005 1300 c 1
 1004 1137 l 1
 943 1203 858 1246 759 1246 c 0
 552 1246 438 1095 401 871 c 1
 909 871 l 1
 894 769 l 1
 385 769 l 1
 380 724 382 623 380 622 c 1
 880 622 l 1
 871 528 l 1
 396 528 l 1
 421 314 528 123 743 123 c 0
 830 123 918 154 1005 222 c 1
 1004 63 l 1
 924 5 833 -20 725 -20 c 0
EndSplineSet
EndChar

StartChar: F
Encoding: 39 70 46
Width: 1099
VWidth: 0
Flags: HW
PickledData: "(dp1
S'com.typemytype.robofont.layerData'
p2
(dp3
S'b'
(dp4
S'name'
p5
S'F'
sS'lib'
p6
(dp7
sS'unicodes'
p8
(tsS'width'
p9
I1099
sS'contours'
p10
(tsS'components'
p11
(tsS'anchors'
p12
(tsss."
LayerCount: 2
Fore
SplineSet
365 1251 m 1
 365 788 l 1
 961 788 l 1
 961 655 l 1
 365 655 l 1
 365 0 l 1
 186 0 l 1
 186 1390 l 1
 1017 1390 l 1
 1006 1251 l 1
 365 1251 l 1
EndSplineSet
EndChar

StartChar: G
Encoding: 40 71 47
Width: 1376
VWidth: 0
Flags: HW
PickledData: "(dp1
S'com.typemytype.robofont.layerData'
p2
(dp3
S'b'
(dp4
S'name'
p5
S'G'
sS'lib'
p6
(dp7
sS'unicodes'
p8
(tsS'width'
p9
I1376
sS'contours'
p10
(tsS'components'
p11
(tsS'anchors'
p12
(tsss."
LayerCount: 2
Fore
SplineSet
783 -20 m 0
 323 -20 143 291 143 692 c 0
 143 1098 339 1413 800 1413 c 0
 961 1413 1103 1380 1216 1307 c 1
 1166 1185 l 1
 1122 1208 1021 1275 800 1275 c 0
 449 1275 321 1011 321 692 c 0
 321 361 443 118 793 118 c 0
 898 118 979 131 1037 147 c 1
 1037 585 l 1
 753 585 l 1
 761 722 l 1
 1215 722 l 1
 1215 59 l 1
 1106 19 971 -20 783 -20 c 0
EndSplineSet
EndChar

StartChar: Gamma
Encoding: 449 915 48
Width: 1005
VWidth: 0
Flags: HW
PickledData: "(dp1
S'com.typemytype.robofont.layerData'
p2
(dp3
S'b'
(dp4
S'name'
p5
S'Gamma'
p6
sS'lib'
p7
(dp8
sS'unicodes'
p9
(tsS'width'
p10
I1005
sS'contours'
p11
(tsS'components'
p12
(tsS'anchors'
p13
(tsss."
LayerCount: 2
Fore
SplineSet
298 1220 m 1
 298 0 l 1
 136 0 l 1
 136 1361 l 1
 930 1361 l 1
 916 1220 l 1
 298 1220 l 1
EndSplineSet
EndChar

StartChar: Gbreve
Encoding: 221 286 49
Width: 1516
VWidth: 0
Flags: HW
PickledData: "(dp1
S'com.typemytype.robofont.layerData'
p2
(dp3
S'b'
(dp4
S'name'
p5
S'Gbreve'
p6
sS'lib'
p7
(dp8
sS'unicodes'
p9
(tsS'width'
p10
I1516
sS'contours'
p11
(tsS'components'
p12
(tsS'anchors'
p13
(tsss."
LayerCount: 2
Fore
SplineSet
842 -18 m 0
 382 -18 177 291 177 692 c 0
 177 1098 393 1413 874 1413 c 0
 1035 1413 1203 1380 1316 1307 c 1
 1266 1185 l 1
 1222 1208 1095 1275 874 1275 c 0
 499 1275 355 1011 355 692 c 0
 355 361 502 120 852 120 c 0
 957 120 1111 131 1169 147 c 1
 1169 579 l 1
 840 579 l 1
 848 716 l 1
 1347 716 l 1
 1347 59 l 1
 1204 4 1030 -18 842 -18 c 0
990 1798 m 1
 990 1641 873 1576 760 1576 c 0
 648 1576 534 1641 534 1798 c 1
 640 1798 l 1
 640 1711 694 1670 760 1670 c 0
 826 1670 884 1711 884 1798 c 1
 990 1798 l 1
EndSplineSet
EndChar

StartChar: Gcaron
Encoding: 355 486 50
Width: 1516
VWidth: 0
Flags: HW
PickledData: "(dp1
S'com.typemytype.robofont.layerData'
p2
(dp3
S'b'
(dp4
S'name'
p5
S'Gcaron'
p6
sS'lib'
p7
(dp8
sS'unicodes'
p9
(tsS'width'
p10
I1516
sS'contours'
p11
(tsS'components'
p12
(tsS'anchors'
p13
(tsss."
LayerCount: 2
Fore
SplineSet
842 -18 m 0
 382 -18 177 291 177 692 c 0
 177 1098 393 1413 874 1413 c 0
 1035 1413 1203 1380 1316 1307 c 1
 1266 1185 l 1
 1222 1208 1095 1275 874 1275 c 0
 499 1275 355 1011 355 692 c 0
 355 361 502 120 852 120 c 0
 957 120 1111 131 1169 147 c 1
 1169 579 l 1
 840 579 l 1
 848 716 l 1
 1347 716 l 1
 1347 59 l 1
 1204 4 1030 -18 842 -18 c 0
665 1576 m 1
 495 1929 l 1
 614 1929 l 1
 761 1646 l 1
 908 1929 l 1
 1029 1929 l 1
 859 1576 l 1
 665 1576 l 1
EndSplineSet
EndChar

StartChar: Gcircumflex
Encoding: 219 284 51
Width: 1516
VWidth: 0
Flags: HW
PickledData: "(dp1
S'com.typemytype.robofont.layerData'
p2
(dp3
S'b'
(dp4
S'name'
p5
S'Gcircumflex'
p6
sS'lib'
p7
(dp8
sS'unicodes'
p9
(tsS'width'
p10
I1516
sS'contours'
p11
(tsS'components'
p12
(tsS'anchors'
p13
(tsss."
LayerCount: 2
Fore
SplineSet
842 -18 m 0
 382 -18 177 291 177 692 c 0
 177 1098 393 1413 874 1413 c 0
 1035 1413 1203 1380 1316 1307 c 1
 1266 1185 l 1
 1222 1208 1095 1275 874 1275 c 0
 499 1275 355 1011 355 692 c 0
 355 361 502 120 852 120 c 0
 957 120 1111 131 1169 147 c 1
 1169 579 l 1
 840 579 l 1
 848 716 l 1
 1347 716 l 1
 1347 59 l 1
 1204 4 1030 -18 842 -18 c 0
495 1576 m 1
 665 1929 l 1
 859 1929 l 1
 1029 1576 l 1
 908 1576 l 1
 761 1824 l 1
 614 1576 l 1
 495 1576 l 1
EndSplineSet
EndChar

StartChar: Gcommaaccent
Encoding: 225 290 52
Width: 1516
VWidth: 0
Flags: HW
PickledData: "(dp1
S'com.typemytype.robofont.layerData'
p2
(dp3
S'b'
(dp4
S'name'
p5
S'Gcommaaccent'
p6
sS'lib'
p7
(dp8
sS'unicodes'
p9
(tsS'width'
p10
I1516
sS'contours'
p11
(tsS'components'
p12
(tsS'anchors'
p13
(tsss."
LayerCount: 2
Fore
SplineSet
842 -18 m 0
 382 -18 177 291 177 692 c 0
 177 1098 393 1413 874 1413 c 0
 1035 1413 1203 1380 1316 1307 c 1
 1266 1185 l 1
 1222 1208 1095 1275 874 1275 c 0
 499 1275 355 1011 355 692 c 0
 355 361 502 120 852 120 c 0
 957 120 1111 131 1169 147 c 1
 1169 579 l 1
 840 579 l 1
 848 716 l 1
 1347 716 l 1
 1347 59 l 1
 1204 4 1030 -18 842 -18 c 0
644 -635 m 1
 730 -181 l 1
 880 -181 l 1
 750 -635 l 1
 644 -635 l 1
EndSplineSet
EndChar

StartChar: Gdotaccent
Encoding: 223 288 53
Width: 1516
VWidth: 0
Flags: HW
PickledData: "(dp1
S'com.typemytype.robofont.layerData'
p2
(dp3
S'b'
(dp4
S'name'
p5
S'Gdotaccent'
p6
sS'lib'
p7
(dp8
sS'unicodes'
p9
(tsS'width'
p10
I1516
sS'contours'
p11
(tsS'components'
p12
(tsS'anchors'
p13
(tsss."
LayerCount: 2
Fore
SplineSet
842 -18 m 0
 382 -18 177 291 177 692 c 0
 177 1098 393 1413 874 1413 c 0
 1035 1413 1203 1380 1316 1307 c 1
 1266 1185 l 1
 1222 1208 1095 1275 874 1275 c 0
 499 1275 355 1011 355 692 c 0
 355 361 502 120 852 120 c 0
 957 120 1111 131 1169 147 c 1
 1169 579 l 1
 840 579 l 1
 848 716 l 1
 1347 716 l 1
 1347 59 l 1
 1204 4 1030 -18 842 -18 c 0
686 1576 m 1
 686 1756 l 1
 838 1756 l 1
 838 1576 l 1
 686 1576 l 1
EndSplineSet
EndChar

StartChar: H
Encoding: 41 72 54
Width: 1443
VWidth: 0
Flags: HW
PickledData: "(dp1
S'com.typemytype.robofont.layerData'
p2
(dp3
S'b'
(dp4
S'name'
p5
S'H'
sS'lib'
p6
(dp7
sS'unicodes'
p8
(tsS'width'
p9
I1443
sS'contours'
p10
(tsS'components'
p11
(tsS'anchors'
p12
(tsss."
LayerCount: 2
Fore
SplineSet
364 766 m 1
 1079 766 l 1
 1079 1390 l 1
 1257 1390 l 1
 1257 0 l 1
 1079 0 l 1
 1079 634 l 1
 364 634 l 1
 364 0 l 1
 186 0 l 1
 186 1390 l 1
 364 1390 l 1
 364 766 l 1
EndSplineSet
EndChar

StartChar: Hbar
Encoding: 229 294 55
Width: 1458
VWidth: 0
Flags: HW
PickledData: "(dp1
S'com.typemytype.robofont.layerData'
p2
(dp3
S'b'
(dp4
S'name'
p5
S'Hbar'
p6
sS'lib'
p7
(dp8
sS'unicodes'
p9
(tsS'width'
p10
I1458
sS'contours'
p11
(tsS'components'
p12
(tsS'anchors'
p13
(tsss."
LayerCount: 2
Fore
SplineSet
357 772 m 1
 1100 772 l 1
 1100 1043 l 1
 357 1043 l 1
 357 772 l 1
196 1138 m 1
 196 1361 l 1
 357 1361 l 1
 357 1138 l 1
 1100 1138 l 1
 1100 1361 l 1
 1261 1361 l 1
 1261 1138 l 1
 1343 1138 l 1
 1343 1043 l 1
 1261 1043 l 1
 1261 0 l 1
 1100 0 l 1
 1100 633 l 1
 357 633 l 1
 357 0 l 1
 196 0 l 1
 196 1043 l 1
 114 1043 l 1
 114 1138 l 1
 196 1138 l 1
EndSplineSet
EndChar

StartChar: Hcircumflex
Encoding: 227 292 56
Width: 1507
VWidth: 0
Flags: HW
PickledData: "(dp1
S'com.typemytype.robofont.layerData'
p2
(dp3
S'b'
(dp4
S'name'
p5
S'Hcircumflex'
p6
sS'lib'
p7
(dp8
sS'unicodes'
p9
(tsS'width'
p10
I1507
sS'contours'
p11
(tsS'components'
p12
(tsS'anchors'
p13
(tsss."
LayerCount: 2
Fore
SplineSet
392 766 m 1
 1115 766 l 1
 1115 1390 l 1
 1293 1390 l 1
 1293 0 l 1
 1115 0 l 1
 1115 634 l 1
 392 634 l 1
 392 0 l 1
 214 0 l 1
 214 1390 l 1
 392 1390 l 1
 392 766 l 1
486 1576 m 1
 656 1929 l 1
 850 1929 l 1
 1020 1576 l 1
 900 1576 l 1
 752 1824 l 1
 606 1576 l 1
 486 1576 l 1
EndSplineSet
EndChar

StartChar: I
Encoding: 42 73 57
Width: 551
VWidth: 0
Flags: HW
PickledData: "(dp1
S'com.typemytype.robofont.layerData'
p2
(dp3
S'b'
(dp4
S'name'
p5
S'I'
sS'lib'
p6
(dp7
sS'unicodes'
p8
(tsS'width'
p9
I551
sS'contours'
p10
(tsS'components'
p11
(tsS'anchors'
p12
(tsss."
LayerCount: 2
Fore
SplineSet
186 0 m 1
 186 1390 l 1
 365 1390 l 1
 365 0 l 1
 186 0 l 1
EndSplineSet
EndChar

StartChar: IJ
Encoding: 241 306 58
Width: 1348
VWidth: 0
Flags: HW
PickledData: "(dp1
S'com.typemytype.robofont.layerData'
p2
(dp3
S'b'
(dp4
S'name'
p5
S'IJ'
p6
sS'lib'
p7
(dp8
sS'unicodes'
p9
(tsS'width'
p10
I1348
sS'contours'
p11
(tsS'components'
p12
(tsS'anchors'
p13
(tsss."
LayerCount: 2
Fore
SplineSet
214 0 m 1
 214 1390 l 1
 393 1390 l 1
 393 0 l 1
 214 0 l 1
728 -192 m 1
 714 -45 l 1
 952 -45 956 51 956 186 c 2
 956 1408 l 1
 1134 1408 l 1
 1134 219 l 2
 1134 -61 1087 -192 728 -192 c 1
EndSplineSet
EndChar

StartChar: Iacute
Encoding: 140 205 59
Width: 607
VWidth: 0
Flags: HW
PickledData: "(dp1
S'com.typemytype.robofont.layerData'
p2
(dp3
S'b'
(dp4
S'name'
p5
S'Iacute'
p6
sS'lib'
p7
(dp8
sS'unicodes'
p9
(tsS'width'
p10
I607
sS'contours'
p11
(tsS'components'
p12
(tsS'anchors'
p13
(tsss."
LayerCount: 2
Fore
SplineSet
214 0 m 1
 214 1390 l 1
 393 1390 l 1
 393 0 l 1
 214 0 l 1
252 1576 m 1
 422 1929 l 1
 652 1929 l 1
 356 1576 l 1
 252 1576 l 1
EndSplineSet
EndChar

StartChar: Ibreve
Encoding: 235 300 60
Width: 607
VWidth: 0
Flags: HW
PickledData: "(dp1
S'com.typemytype.robofont.layerData'
p2
(dp3
S'b'
(dp4
S'name'
p5
S'Ibreve'
p6
sS'lib'
p7
(dp8
sS'unicodes'
p9
(tsS'width'
p10
I607
sS'contours'
p11
(tsS'components'
p12
(tsS'anchors'
p13
(tsss."
LayerCount: 2
Fore
SplineSet
214 0 m 1
 214 1390 l 1
 393 1390 l 1
 393 0 l 1
 214 0 l 1
532 1798 m 1
 532 1641 415 1576 302 1576 c 0
 190 1576 75 1641 75 1798 c 1
 181 1798 l 1
 181 1711 236 1670 302 1670 c 0
 368 1670 426 1711 426 1798 c 1
 532 1798 l 1
EndSplineSet
EndChar

StartChar: Icircumflex
Encoding: 141 206 61
Width: 607
VWidth: 0
Flags: HW
PickledData: "(dp1
S'com.typemytype.robofont.layerData'
p2
(dp3
S'b'
(dp4
S'name'
p5
S'Icircumflex'
p6
sS'lib'
p7
(dp8
sS'unicodes'
p9
(tsS'width'
p10
I607
sS'contours'
p11
(tsS'components'
p12
(tsS'anchors'
p13
(tsss."
LayerCount: 2
Fore
SplineSet
214 0 m 1
 214 1390 l 1
 393 1390 l 1
 393 0 l 1
 214 0 l 1
36 1576 m 1
 206 1929 l 1
 400 1929 l 1
 570 1576 l 1
 450 1576 l 1
 302 1824 l 1
 156 1576 l 1
 36 1576 l 1
EndSplineSet
EndChar

StartChar: Idieresis
Encoding: 142 207 62
Width: 607
VWidth: 0
Flags: HW
PickledData: "(dp1
S'com.typemytype.robofont.layerData'
p2
(dp3
S'b'
(dp4
S'name'
p5
S'Idieresis'
p6
sS'lib'
p7
(dp8
sS'unicodes'
p9
(tsS'width'
p10
I607
sS'contours'
p11
(tsS'components'
p12
(tsS'anchors'
p13
(tsss."
LayerCount: 2
Fore
SplineSet
214 0 m 1
 214 1390 l 1
 393 1390 l 1
 393 0 l 1
 214 0 l 1
410 1576 m 1
 410 1769 l 1
 552 1769 l 1
 552 1576 l 1
 410 1576 l 1
56 1576 m 1
 56 1769 l 1
 196 1769 l 1
 196 1576 l 1
 56 1576 l 1
EndSplineSet
EndChar

StartChar: Idotaccent
Encoding: 239 304 63
Width: 607
VWidth: 0
Flags: HW
PickledData: "(dp1
S'com.typemytype.robofont.layerData'
p2
(dp3
S'b'
(dp4
S'name'
p5
S'Idotaccent'
p6
sS'lib'
p7
(dp8
sS'unicodes'
p9
(tsS'width'
p10
I607
sS'contours'
p11
(tsS'components'
p12
(tsS'anchors'
p13
(tsss."
LayerCount: 2
Fore
SplineSet
214 0 m 1
 214 1390 l 1
 393 1390 l 1
 393 0 l 1
 214 0 l 1
227 1576 m 1
 227 1756 l 1
 380 1756 l 1
 380 1576 l 1
 227 1576 l 1
EndSplineSet
EndChar

StartChar: Igrave
Encoding: 139 204 64
Width: 607
VWidth: 0
Flags: HW
PickledData: "(dp1
S'com.typemytype.robofont.layerData'
p2
(dp3
S'b'
(dp4
S'name'
p5
S'Igrave'
p6
sS'lib'
p7
(dp8
sS'unicodes'
p9
(tsS'width'
p10
I607
sS'contours'
p11
(tsS'components'
p12
(tsS'anchors'
p13
(tsss."
LayerCount: 2
Fore
SplineSet
214 0 m 1
 214 1390 l 1
 393 1390 l 1
 393 0 l 1
 214 0 l 1
252 1576 m 1
 -42 1929 l 1
 186 1929 l 1
 354 1576 l 1
 252 1576 l 1
EndSplineSet
EndChar

StartChar: Imacron
Encoding: 233 298 65
Width: 607
VWidth: 0
Flags: HW
PickledData: "(dp1
S'com.typemytype.robofont.layerData'
p2
(dp3
S'b'
(dp4
S'name'
p5
S'Imacron'
p6
sS'lib'
p7
(dp8
sS'unicodes'
p9
(tsS'width'
p10
I607
sS'contours'
p11
(tsS'components'
p12
(tsS'anchors'
p13
(tsss."
LayerCount: 2
Fore
SplineSet
214 0 m 1
 214 1390 l 1
 393 1390 l 1
 393 0 l 1
 214 0 l 1
-0 1576 m 1
 -0 1703 l 1
 608 1703 l 1
 608 1576 l 1
 -0 1576 l 1
EndSplineSet
EndChar

StartChar: Iogonek
Encoding: 237 302 66
Width: 607
VWidth: 0
Flags: HW
PickledData: "(dp1
S'com.typemytype.robofont.layerData'
p2
(dp3
S'b'
(dp4
S'name'
p5
S'Iogonek'
p6
sS'lib'
p7
(dp8
sS'unicodes'
p9
(tsS'width'
p10
I607
sS'contours'
p11
(tsS'components'
p12
(tsS'anchors'
p13
(tsss."
LayerCount: 2
Fore
SplineSet
214 0 m 1
 214 1390 l 1
 393 1390 l 1
 393 0 l 1
 338 0 l 1
 252 -65 192 -129 192 -187 c 0
 192 -235 235 -268 272 -268 c 0
 321 -268 350 -257 396 -238 c 1
 396 -344 l 1
 361 -359 303 -373 254 -373 c 0
 156 -373 78 -317 78 -213 c 0
 78 -122 151 -51 230 -0 c 1
 214 0 l 1
EndSplineSet
EndChar

StartChar: Iota
Encoding: 455 921 67
Width: 446
VWidth: 0
Flags: HW
PickledData: "(dp1
S'com.typemytype.robofont.layerData'
p2
(dp3
S'b'
(dp4
S'name'
p5
S'Iota'
p6
sS'lib'
p7
(dp8
sS'unicodes'
p9
(tsS'width'
p10
I446
sS'contours'
p11
(tsS'components'
p12
(tsS'anchors'
p13
(tsss."
LayerCount: 2
Fore
SplineSet
136 0 m 1
 136 1346 l 1
 311 1346 l 1
 311 0 l 1
 136 0 l 1
EndSplineSet
EndChar

StartChar: Iotadieresis
Encoding: 471 938 68
Width: 446
VWidth: 0
Flags: HW
PickledData: "(dp1
S'com.typemytype.robofont.layerData'
p2
(dp3
S'b'
(dp4
S'name'
p5
S'Iotadieresis'
p6
sS'lib'
p7
(dp8
sS'unicodes'
p9
(tsS'width'
p10
I446
sS'contours'
p11
(tsS'components'
p12
(tsS'anchors'
p13
(tsss."
LayerCount: 2
Fore
SplineSet
330 1576 m 1
 330 1769 l 1
 472 1769 l 1
 472 1576 l 1
 330 1576 l 1
-24 1576 m 1
 -24 1769 l 1
 116 1769 l 1
 116 1576 l 1
 -24 1576 l 1
136 0 m 1
 136 1346 l 1
 311 1346 l 1
 311 0 l 1
 136 0 l 1
EndSplineSet
EndChar

StartChar: Iotatonos
Encoding: 442 906 69
Width: 451
VWidth: 0
Flags: HW
PickledData: "(dp1
S'com.typemytype.robofont.layerData'
p2
(dp3
S'b'
(dp4
S'name'
p5
S'Iotatonos'
p6
sS'lib'
p7
(dp8
sS'unicodes'
p9
(tsS'width'
p10
I451
sS'contours'
p11
(tsS'components'
p12
(tsS'anchors'
p13
(tsss."
LayerCount: 2
Fore
SplineSet
223 484 m 0
 143 484 102 544 102 604 c 0
 102 664 143 724 223 724 c 0
 304 724 344 664 344 604 c 0
 344 544 304 484 223 484 c 0
EndSplineSet
EndChar

StartChar: Itilde
Encoding: 231 296 70
Width: 607
VWidth: 0
Flags: HW
PickledData: "(dp1
S'com.typemytype.robofont.layerData'
p2
(dp3
S'b'
(dp4
S'name'
p5
S'Itilde'
p6
sS'lib'
p7
(dp8
sS'unicodes'
p9
(tsS'width'
p10
I607
sS'contours'
p11
(tsS'components'
p12
(tsS'anchors'
p13
(tsss."
LayerCount: 2
Fore
SplineSet
214 0 m 1
 214 1390 l 1
 393 1390 l 1
 393 0 l 1
 214 0 l 1
20 1576 m 1
 20 1712 79 1775 176 1775 c 0
 289 1775 445 1690 445 1690 c 1
 481 1693 484 1737 487 1775 c 1
 587 1775 l 1
 587 1650 547 1576 451 1576 c 0
 369 1576 167 1664 167 1664 c 1
 137 1663 120 1626 117 1576 c 1
 20 1576 l 1
EndSplineSet
EndChar

StartChar: J
Encoding: 43 74 71
Width: 1024
VWidth: 0
Flags: HW
PickledData: "(dp1
S'com.typemytype.robofont.layerData'
p2
(dp3
S'b'
(dp4
S'name'
p5
S'J'
sS'lib'
p6
(dp7
sS'unicodes'
p8
(tsS'width'
p9
I1024
sS'contours'
p10
((dp11
S'points'
p12
((dp13
S'y'
F317
sS'x'
F664
sS'smooth'
p14
I00
s(dp15
S'y'
F118
sS'x'
F650
sg14
I00
s(dp16
S'segmentType'
p17
S'curve'
p18
sS'x'
F412
sg14
I00
sS'y'
F118
s(dp19
S'y'
F118
sS'x'
F290
sg14
I00
s(dp20
S'y'
F141
sS'x'
F177
sg14
I00
s(dp21
g17
S'curve'
p22
sS'x'
F86
sg14
I00
sS'y'
F195
s(dp23
g17
S'line'
p24
sS'x'
F44
sg14
I00
sS'y'
F71
s(dp25
S'y'
F7
sS'x'
F145
sg14
I00
s(dp26
S'y'
F-25
sS'x'
F256
sg14
I00
s(dp27
g17
S'curve'
p28
sS'x'
F418
sg14
I01
sS'y'
F-25
s(dp29
S'y'
F-25
sS'x'
F777
sg14
I00
s(dp30
S'y'
F228
sS'x'
F842
sg14
I00
s(dp31
g17
S'curve'
p32
sS'x'
F842
sg14
I01
sS'y'
F508
s(dp33
g17
S'line'
p34
sS'x'
F842
sg14
I00
sS'y'
F1390
s(dp35
g17
S'line'
p36
sS'x'
F664
sg14
I00
sS'y'
F1390
s(dp37
g17
S'line'
p38
sS'x'
F664
sg14
I01
sS'y'
F475
stp39
stp40
sS'components'
p41
(tsS'anchors'
p42
(tsss."
LayerCount: 2
Fore
SplineSet
54 71 m 1
 96 195 l 1
 222 143 332 119 413 119 c 0
 612 119 676 256 676 490 c 2
 676 1390 l 1
 854 1390 l 1
 854 487 l 2
 854 202 733 -20 430 -20 c 0
 328 -20 191 7 54 71 c 1
EndSplineSet
EndChar

StartChar: Jcircumflex
Encoding: 243 308 72
Width: 741
VWidth: 0
Flags: HW
PickledData: "(dp1
S'com.typemytype.robofont.layerData'
p2
(dp3
S'b'
(dp4
S'name'
p5
S'Jcircumflex'
p6
sS'lib'
p7
(dp8
sS'unicodes'
p9
(tsS'width'
p10
I741
sS'contours'
p11
(tsS'components'
p12
(tsS'anchors'
p13
(tsss."
LayerCount: 2
Fore
SplineSet
121 -192 m 1
 107 -45 l 1
 345 -45 349 51 349 186 c 2
 349 1408 l 1
 527 1408 l 1
 527 219 l 2
 527 -61 480 -192 121 -192 c 1
50 1576 m 1
 220 1929 l 1
 414 1929 l 1
 584 1576 l 1
 463 1576 l 1
 316 1824 l 1
 169 1576 l 1
 50 1576 l 1
EndSplineSet
EndChar

StartChar: K
Encoding: 44 75 73
Width: 1288
VWidth: 0
Flags: HW
PickledData: "(dp1
S'com.typemytype.robofont.layerData'
p2
(dp3
S'b'
(dp4
S'name'
p5
S'K'
sS'lib'
p6
(dp7
sS'unicodes'
p8
(tsS'width'
p9
I1288
sS'contours'
p10
((dp11
S'points'
p12
((dp13
S'segmentType'
p14
S'line'
p15
sS'x'
F995
sS'smooth'
p16
I00
sS'y'
F1389
s(dp17
g14
S'line'
p18
sS'x'
F394
sg16
I00
sS'y'
F746
s(dp19
g14
S'line'
p20
sS'x'
F394
sg16
I00
sS'y'
F1389
s(dp21
g14
S'line'
p22
sS'x'
F216
sg16
I00
sS'y'
F1389
s(dp23
g14
S'line'
p24
sS'x'
F216
sg16
I00
sS'y'
F0
s(dp25
g14
S'line'
p26
sS'x'
F394
sg16
I00
sS'y'
F0
s(dp27
g14
S'line'
p28
sS'x'
F394
sg16
I00
sS'y'
F585
s(dp29
g14
S'line'
p30
sS'x'
F511
sg16
I00
sS'y'
F689
s(dp31
g14
S'line'
p32
sS'x'
F1057
sg16
I00
sS'y'
F0
s(dp33
g14
S'line'
p34
sS'x'
F1266
sg16
I00
sS'y'
F0
s(dp35
g14
S'line'
p36
sS'x'
F641
sg16
I00
sS'y'
F763
s(dp37
g14
S'line'
p38
sS'x'
F1219
sg16
I00
sS'y'
F1389
stp39
stp40
sS'components'
p41
(tsS'anchors'
p42
(tsss."
LayerCount: 2
Fore
SplineSet
1047 1390 m 1
 1251 1390 l 1
 687 785 l 1
 1302 0 l 1
 1106 0 l 1
 565 684 l 1
 364 493 l 1
 364 0 l 1
 186 0 l 1
 186 1390 l 1
 364 1390 l 1
 364 661 l 1
 1047 1390 l 1
EndSplineSet
EndChar

StartChar: Kappa
Encoding: 456 922 74
Width: 1220
VWidth: 0
Flags: HW
PickledData: "(dp1
S'com.typemytype.robofont.layerData'
p2
(dp3
S'b'
(dp4
S'name'
p5
S'Kappa'
p6
sS'lib'
p7
(dp8
sS'unicodes'
p9
(tsS'width'
p10
I1220
sS'contours'
p11
(tsS'components'
p12
(tsS'anchors'
p13
(tsss."
LayerCount: 2
Fore
SplineSet
878 1346 m 1
 1098 1346 l 1
 553 743 l 1
 1127 0 l 1
 908 0 l 1
 415 646 l 1
 311 543 l 1
 311 0 l 1
 136 0 l 1
 136 1346 l 1
 311 1346 l 1
 311 732 l 1
 878 1346 l 1
EndSplineSet
EndChar

StartChar: Kcommaaccent
Encoding: 245 310 75
Width: 1302
VWidth: 0
Flags: HW
PickledData: "(dp1
S'com.typemytype.robofont.layerData'
p2
(dp3
S'b'
(dp4
S'name'
p5
S'Kcommaaccent'
p6
sS'lib'
p7
(dp8
sS'unicodes'
p9
(tsS'width'
p10
I1302
sS'contours'
p11
(tsS'components'
p12
(tsS'anchors'
p13
(tsss."
LayerCount: 2
Fore
SplineSet
993 1389 m 1
 1217 1389 l 1
 639 763 l 1
 1264 0 l 1
 1055 0 l 1
 509 689 l 1
 392 585 l 1
 392 0 l 1
 214 0 l 1
 214 1389 l 1
 392 1389 l 1
 392 746 l 1
 993 1389 l 1
620 -617 m 1
 706 -163 l 1
 858 -163 l 1
 728 -617 l 1
 620 -617 l 1
EndSplineSet
EndChar

StartChar: L
Encoding: 45 76 76
Width: 1062
VWidth: 0
Flags: HW
PickledData: "(dp1
S'com.typemytype.robofont.layerData'
p2
(dp3
S'b'
(dp4
S'name'
p5
S'L'
sS'lib'
p6
(dp7
sS'unicodes'
p8
(tsS'width'
p9
I1062
sS'contours'
p10
(tsS'components'
p11
(tsS'anchors'
p12
(tsss."
LayerCount: 2
Fore
SplineSet
1002 140 m 1
 995 0 l 1
 186 0 l 1
 186 1390 l 1
 365 1390 l 1
 365 140 l 1
 1002 140 l 1
EndSplineSet
EndChar

StartChar: Lacute
Encoding: 248 313 77
Width: 1055
VWidth: 0
Flags: HW
PickledData: "(dp1
S'com.typemytype.robofont.layerData'
p2
(dp3
S'b'
(dp4
S'name'
p5
S'Lacute'
p6
sS'lib'
p7
(dp8
sS'unicodes'
p9
(tsS'width'
p10
I1055
sS'contours'
p11
(tsS'components'
p12
(tsS'anchors'
p13
(tsss."
LayerCount: 2
Fore
SplineSet
981 140 m 1
 974 0 l 1
 214 0 l 1
 214 1390 l 1
 393 1390 l 1
 393 140 l 1
 981 140 l 1
546 1576 m 1
 716 1929 l 1
 946 1929 l 1
 650 1576 l 1
 546 1576 l 1
EndSplineSet
EndChar

StartChar: Lambda
Encoding: 457 923 78
Width: 1347
VWidth: 0
Flags: HW
PickledData: "(dp1
S'com.typemytype.robofont.layerData'
p2
(dp3
S'b'
(dp4
S'name'
p5
S'Lambda'
p6
sS'lib'
p7
(dp8
sS'unicodes'
p9
(tsS'width'
p10
I1347
sS'contours'
p11
(tsS'components'
p12
(tsS'anchors'
p13
(tsss."
LayerCount: 2
Fore
SplineSet
1094 0 m 1
 674 1188 l 1
 260 0 l 1
 90 0 l 1
 590 1361 l 1
 758 1361 l 1
 1259 0 l 1
 1094 0 l 1
EndSplineSet
EndChar

StartChar: Lcaron
Encoding: 252 317 79
Width: 1055
VWidth: 0
Flags: HW
PickledData: "(dp1
S'com.typemytype.robofont.layerData'
p2
(dp3
S'b'
(dp4
S'name'
p5
S'Lcaron'
p6
sS'lib'
p7
(dp8
sS'unicodes'
p9
(tsS'width'
p10
I1055
sS'contours'
p11
(tsS'components'
p12
(tsS'anchors'
p13
(tsss."
LayerCount: 2
Fore
SplineSet
981 140 m 1
 974 0 l 1
 214 0 l 1
 214 1390 l 1
 393 1390 l 1
 393 140 l 1
 981 140 l 1
1226 984 m 1
 1310 1413 l 1
 1454 1413 l 1
 1332 984 l 1
 1226 984 l 1
EndSplineSet
EndChar

StartChar: Lcommaaccent
Encoding: 250 315 80
Width: 1055
VWidth: 0
Flags: HW
PickledData: "(dp1
S'com.typemytype.robofont.layerData'
p2
(dp3
S'b'
(dp4
S'name'
p5
S'Lcommaaccent'
p6
sS'lib'
p7
(dp8
sS'unicodes'
p9
(tsS'width'
p10
I1055
sS'contours'
p11
(tsS'components'
p12
(tsS'anchors'
p13
(tsss."
LayerCount: 2
Fore
SplineSet
981 140 m 1
 974 0 l 1
 214 0 l 1
 214 1390 l 1
 393 1390 l 1
 393 140 l 1
 981 140 l 1
479 -617 m 1
 565 -163 l 1
 716 -163 l 1
 586 -617 l 1
 479 -617 l 1
EndSplineSet
EndChar

StartChar: Ldot
Encoding: 254 319 81
Width: 1055
VWidth: 0
Flags: HW
PickledData: "(dp1
S'com.typemytype.robofont.layerData'
p2
(dp3
S'b'
(dp4
S'name'
p5
S'Ldot'
p6
sS'lib'
p7
(dp8
sS'unicodes'
p9
(tsS'width'
p10
I1055
sS'contours'
p11
(tsS'components'
p12
(tsS'anchors'
p13
(tsss."
LayerCount: 2
Fore
SplineSet
981 140 m 1
 974 0 l 1
 214 0 l 1
 214 1390 l 1
 393 1390 l 1
 393 140 l 1
 981 140 l 1
521 616 m 1
 521 796 l 1
 674 796 l 1
 674 616 l 1
 521 616 l 1
EndSplineSet
EndChar

StartChar: Lslash
Encoding: 256 321 82
Width: 1096
VWidth: 0
Flags: HW
PickledData: "(dp1
S'com.typemytype.robofont.layerData'
p2
(dp3
S'b'
(dp4
S'name'
p5
S'Lslash'
p6
sS'lib'
p7
(dp8
sS'unicodes'
p9
(tsS'width'
p10
I1096
sS'contours'
p11
(tsS'components'
p12
(tsS'anchors'
p13
(tsss."
LayerCount: 2
Fore
SplineSet
246 688 m 1
 246 1361 l 1
 407 1361 l 1
 407 776 l 1
 725 951 l 1
 725 809 l 1
 407 638 l 1
 407 141 l 1
 1005 141 l 1
 994 0 l 1
 246 0 l 1
 246 551 l 1
 111 480 l 1
 111 614 l 1
 246 688 l 1
EndSplineSet
EndChar

StartChar: M
Encoding: 46 77 83
Width: 1786
VWidth: 0
Flags: W
PickledData: "(dp1
S'com.typemytype.robofont.layerData'
p2
(dp3
S'b'
(dp4
S'name'
p5
S'M'
sS'lib'
p6
(dp7
sS'unicodes'
p8
(tsS'width'
p9
I1786
sS'contours'
p10
(tsS'components'
p11
(tsS'anchors'
p12
(tsss."
HStem: 0 21G<186 349 1437 1600> 1370 20G<186 418.047 1374.03 1600>
VStem: 186 163<0 1167> 1437 163<0 1163>
LayerCount: 2
Fore
SplineSet
1383 1390 m 1
 1600 1390 l 1
 1600 0 l 1
 1437 0 l 1
 1437 843 l 1
 1445 1163 l 1
 981 112 l 1
 815 112 l 1
 338 1167 l 1
 349 839 l 1
 349 0 l 1
 186 0 l 1
 186 1390 l 1
 409 1390 l 1
 898 309 l 1
 1383 1390 l 1
EndSplineSet
EndChar

StartChar: Mu
Encoding: 458 924 84
Width: 1611
VWidth: 0
Flags: HW
PickledData: "(dp1
S'com.typemytype.robofont.layerData'
p2
(dp3
S'b'
(dp4
S'name'
p5
S'Mu'
p6
sS'lib'
p7
(dp8
sS'unicodes'
p9
(tsS'width'
p10
I1611
sS'contours'
p11
(tsS'components'
p12
(tsS'anchors'
p13
(tsss."
LayerCount: 2
Fore
SplineSet
1278 1346 m 1
 1476 1346 l 1
 1476 0 l 1
 1323 0 l 1
 1323 810 l 1
 1330 1132 l 1
 1296 1040 l 1
 885 83 l 1
 731 83 l 1
 312 1044 l 1
 278 1136 l 1
 289 806 l 1
 289 0 l 1
 136 0 l 1
 136 1346 l 1
 340 1346 l 1
 807 274 l 1
 1278 1346 l 1
EndSplineSet
EndChar

StartChar: N
Encoding: 47 78 85
Width: 1490
VWidth: 0
Flags: HW
PickledData: "(dp1
S'com.typemytype.robofont.layerData'
p2
(dp3
S'b'
(dp4
S'name'
p5
S'N'
sS'lib'
p6
(dp7
sS'unicodes'
p8
(tsS'width'
p9
I1490
sS'contours'
p10
(tsS'components'
p11
(tsS'anchors'
p12
(tsss."
LayerCount: 2
Fore
SplineSet
1153 215 m 1
 1148 555 l 1
 1148 1390 l 1
 1304 1390 l 1
 1304 0 l 1
 1121 0 l 1
 337 1171 l 1
 342 830 l 1
 342 0 l 1
 186 0 l 1
 186 1390 l 1
 365 1390 l 1
 1153 215 l 1
EndSplineSet
EndChar

StartChar: Nacute
Encoding: 258 323 86
Width: 1557
VWidth: 0
Flags: HW
PickledData: "(dp1
S'com.typemytype.robofont.layerData'
p2
(dp3
S'b'
(dp4
S'name'
p5
S'Nacute'
p6
sS'lib'
p7
(dp8
sS'unicodes'
p9
(tsS'width'
p10
I1557
sS'contours'
p11
(tsS'components'
p12
(tsS'anchors'
p13
(tsss."
LayerCount: 2
Fore
SplineSet
1192 208 m 1
 1187 555 l 1
 1187 1390 l 1
 1343 1390 l 1
 1343 0 l 1
 1160 0 l 1
 365 1181 l 1
 370 830 l 1
 370 0 l 1
 214 0 l 1
 214 1390 l 1
 393 1390 l 1
 1192 208 l 1
726 1576 m 1
 896 1929 l 1
 1126 1929 l 1
 830 1576 l 1
 726 1576 l 1
EndSplineSet
EndChar

StartChar: Ncaron
Encoding: 262 327 87
Width: 1557
VWidth: 0
Flags: HW
PickledData: "(dp1
S'com.typemytype.robofont.layerData'
p2
(dp3
S'b'
(dp4
S'name'
p5
S'Ncaron'
p6
sS'lib'
p7
(dp8
sS'unicodes'
p9
(tsS'width'
p10
I1557
sS'contours'
p11
(tsS'components'
p12
(tsS'anchors'
p13
(tsss."
LayerCount: 2
Fore
SplineSet
1192 208 m 1
 1187 555 l 1
 1187 1390 l 1
 1343 1390 l 1
 1343 0 l 1
 1160 0 l 1
 365 1181 l 1
 370 830 l 1
 370 0 l 1
 214 0 l 1
 214 1390 l 1
 393 1390 l 1
 1192 208 l 1
682 1576 m 1
 512 1929 l 1
 630 1929 l 1
 778 1646 l 1
 924 1929 l 1
 1046 1929 l 1
 876 1576 l 1
 682 1576 l 1
EndSplineSet
EndChar

StartChar: Ncommaaccent
Encoding: 260 325 88
Width: 1557
VWidth: 0
Flags: HW
PickledData: "(dp1
S'com.typemytype.robofont.layerData'
p2
(dp3
S'b'
(dp4
S'name'
p5
S'Ncommaaccent'
p6
sS'lib'
p7
(dp8
sS'unicodes'
p9
(tsS'width'
p10
I1557
sS'contours'
p11
(tsS'components'
p12
(tsS'anchors'
p13
(tsss."
LayerCount: 2
Fore
SplineSet
1192 208 m 1
 1187 555 l 1
 1187 1390 l 1
 1343 1390 l 1
 1343 0 l 1
 1160 0 l 1
 365 1181 l 1
 370 830 l 1
 370 0 l 1
 214 0 l 1
 214 1390 l 1
 393 1390 l 1
 1192 208 l 1
660 -617 m 1
 746 -163 l 1
 897 -163 l 1
 767 -617 l 1
 660 -617 l 1
EndSplineSet
EndChar

StartChar: Ntilde
Encoding: 144 209 89
Width: 1557
VWidth: 0
Flags: HW
PickledData: "(dp1
S'com.typemytype.robofont.layerData'
p2
(dp3
S'b'
(dp4
S'name'
p5
S'Ntilde'
p6
sS'lib'
p7
(dp8
sS'unicodes'
p9
(tsS'width'
p10
I1557
sS'contours'
p11
(tsS'components'
p12
(tsS'anchors'
p13
(tsss."
LayerCount: 2
Fore
SplineSet
1192 208 m 1
 1187 555 l 1
 1187 1390 l 1
 1343 1390 l 1
 1343 0 l 1
 1160 0 l 1
 365 1181 l 1
 370 830 l 1
 370 0 l 1
 214 0 l 1
 214 1390 l 1
 393 1390 l 1
 1192 208 l 1
495 1576 m 1
 495 1712 554 1775 651 1775 c 0
 764 1775 920 1690 920 1690 c 1
 956 1693 959 1737 962 1775 c 1
 1062 1775 l 1
 1062 1650 1022 1576 926 1576 c 0
 844 1576 642 1664 642 1664 c 1
 612 1663 595 1626 592 1576 c 1
 495 1576 l 1
EndSplineSet
EndChar

StartChar: Nu
Encoding: 459 925 90
Width: 1378
VWidth: 0
Flags: HW
PickledData: "(dp1
S'com.typemytype.robofont.layerData'
p2
(dp3
S'b'
(dp4
S'name'
p5
S'Nu'
p6
sS'lib'
p7
(dp8
sS'unicodes'
p9
(tsS'width'
p10
I1378
sS'contours'
p11
(tsS'components'
p12
(tsS'anchors'
p13
(tsss."
LayerCount: 2
Fore
SplineSet
1096 219 m 1
 1096 219 1090 509 1090 555 c 2
 1090 1346 l 1
 1243 1346 l 1
 1243 0 l 1
 1065 0 l 1
 806 377 540 747 284 1127 c 1
 284 1127 289 894 289 786 c 2
 289 0 l 1
 136 0 l 1
 136 1346 l 1
 312 1346 l 1
 572 970 838 598 1096 219 c 1
EndSplineSet
EndChar

StartChar: O
Encoding: 48 79 91
Width: 1593
VWidth: 0
Flags: HW
PickledData: "(dp1
S'com.typemytype.robofont.guides'
p2
(tsS'com.typemytype.robofont.layerData'
p3
(dp4
S'b'
(dp5
S'name'
p6
S'O'
sS'lib'
p7
(dp8
sS'unicodes'
p9
(tsS'width'
p10
I1593
sS'contours'
p11
(tsS'components'
p12
(tsS'anchors'
p13
(tsss."
LayerCount: 2
Fore
SplineSet
797 118 m 0
 1121 118 1271 379 1271 697 c 0
 1271 1027 1115 1275 798 1275 c 0
 481 1275 322 1028 322 697 c 0
 322 379 473 118 797 118 c 0
1450 697 m 0
 1450 287 1215 -20 797 -20 c 0
 374 -20 143 281 143 698 c 0
 143 1125 382 1413 798 1413 c 0
 1207 1413 1450 1122 1450 697 c 0
EndSplineSet
EndChar

StartChar: OE
Encoding: 273 338 92
Width: 1866
VWidth: 0
Flags: HW
PickledData: "(dp1
S'com.typemytype.robofont.layerData'
p2
(dp3
S'b'
(dp4
S'name'
p5
S'OE'
p6
sS'lib'
p7
(dp8
sS'unicodes'
p9
(tsS'width'
p10
I1866
sS'contours'
p11
(tsS'components'
p12
(tsS'anchors'
p13
(tsss."
LayerCount: 2
Fore
SplineSet
771 117 m 1
 888 117 1022 176 1066 202 c 1
 1066 1146 l 1
 996 1203 890 1249 763 1249 c 0
 468 1249 293 1020 286 703 c 1
 286 380 415 121 771 117 c 1
770 -21 m 0
 338 -21 113 272 113 702 c 1
 122 1099 383 1387 749 1387 c 0
 884 1387 998 1345 1066 1286 c 1
 1066 1360 l 1
 1726 1360 l 1
 1711 1220 l 1
 1227 1220 l 1
 1227 769 l 1
 1678 769 l 1
 1678 630 l 1
 1227 630 l 1
 1227 142 l 1
 1748 142 l 1
 1734 0 l 1
 1066 0 l 1
 1066 75 l 1
 1027 33 876 -21 770 -21 c 0
EndSplineSet
EndChar

StartChar: Oacute
Encoding: 146 211 93
Width: 1661
VWidth: 0
Flags: HW
PickledData: "(dp1
S'com.typemytype.robofont.layerData'
p2
(dp3
S'b'
(dp4
S'name'
p5
S'Oacute'
p6
sS'lib'
p7
(dp8
sS'unicodes'
p9
(tsS'width'
p10
I1661
sS'contours'
p11
(tsS'components'
p12
(tsS'anchors'
p13
(tsss."
LayerCount: 2
Fore
SplineSet
831 120 m 0
 1155 120 1305 379 1305 697 c 0
 1305 1027 1149 1275 832 1275 c 0
 515 1275 356 1028 356 697 c 0
 356 379 507 120 831 120 c 0
1484 697 m 0
 1484 287 1249 -18 831 -18 c 0
 408 -18 177 281 177 698 c 0
 177 1125 416 1413 832 1413 c 0
 1241 1413 1484 1122 1484 697 c 0
778 1576 m 1
 948 1929 l 1
 1178 1929 l 1
 882 1576 l 1
 778 1576 l 1
EndSplineSet
EndChar

StartChar: Obreve
Encoding: 269 334 94
Width: 1661
VWidth: 0
Flags: HW
PickledData: "(dp1
S'com.typemytype.robofont.layerData'
p2
(dp3
S'b'
(dp4
S'name'
p5
S'Obreve'
p6
sS'lib'
p7
(dp8
sS'unicodes'
p9
(tsS'width'
p10
I1661
sS'contours'
p11
(tsS'components'
p12
(tsS'anchors'
p13
(tsss."
LayerCount: 2
Fore
SplineSet
831 120 m 0
 1155 120 1305 379 1305 697 c 0
 1305 1027 1149 1275 832 1275 c 0
 515 1275 356 1028 356 697 c 0
 356 379 507 120 831 120 c 0
1484 697 m 0
 1484 287 1249 -18 831 -18 c 0
 408 -18 177 281 177 698 c 0
 177 1125 416 1413 832 1413 c 0
 1241 1413 1484 1122 1484 697 c 0
1059 1798 m 1
 1059 1641 942 1576 829 1576 c 0
 717 1576 602 1641 602 1798 c 1
 708 1798 l 1
 708 1711 763 1670 829 1670 c 0
 895 1670 953 1711 953 1798 c 1
 1059 1798 l 1
EndSplineSet
EndChar

StartChar: Ocircumflex
Encoding: 147 212 95
Width: 1661
VWidth: 0
Flags: HW
PickledData: "(dp1
S'com.typemytype.robofont.layerData'
p2
(dp3
S'b'
(dp4
S'name'
p5
S'Ocircumflex'
p6
sS'lib'
p7
(dp8
sS'unicodes'
p9
(tsS'width'
p10
I1661
sS'contours'
p11
(tsS'components'
p12
(tsS'anchors'
p13
(tsss."
LayerCount: 2
Fore
SplineSet
831 120 m 0
 1155 120 1305 379 1305 697 c 0
 1305 1027 1149 1275 832 1275 c 0
 515 1275 356 1028 356 697 c 0
 356 379 507 120 831 120 c 0
1484 697 m 0
 1484 287 1249 -18 831 -18 c 0
 408 -18 177 281 177 698 c 0
 177 1125 416 1413 832 1413 c 0
 1241 1413 1484 1122 1484 697 c 0
564 1576 m 1
 734 1929 l 1
 928 1929 l 1
 1098 1576 l 1
 976 1576 l 1
 830 1824 l 1
 682 1576 l 1
 564 1576 l 1
EndSplineSet
EndChar

StartChar: Odieresis
Encoding: 149 214 96
Width: 1661
VWidth: 0
Flags: HW
PickledData: "(dp1
S'com.typemytype.robofont.layerData'
p2
(dp3
S'b'
(dp4
S'name'
p5
S'Odieresis'
p6
sS'lib'
p7
(dp8
sS'unicodes'
p9
(tsS'width'
p10
I1661
sS'contours'
p11
(tsS'components'
p12
(tsS'anchors'
p13
(tsss."
LayerCount: 2
Fore
SplineSet
831 120 m 0
 1155 120 1305 379 1305 697 c 0
 1305 1027 1149 1275 832 1275 c 0
 515 1275 356 1028 356 697 c 0
 356 379 507 120 831 120 c 0
1484 697 m 0
 1484 287 1249 -18 831 -18 c 0
 408 -18 177 281 177 698 c 0
 177 1125 416 1413 832 1413 c 0
 1241 1413 1484 1122 1484 697 c 0
938 1576 m 1
 938 1769 l 1
 1078 1769 l 1
 1078 1576 l 1
 938 1576 l 1
582 1576 m 1
 582 1769 l 1
 724 1769 l 1
 724 1576 l 1
 582 1576 l 1
EndSplineSet
EndChar

StartChar: Ograve
Encoding: 145 210 97
Width: 1661
VWidth: 0
Flags: HW
PickledData: "(dp1
S'com.typemytype.robofont.layerData'
p2
(dp3
S'b'
(dp4
S'name'
p5
S'Ograve'
p6
sS'lib'
p7
(dp8
sS'unicodes'
p9
(tsS'width'
p10
I1661
sS'contours'
p11
(tsS'components'
p12
(tsS'anchors'
p13
(tsss."
LayerCount: 2
Fore
SplineSet
831 120 m 0
 1155 120 1305 379 1305 697 c 0
 1305 1027 1149 1275 832 1275 c 0
 515 1275 356 1028 356 697 c 0
 356 379 507 120 831 120 c 0
1484 697 m 0
 1484 287 1249 -18 831 -18 c 0
 408 -18 177 281 177 698 c 0
 177 1125 416 1413 832 1413 c 0
 1241 1413 1484 1122 1484 697 c 0
780 1576 m 1
 486 1929 l 1
 714 1929 l 1
 882 1576 l 1
 780 1576 l 1
EndSplineSet
EndChar

StartChar: Ohorn
Encoding: 320 416 98
Width: 1661
VWidth: 0
Flags: HW
PickledData: "(dp1
S'com.typemytype.robofont.layerData'
p2
(dp3
S'b'
(dp4
S'name'
p5
S'Ohorn'
p6
sS'lib'
p7
(dp8
sS'unicodes'
p9
(tsS'width'
p10
I1661
sS'contours'
p11
(tsS'components'
p12
(tsS'anchors'
p13
(tsss."
LayerCount: 2
Fore
SplineSet
831 120 m 0
 1155 120 1305 379 1305 697 c 0
 1305 1027 1149 1275 832 1275 c 0
 515 1275 356 1028 356 697 c 0
 356 379 507 120 831 120 c 0
1484 697 m 0
 1484 287 1249 -18 831 -18 c 0
 408 -18 177 281 177 698 c 0
 177 1125 416 1413 832 1413 c 0
 1241 1413 1484 1122 1484 697 c 0
1650 1099 m 0
 1624 1099 1594 1101 1566 1104 c 1
 1566 1190 l 1
 1580 1190 1595 1188 1610 1188 c 0
 1663 1188 1680 1229 1680 1279 c 0
 1680 1324 1666 1376 1652 1413 c 1
 1758 1413 l 1
 1777 1368 1788 1321 1788 1276 c 0
 1788 1180 1742 1099 1650 1099 c 0
EndSplineSet
EndChar

StartChar: Ohungarumlaut
Encoding: 271 336 99
Width: 1661
VWidth: 0
Flags: HW
PickledData: "(dp1
S'com.typemytype.robofont.layerData'
p2
(dp3
S'b'
(dp4
S'name'
p5
S'Ohungarumlaut'
p6
sS'lib'
p7
(dp8
sS'unicodes'
p9
(tsS'width'
p10
I1661
sS'contours'
p11
(tsS'components'
p12
(tsS'anchors'
p13
(tsss."
LayerCount: 2
Fore
SplineSet
831 120 m 0
 1155 120 1305 379 1305 697 c 0
 1305 1027 1149 1275 832 1275 c 0
 515 1275 356 1028 356 697 c 0
 356 379 507 120 831 120 c 0
1484 697 m 0
 1484 287 1249 -18 831 -18 c 0
 408 -18 177 281 177 698 c 0
 177 1125 416 1413 832 1413 c 0
 1241 1413 1484 1122 1484 697 c 0
891 1576 m 1
 1074 1881 l 1
 1211 1881 l 1
 983 1576 l 1
 891 1576 l 1
678 1576 m 1
 859 1881 l 1
 998 1881 l 1
 769 1576 l 1
 678 1576 l 1
EndSplineSet
EndChar

StartChar: Omacron
Encoding: 267 332 100
Width: 1661
VWidth: 0
Flags: HW
PickledData: "(dp1
S'com.typemytype.robofont.layerData'
p2
(dp3
S'b'
(dp4
S'name'
p5
S'Omacron'
p6
sS'lib'
p7
(dp8
sS'unicodes'
p9
(tsS'width'
p10
I1661
sS'contours'
p11
(tsS'components'
p12
(tsS'anchors'
p13
(tsss."
LayerCount: 2
Fore
SplineSet
831 120 m 0
 1155 120 1305 379 1305 697 c 0
 1305 1027 1149 1275 832 1275 c 0
 515 1275 356 1028 356 697 c 0
 356 379 507 120 831 120 c 0
1484 697 m 0
 1484 287 1249 -18 831 -18 c 0
 408 -18 177 281 177 698 c 0
 177 1125 416 1413 832 1413 c 0
 1241 1413 1484 1122 1484 697 c 0
526 1576 m 1
 526 1703 l 1
 1134 1703 l 1
 1134 1576 l 1
 526 1576 l 1
EndSplineSet
EndChar

StartChar: Omega
Encoding: 470 937 101
Width: 1511
VWidth: 0
Flags: HW
PickledData: "(dp1
S'com.typemytype.robofont.layerData'
p2
(dp3
S'b'
(dp4
S'name'
p5
S'Omega'
p6
sS'lib'
p7
(dp8
sS'unicodes'
p9
(tsS'width'
p10
I1511
sS'contours'
p11
(tsS'components'
p12
(tsS'anchors'
p13
(tsss."
LayerCount: 2
Fore
SplineSet
754 118 m 0
 1072 118 1220 349 1220 667 c 0
 1220 997 1066 1228 755 1228 c 0
 444 1228 288 998 288 667 c 0
 288 349 436 118 754 118 c 0
754 -20 m 0
 339 -20 114 251 114 668 c 0
 114 1095 347 1366 755 1366 c 0
 1156 1366 1395 1092 1395 667 c 0
 1395 257 1164 -20 754 -20 c 0
EndSplineSet
EndChar

StartChar: Omegatonos
Encoding: 445 911 102
Width: 451
VWidth: 0
Flags: HW
PickledData: "(dp1
S'com.typemytype.robofont.layerData'
p2
(dp3
S'b'
(dp4
S'name'
p5
S'Omegatonos'
p6
sS'lib'
p7
(dp8
sS'unicodes'
p9
(tsS'width'
p10
I451
sS'contours'
p11
(tsS'components'
p12
(tsS'anchors'
p13
(tsss."
LayerCount: 2
Fore
SplineSet
223 484 m 0
 143 484 102 544 102 604 c 0
 102 664 143 724 223 724 c 0
 304 724 344 664 344 604 c 0
 344 544 304 484 223 484 c 0
EndSplineSet
EndChar

StartChar: Omicron
Encoding: 461 927 103
Width: 1511
VWidth: 0
Flags: HW
PickledData: "(dp1
S'com.typemytype.robofont.layerData'
p2
(dp3
S'b'
(dp4
S'name'
p5
S'Omicron'
p6
sS'lib'
p7
(dp8
sS'unicodes'
p9
(tsS'width'
p10
I1511
sS'contours'
p11
(tsS'components'
p12
(tsS'anchors'
p13
(tsss."
LayerCount: 2
Fore
SplineSet
754 118 m 0
 1072 118 1220 349 1220 667 c 0
 1220 997 1066 1228 755 1228 c 0
 444 1228 288 998 288 667 c 0
 288 349 436 118 754 118 c 0
754 -20 m 0
 339 -20 114 251 114 668 c 0
 114 1095 347 1366 755 1366 c 0
 1156 1366 1395 1092 1395 667 c 0
 1395 257 1164 -20 754 -20 c 0
EndSplineSet
EndChar

StartChar: Omicrontonos
Encoding: 443 908 104
Width: 451
VWidth: 0
Flags: HW
PickledData: "(dp1
S'com.typemytype.robofont.layerData'
p2
(dp3
S'b'
(dp4
S'name'
p5
S'Omicrontonos'
p6
sS'lib'
p7
(dp8
sS'unicodes'
p9
(tsS'width'
p10
I451
sS'contours'
p11
(tsS'components'
p12
(tsS'anchors'
p13
(tsss."
LayerCount: 2
Fore
SplineSet
223 484 m 0
 143 484 102 544 102 604 c 0
 102 664 143 724 223 724 c 0
 304 724 344 664 344 604 c 0
 344 544 304 484 223 484 c 0
EndSplineSet
EndChar

StartChar: Oslash
Encoding: 151 216 105
Width: 1560
VWidth: 0
Flags: HW
PickledData: "(dp1
S'com.typemytype.robofont.layerData'
p2
(dp3
S'b'
(dp4
S'name'
p5
S'Oslash'
p6
sS'lib'
p7
(dp8
sS'unicodes'
p9
(tsS'width'
p10
I1560
sS'contours'
p11
(tsS'components'
p12
(tsS'anchors'
p13
(tsss."
LayerCount: 2
Fore
SplineSet
779 138 m 0
 1110 138 1269 390 1269 714 c 0
 1269 923 1199 1104 1056 1203 c 1
 631 157 l 1
 676 144 724 138 779 138 c 0
520 207 m 1
 944 1258 l 1
 895 1274 840 1282 779 1282 c 0
 450 1282 288 1031 288 714 c 0
 288 491 364 302 520 207 c 1
500 -164 m 1
 386 -125 l 1
 456 48 l 1
 231 162 115 406 115 708 c 0
 115 1156 358 1443 779 1443 c 0
 861 1443 937 1432 1006 1411 c 1
 1077 1588 l 1
 1196 1546 l 1
 1121 1362 l 1
 1329 1246 1443 1017 1443 708 c 0
 1443 283 1216 -23 779 -23 c 0
 702 -23 632 -13 568 5 c 1
 500 -164 l 1
EndSplineSet
EndChar

StartChar: Oslashacute
Encoding: 375 510 106
Width: 1560
VWidth: 0
Flags: HW
PickledData: "(dp1
S'com.typemytype.robofont.layerData'
p2
(dp3
S'b'
(dp4
S'name'
p5
S'Oslashacute'
p6
sS'lib'
p7
(dp8
sS'unicodes'
p9
(tsS'width'
p10
I1560
sS'contours'
p11
(tsS'components'
p12
(tsS'anchors'
p13
(tsss."
LayerCount: 2
Fore
SplineSet
779 138 m 0
 1110 138 1269 390 1269 714 c 0
 1269 923 1199 1104 1056 1203 c 1
 631 157 l 1
 676 144 724 138 779 138 c 0
520 207 m 1
 944 1258 l 1
 895 1274 840 1282 779 1282 c 0
 450 1282 288 1031 288 714 c 0
 288 491 364 302 520 207 c 1
500 -164 m 1
 386 -125 l 1
 456 48 l 1
 231 162 115 406 115 708 c 0
 115 1156 358 1443 779 1443 c 0
 861 1443 937 1432 1006 1411 c 1
 1077 1588 l 1
 1196 1546 l 1
 1121 1362 l 1
 1329 1246 1443 1017 1443 708 c 0
 1443 283 1216 -23 779 -23 c 0
 702 -23 632 -13 568 5 c 1
 500 -164 l 1
727 1751 m 1
 897 2104 l 1
 1127 2104 l 1
 831 1751 l 1
 727 1751 l 1
EndSplineSet
EndChar

StartChar: Otilde
Encoding: 148 213 107
Width: 1661
VWidth: 0
Flags: HW
PickledData: "(dp1
S'com.typemytype.robofont.layerData'
p2
(dp3
S'b'
(dp4
S'name'
p5
S'Otilde'
p6
sS'lib'
p7
(dp8
sS'unicodes'
p9
(tsS'width'
p10
I1661
sS'contours'
p11
(tsS'components'
p12
(tsS'anchors'
p13
(tsss."
LayerCount: 2
Fore
SplineSet
831 120 m 0
 1155 120 1305 379 1305 697 c 0
 1305 1027 1149 1275 832 1275 c 0
 515 1275 356 1028 356 697 c 0
 356 379 507 120 831 120 c 0
1484 697 m 0
 1484 287 1249 -18 831 -18 c 0
 408 -18 177 281 177 698 c 0
 177 1125 416 1413 832 1413 c 0
 1241 1413 1484 1122 1484 697 c 0
547 1576 m 1
 547 1712 606 1775 703 1775 c 0
 816 1775 972 1690 972 1690 c 1
 1008 1693 1011 1737 1014 1775 c 1
 1114 1775 l 1
 1114 1650 1074 1576 978 1576 c 0
 896 1576 694 1664 694 1664 c 1
 664 1663 647 1626 644 1576 c 1
 547 1576 l 1
EndSplineSet
EndChar

StartChar: P
Encoding: 49 80 108
Width: 1245
VWidth: 0
Flags: HW
PickledData: "(dp1
S'com.typemytype.robofont.layerData'
p2
(dp3
S'b'
(dp4
S'name'
p5
S'P'
sS'lib'
p6
(dp7
sS'unicodes'
p8
(tsS'width'
p9
I1245
sS'contours'
p10
(tsS'components'
p11
(tsS'anchors'
p12
(tsss."
LayerCount: 2
Fore
SplineSet
690 714 m 0
 914 714 982 825 982 1005 c 0
 982 1167 870 1253 699 1253 c 2
 365 1253 l 1
 365 716 l 1
 365 716 627 714 690 714 c 0
186 0 m 1
 186 1390 l 1
 703 1390 l 2
 966 1390 1161 1253 1161 1008 c 0
 1161 755 1026 583 682 583 c 0
 609 583 435 582 365 586 c 1
 365 0 l 1
 186 0 l 1
EndSplineSet
EndChar

StartChar: Phi
Encoding: 467 934 109
Width: 1547
VWidth: 0
Flags: HW
PickledData: "(dp1
S'com.typemytype.robofont.layerData'
p2
(dp3
S'b'
(dp4
S'name'
p5
S'Phi'
p6
sS'lib'
p7
(dp8
sS'unicodes'
p9
(tsS'width'
p10
I1547
sS'contours'
p11
(tsS'components'
p12
(tsS'anchors'
p13
(tsss."
LayerCount: 2
Fore
SplineSet
851 1097 m 1
 851 294 l 1
 1138 320 1264 492 1264 703 c 0
 1264 920 1128 1073 851 1097 c 1
690 294 m 1
 690 1097 l 1
 418 1072 280 921 280 703 c 0
 280 493 406 321 690 294 c 1
851 0 m 1
 690 0 l 1
 690 155 l 1
 308 183 108 410 108 703 c 0
 108 1001 320 1210 690 1236 c 1
 690 1361 l 1
 851 1361 l 1
 851 1236 l 1
 1224 1211 1436 1002 1436 703 c 0
 1436 409 1236 181 851 155 c 1
 851 0 l 1
EndSplineSet
EndChar

StartChar: Pi
Encoding: 462 928 110
Width: 1337
VWidth: 0
Flags: HW
PickledData: "(dp1
S'com.typemytype.robofont.layerData'
p2
(dp3
S'b'
(dp4
S'name'
p5
S'Pi'
p6
sS'lib'
p7
(dp8
sS'unicodes'
p9
(tsS'width'
p10
I1337
sS'contours'
p11
(tsS'components'
p12
(tsS'anchors'
p13
(tsss."
LayerCount: 2
Fore
SplineSet
1041 0 m 1
 1041 1223 l 1
 298 1223 l 1
 298 0 l 1
 136 0 l 1
 136 1361 l 1
 1202 1361 l 1
 1202 0 l 1
 1041 0 l 1
EndSplineSet
EndChar

StartChar: Psi
Encoding: 469 936 111
Width: 451
VWidth: 0
Flags: HW
PickledData: "(dp1
S'com.typemytype.robofont.layerData'
p2
(dp3
S'b'
(dp4
S'name'
p5
S'Psi'
p6
sS'lib'
p7
(dp8
sS'unicodes'
p9
(tsS'width'
p10
I451
sS'contours'
p11
(tsS'components'
p12
(tsS'anchors'
p13
(tsss."
LayerCount: 2
Fore
SplineSet
223 484 m 0
 143 484 102 544 102 604 c 0
 102 664 143 724 223 724 c 0
 304 724 344 664 344 604 c 0
 344 544 304 484 223 484 c 0
EndSplineSet
EndChar

StartChar: Q
Encoding: 50 81 112
Width: 1593
VWidth: 0
Flags: HW
PickledData: "(dp1
S'com.typemytype.robofont.layerData'
p2
(dp3
S'b'
(dp4
S'name'
p5
S'Q'
sS'lib'
p6
(dp7
sS'unicodes'
p8
(tsS'width'
p9
I1593
sS'contours'
p10
(tsS'components'
p11
(tsS'anchors'
p12
(tsss."
LayerCount: 2
Fore
SplineSet
1318 -318 m 1
 1215 -421 l 1
 1179 -386 976 -158 897 -1 c 1
 1044 36 l 1
 1066 1 1209 -211 1318 -318 c 1
EndSplineSet
Refer: 91 79 N 1 0 0 1 0 0 2
EndChar

StartChar: R
Encoding: 51 82 113
Width: 1288
VWidth: 0
Flags: HW
PickledData: "(dp1
S'com.typemytype.robofont.layerData'
p2
(dp3
S'b'
(dp4
S'name'
p5
S'R'
sS'lib'
p6
(dp7
sS'unicodes'
p8
(tsS'width'
p9
I1288
sS'contours'
p10
(tsS'components'
p11
(tsS'anchors'
p12
(tsss."
LayerCount: 2
Fore
SplineSet
186 0 m 1
 186 1390 l 1
 641 1390 l 2
 971 1390 1158 1323 1158 1040 c 0
 1158 872 1096 758 913 700 c 1
 1201 0 l 1
 1015 0 l 1
 753 664 l 1
 726 662 624 659 592 659 c 0
 575 659 365 661 365 661 c 1
 365 0 l 1
 186 0 l 1
676 799 m 2
 921 799 981 878 981 1038 c 0
 981 1180 911 1252 668 1252 c 2
 365 1252 l 1
 365 799 l 1
 676 799 l 2
EndSplineSet
EndChar

StartChar: Racute
Encoding: 275 340 114
Width: 1416
VWidth: 0
Flags: HW
PickledData: "(dp1
S'com.typemytype.robofont.layerData'
p2
(dp3
S'b'
(dp4
S'name'
p5
S'Racute'
p6
sS'lib'
p7
(dp8
sS'unicodes'
p9
(tsS'width'
p10
I1416
sS'contours'
p11
(tsS'components'
p12
(tsS'anchors'
p13
(tsss."
LayerCount: 2
Fore
SplineSet
214 0 m 1
 214 1390 l 1
 717 1390 l 2
 1047 1390 1234 1323 1234 1040 c 0
 1234 872 1185 755 989 700 c 1
 989 695 1046 585 1078 517 c 1
 1298 0 l 1
 1112 0 l 1
 927 464 l 1
 891 544 858 618 829 664 c 1
 802 662 700 659 668 659 c 0
 651 659 393 661 393 661 c 1
 393 0 l 1
 214 0 l 1
752 799 m 2
 997 799 1057 878 1057 1038 c 0
 1057 1180 987 1252 744 1252 c 2
 393 1252 l 1
 393 799 l 1
 752 799 l 2
704 1576 m 1
 874 1929 l 1
 1104 1929 l 1
 808 1576 l 1
 704 1576 l 1
EndSplineSet
EndChar

StartChar: Rcaron
Encoding: 279 344 115
Width: 1416
VWidth: 0
Flags: HW
PickledData: "(dp1
S'com.typemytype.robofont.layerData'
p2
(dp3
S'b'
(dp4
S'name'
p5
S'Rcaron'
p6
sS'lib'
p7
(dp8
sS'unicodes'
p9
(tsS'width'
p10
I1416
sS'contours'
p11
(tsS'components'
p12
(tsS'anchors'
p13
(tsss."
LayerCount: 2
Fore
SplineSet
214 0 m 1
 214 1390 l 1
 717 1390 l 2
 1047 1390 1234 1323 1234 1040 c 0
 1234 872 1185 755 989 700 c 1
 989 695 1046 585 1078 517 c 1
 1298 0 l 1
 1112 0 l 1
 927 464 l 1
 891 544 858 618 829 664 c 1
 802 662 700 659 668 659 c 0
 651 659 393 661 393 661 c 1
 393 0 l 1
 214 0 l 1
752 799 m 2
 997 799 1057 878 1057 1038 c 0
 1057 1180 987 1252 744 1252 c 2
 393 1252 l 1
 393 799 l 1
 752 799 l 2
659 1576 m 1
 489 1929 l 1
 608 1929 l 1
 755 1646 l 1
 902 1929 l 1
 1023 1929 l 1
 853 1576 l 1
 659 1576 l 1
EndSplineSet
EndChar

StartChar: Rcommaaccent
Encoding: 277 342 116
Width: 1416
VWidth: 0
Flags: HW
PickledData: "(dp1
S'com.typemytype.robofont.layerData'
p2
(dp3
S'b'
(dp4
S'name'
p5
S'Rcommaaccent'
p6
sS'lib'
p7
(dp8
sS'unicodes'
p9
(tsS'width'
p10
I1416
sS'contours'
p11
(tsS'components'
p12
(tsS'anchors'
p13
(tsss."
LayerCount: 2
Fore
SplineSet
214 0 m 1
 214 1390 l 1
 717 1390 l 2
 1047 1390 1234 1323 1234 1040 c 0
 1234 872 1185 755 989 700 c 1
 989 695 1046 585 1078 517 c 1
 1298 0 l 1
 1112 0 l 1
 927 464 l 1
 891 544 858 618 829 664 c 1
 802 662 700 659 668 659 c 0
 651 659 393 661 393 661 c 1
 393 0 l 1
 214 0 l 1
752 799 m 2
 997 799 1057 878 1057 1038 c 0
 1057 1180 987 1252 744 1252 c 2
 393 1252 l 1
 393 799 l 1
 752 799 l 2
638 -617 m 1
 724 -163 l 1
 874 -163 l 1
 744 -617 l 1
 638 -617 l 1
EndSplineSet
EndChar

StartChar: Rho
Encoding: 463 929 117
Width: 1120
VWidth: 0
Flags: HW
PickledData: "(dp1
S'com.typemytype.robofont.layerData'
p2
(dp3
S'b'
(dp4
S'name'
p5
S'Rho'
p6
sS'lib'
p7
(dp8
sS'unicodes'
p9
(tsS'width'
p10
I1120
sS'contours'
p11
(tsS'components'
p12
(tsS'anchors'
p13
(tsss."
LayerCount: 2
Fore
SplineSet
533 700 m 0
 753 700 835 796 835 976 c 0
 835 1138 710 1201 542 1201 c 2
 311 1201 l 1
 311 710 l 1
 311 710 471 700 533 700 c 0
136 0 m 1
 136 1346 l 1
 546 1346 l 2
 804 1346 1010 1224 1010 979 c 0
 1010 726 862 569 525 569 c 0
 469 569 380 575 311 581 c 1
 311 0 l 1
 136 0 l 1
EndSplineSet
EndChar

StartChar: S
Encoding: 52 83 118
Width: 1089
VWidth: 0
Flags: HW
PickledData: "(dp1
S'com.typemytype.robofont.layerData'
p2
(dp3
S'b'
(dp4
S'name'
p5
S'S'
sS'lib'
p6
(dp7
sS'unicodes'
p8
(tsS'width'
p9
I1089
sS'contours'
p10
(tsS'components'
p11
(tsS'anchors'
p12
(tsss."
LayerCount: 2
Fore
SplineSet
554 -20 m 0
 334 -20 189 57 112 108 c 1
 165 240 l 1
 274 174 386 118 548 118 c 0
 724 118 835 204 835 369 c 0
 835 492 781 551 604 620 c 2
 405 698 l 2
 221 770 114 874 114 1054 c 0
 114 1319 303 1413 554 1413 c 0
 710 1413 851 1358 937 1300 c 1
 880 1173 l 1
 818 1212 703 1275 565 1275 c 0
 397 1275 273 1215 273 1062 c 0
 273 945 329 906 468 849 c 2
 660 771 l 2
 865 688 988 612 988 376 c 0
 988 105 814 -20 554 -20 c 0
EndSplineSet
EndChar

StartChar: Sacute
Encoding: 281 346 119
Width: 1243
VWidth: 0
Flags: HW
PickledData: "(dp1
S'com.typemytype.robofont.layerData'
p2
(dp3
S'b'
(dp4
S'name'
p5
S'Sacute'
p6
sS'lib'
p7
(dp8
sS'unicodes'
p9
(tsS'width'
p10
I1243
sS'contours'
p11
(tsS'components'
p12
(tsS'anchors'
p13
(tsss."
LayerCount: 2
Fore
SplineSet
638 -18 m 0
 412 -18 251 59 172 110 c 1
 227 238 l 1
 339 172 472 120 638 120 c 0
 818 120 938 204 938 369 c 0
 938 492 863 565 695 624 c 2
 466 704 l 1
 290 760 174 871 174 1051 c 0
 174 1316 392 1413 649 1413 c 0
 808 1413 950 1356 1038 1298 c 1
 983 1173 l 1
 919 1212 796 1275 655 1275 c 0
 483 1275 333 1215 333 1062 c 0
 333 956 400 886 523 848 c 1
 740 772 l 1
 937 711 1093 612 1093 376 c 0
 1093 105 899 -18 638 -18 c 0
580 1576 m 1
 750 1929 l 1
 980 1929 l 1
 684 1576 l 1
 580 1576 l 1
EndSplineSet
EndChar

StartChar: Scaron
Encoding: 287 352 120
Width: 1243
VWidth: 0
Flags: HW
PickledData: "(dp1
S'com.typemytype.robofont.layerData'
p2
(dp3
S'b'
(dp4
S'name'
p5
S'Scaron'
p6
sS'lib'
p7
(dp8
sS'unicodes'
p9
(tsS'width'
p10
I1243
sS'contours'
p11
(tsS'components'
p12
(tsS'anchors'
p13
(tsss."
LayerCount: 2
Fore
SplineSet
638 -18 m 0
 412 -18 251 59 172 110 c 1
 227 238 l 1
 339 172 472 120 638 120 c 0
 818 120 938 204 938 369 c 0
 938 492 863 565 695 624 c 2
 466 704 l 1
 290 760 174 871 174 1051 c 0
 174 1316 392 1413 649 1413 c 0
 808 1413 950 1356 1038 1298 c 1
 983 1173 l 1
 919 1212 796 1275 655 1275 c 0
 483 1275 333 1215 333 1062 c 0
 333 956 400 886 523 848 c 1
 740 772 l 1
 937 711 1093 612 1093 376 c 0
 1093 105 899 -18 638 -18 c 0
536 1576 m 1
 366 1929 l 1
 484 1929 l 1
 632 1646 l 1
 778 1929 l 1
 900 1929 l 1
 730 1576 l 1
 536 1576 l 1
EndSplineSet
EndChar

StartChar: Scedilla
Encoding: 285 350 121
Width: 1243
VWidth: 0
Flags: HW
PickledData: "(dp1
S'com.typemytype.robofont.layerData'
p2
(dp3
S'b'
(dp4
S'name'
p5
S'Scedilla'
p6
sS'lib'
p7
(dp8
sS'unicodes'
p9
(tsS'width'
p10
I1243
sS'contours'
p11
(tsS'components'
p12
(tsS'anchors'
p13
(tsss."
LayerCount: 2
Fore
SplineSet
670 -17 m 1
 915 -7 1093 116 1093 376 c 0
 1093 612 937 711 740 772 c 1
 523 848 l 1
 400 886 333 956 333 1062 c 0
 333 1215 483 1275 655 1275 c 0
 796 1275 919 1212 983 1173 c 1
 1038 1298 l 1
 950 1356 808 1413 649 1413 c 0
 392 1413 174 1316 174 1051 c 0
 174 871 290 760 466 704 c 1
 695 624 l 2
 863 565 938 492 938 369 c 0
 938 204 818 120 638 120 c 0
 472 120 339 172 227 238 c 1
 172 110 l 1
 245 63 389 -7 590 -17 c 1
 594 -5 l 1
 672 -5 l 1
 670 -17 l 1
670 -17 m 1
 632 -393 l 1
 492 -393 l 1
 590 -17 l 1
 606 -18 622 -18 638 -18 c 0
 649 -18 659 -17 670 -17 c 1
EndSplineSet
EndChar

StartChar: Scircumflex
Encoding: 283 348 122
Width: 1243
VWidth: 0
Flags: HW
PickledData: "(dp1
S'com.typemytype.robofont.layerData'
p2
(dp3
S'b'
(dp4
S'name'
p5
S'Scircumflex'
p6
sS'lib'
p7
(dp8
sS'unicodes'
p9
(tsS'width'
p10
I1243
sS'contours'
p11
(tsS'components'
p12
(tsS'anchors'
p13
(tsss."
LayerCount: 2
Fore
SplineSet
638 -18 m 0
 412 -18 251 59 172 110 c 1
 227 238 l 1
 339 172 472 120 638 120 c 0
 818 120 938 204 938 369 c 0
 938 492 863 565 695 624 c 2
 466 704 l 1
 290 760 174 871 174 1051 c 0
 174 1316 392 1413 649 1413 c 0
 808 1413 950 1356 1038 1298 c 1
 983 1173 l 1
 919 1212 796 1275 655 1275 c 0
 483 1275 333 1215 333 1062 c 0
 333 956 400 886 523 848 c 1
 740 772 l 1
 937 711 1093 612 1093 376 c 0
 1093 105 899 -18 638 -18 c 0
366 1576 m 1
 536 1929 l 1
 730 1929 l 1
 900 1576 l 1
 778 1576 l 1
 632 1824 l 1
 484 1576 l 1
 366 1576 l 1
EndSplineSet
EndChar

StartChar: Scommaaccent
Encoding: 401 536 123
Width: 1243
VWidth: 0
Flags: HW
PickledData: "(dp1
S'com.typemytype.robofont.layerData'
p2
(dp3
S'b'
(dp4
S'name'
p5
S'Scommaaccent'
p6
sS'lib'
p7
(dp8
sS'unicodes'
p9
(tsS'width'
p10
I1243
sS'contours'
p11
(tsS'components'
p12
(tsS'anchors'
p13
(tsss."
LayerCount: 2
Fore
SplineSet
638 -18 m 0
 412 -18 251 59 172 110 c 1
 227 238 l 1
 339 172 472 120 638 120 c 0
 818 120 938 204 938 369 c 0
 938 492 863 565 695 624 c 2
 466 704 l 1
 290 760 174 871 174 1051 c 0
 174 1316 392 1413 649 1413 c 0
 808 1413 950 1356 1038 1298 c 1
 983 1173 l 1
 919 1212 796 1275 655 1275 c 0
 483 1275 333 1215 333 1062 c 0
 333 956 400 886 523 848 c 1
 740 772 l 1
 937 711 1093 612 1093 376 c 0
 1093 105 899 -18 638 -18 c 0
514 -635 m 1
 600 -181 l 1
 751 -181 l 1
 621 -635 l 1
 514 -635 l 1
EndSplineSet
EndChar

StartChar: Sigma
Encoding: 464 931 124
Width: 1074
VWidth: 0
Flags: HW
PickledData: "(dp1
S'com.typemytype.robofont.layerData'
p2
(dp3
S'b'
(dp4
S'name'
p5
S'Sigma'
p6
sS'lib'
p7
(dp8
sS'unicodes'
p9
(tsS'width'
p10
I1074
sS'contours'
p11
(tsS'components'
p12
(tsS'anchors'
p13
(tsss."
LayerCount: 2
Fore
SplineSet
311 1207 m 1
 311 766 l 1
 894 766 l 1
 894 629 l 1
 311 629 l 1
 311 139 l 1
 952 139 l 1
 945 0 l 1
 136 0 l 1
 136 1346 l 1
 952 1346 l 1
 945 1207 l 1
 311 1207 l 1
EndSplineSet
EndChar

StartChar: T
Encoding: 53 84 125
Width: 1158
VWidth: 0
Flags: HW
PickledData: "(dp1
S'com.typemytype.robofont.layerData'
p2
(dp3
S'b'
(dp4
S'name'
p5
S'T'
sS'lib'
p6
(dp7
sS'unicodes'
p8
(tsS'width'
p9
I1158
sS'contours'
p10
(tsS'components'
p11
(tsS'anchors'
p12
(tsss."
LayerCount: 2
Fore
SplineSet
1084 1390 m 1
 1084 1251 l 1
 668 1251 l 1
 668 0 l 1
 489 0 l 1
 489 1251 l 1
 74 1251 l 1
 74 1390 l 1
 1084 1390 l 1
EndSplineSet
EndChar

StartChar: Tau
Encoding: 465 932 126
Width: 1147
VWidth: 0
Flags: HW
PickledData: "(dp1
S'com.typemytype.robofont.layerData'
p2
(dp3
S'b'
(dp4
S'name'
p5
S'Tau'
p6
sS'lib'
p7
(dp8
sS'unicodes'
p9
(tsS'width'
p10
I1147
sS'contours'
p11
(tsS'components'
p12
(tsS'anchors'
p13
(tsss."
LayerCount: 2
Fore
SplineSet
1067 1346 m 1
 1067 1207 l 1
 660 1207 l 1
 660 0 l 1
 485 0 l 1
 485 1207 l 1
 77 1207 l 1
 77 1346 l 1
 1067 1346 l 1
EndSplineSet
EndChar

StartChar: Tbar
Encoding: 293 358 127
Width: 1131
VWidth: 0
Flags: HW
PickledData: "(dp1
S'com.typemytype.robofont.layerData'
p2
(dp3
S'b'
(dp4
S'name'
p5
S'Tbar'
p6
sS'lib'
p7
(dp8
sS'unicodes'
p9
(tsS'width'
p10
I1131
sS'contours'
p11
(tsS'components'
p12
(tsS'anchors'
p13
(tsss."
LayerCount: 2
Fore
SplineSet
484 595 m 1
 484 1220 l 1
 77 1220 l 1
 77 1361 l 1
 1053 1361 l 1
 1053 1220 l 1
 645 1220 l 1
 645 595 l 1
 793 595 l 1
 793 483 l 1
 645 483 l 1
 645 0 l 1
 484 0 l 1
 484 483 l 1
 330 483 l 1
 330 595 l 1
 484 595 l 1
EndSplineSet
EndChar

StartChar: Tcaron
Encoding: 291 356 128
Width: 1160
VWidth: 0
Flags: HW
PickledData: "(dp1
S'com.typemytype.robofont.layerData'
p2
(dp3
S'b'
(dp4
S'name'
p5
S'Tcaron'
p6
sS'lib'
p7
(dp8
sS'unicodes'
p9
(tsS'width'
p10
I1160
sS'contours'
p11
(tsS'components'
p12
(tsS'anchors'
p13
(tsss."
LayerCount: 2
Fore
SplineSet
1085 1390 m 1
 1085 1251 l 1
 669 1251 l 1
 669 0 l 1
 490 0 l 1
 490 1251 l 1
 75 1251 l 1
 75 1390 l 1
 1085 1390 l 1
483 1576 m 1
 313 1929 l 1
 432 1929 l 1
 579 1646 l 1
 726 1929 l 1
 847 1929 l 1
 677 1576 l 1
 483 1576 l 1
EndSplineSet
EndChar

StartChar: Tcommaaccent
Encoding: 289 354 129
Width: 1160
VWidth: 0
Flags: HW
PickledData: "(dp1
S'com.typemytype.robofont.layerData'
p2
(dp3
S'b'
(dp4
S'name'
p5
S'Tcommaaccent'
p6
sS'lib'
p7
(dp8
sS'unicodes'
p9
(tsS'width'
p10
I1160
sS'contours'
p11
(tsS'components'
p12
(tsS'anchors'
p13
(tsss."
LayerCount: 2
Fore
SplineSet
1085 1390 m 1
 1085 1251 l 1
 669 1251 l 1
 669 0 l 1
 618 -0 l 1
 579 -375 l 1
 439 -375 l 1
 538 0 l 1
 490 0 l 1
 490 1251 l 1
 75 1251 l 1
 75 1390 l 1
 1085 1390 l 1
EndSplineSet
EndChar

StartChar: Theta
Encoding: 454 920 130
Width: 451
VWidth: 0
Flags: HW
PickledData: "(dp1
S'com.typemytype.robofont.layerData'
p2
(dp3
S'b'
(dp4
S'name'
p5
S'Theta'
p6
sS'lib'
p7
(dp8
sS'unicodes'
p9
(tsS'width'
p10
I451
sS'contours'
p11
(tsS'components'
p12
(tsS'anchors'
p13
(tsss."
LayerCount: 2
Fore
SplineSet
223 484 m 0
 143 484 102 544 102 604 c 0
 102 664 143 724 223 724 c 0
 304 724 344 664 344 604 c 0
 344 544 304 484 223 484 c 0
EndSplineSet
EndChar

StartChar: Thorn
Encoding: 157 222 131
Width: 1213
VWidth: 0
Flags: HW
PickledData: "(dp1
S'com.typemytype.robofont.layerData'
p2
(dp3
S'b'
(dp4
S'name'
p5
S'Thorn'
p6
sS'lib'
p7
(dp8
sS'unicodes'
p9
(tsS'width'
p10
I1213
sS'contours'
p11
(tsS'components'
p12
(tsS'anchors'
p13
(tsss."
LayerCount: 2
Fore
SplineSet
298 972 m 1
 298 449 l 1
 647 449 l 2
 873 449 949 560 949 712 c 0
 949 891 859 972 609 972 c 2
 298 972 l 1
298 1361 m 1
 298 1107 l 1
 592 1107 l 2
 920 1107 1103 1008 1103 720 c 0
 1103 478 973 311 657 311 c 0
 650 311 298 318 298 318 c 1
 298 0 l 1
 136 0 l 1
 136 1361 l 1
 298 1361 l 1
EndSplineSet
EndChar

StartChar: U
Encoding: 54 85 132
Width: 1409
VWidth: 0
Flags: HW
PickledData: "(dp1
S'com.typemytype.robofont.layerData'
p2
(dp3
S'b'
(dp4
S'name'
p5
S'U'
sS'lib'
p6
(dp7
sS'unicodes'
p8
(tsS'width'
p9
I1409
sS'contours'
p10
(tsS'components'
p11
(tsS'anchors'
p12
(tsss."
LayerCount: 2
Fore
SplineSet
704 -20 m 0
 339 -20 171 196 171 495 c 2
 171 1390 l 1
 348 1390 l 1
 348 492 l 2
 348 248 458 118 704 118 c 0
 944 118 1061 248 1061 492 c 2
 1061 1390 l 1
 1238 1390 l 1
 1238 493 l 2
 1238 195 1069 -20 704 -20 c 0
EndSplineSet
EndChar

StartChar: Uacute
Encoding: 153 218 133
Width: 1401
VWidth: 0
Flags: HW
PickledData: "(dp1
S'com.typemytype.robofont.layerData'
p2
(dp3
S'b'
(dp4
S'name'
p5
S'Uacute'
p6
sS'lib'
p7
(dp8
sS'unicodes'
p9
(tsS'width'
p10
I1401
sS'contours'
p11
(tsS'components'
p12
(tsS'anchors'
p13
(tsss."
LayerCount: 2
Fore
SplineSet
700 -18 m 0
 335 -18 169 196 169 495 c 2
 169 1390 l 1
 346 1390 l 1
 346 492 l 2
 346 248 454 120 700 120 c 0
 940 120 1055 248 1055 492 c 2
 1055 1390 l 1
 1232 1390 l 1
 1232 493 l 2
 1232 195 1065 -18 700 -18 c 0
648 1576 m 1
 818 1929 l 1
 1048 1929 l 1
 752 1576 l 1
 648 1576 l 1
EndSplineSet
EndChar

StartChar: Ubreve
Encoding: 299 364 134
Width: 1401
VWidth: 0
Flags: HW
PickledData: "(dp1
S'com.typemytype.robofont.layerData'
p2
(dp3
S'b'
(dp4
S'name'
p5
S'Ubreve'
p6
sS'lib'
p7
(dp8
sS'unicodes'
p9
(tsS'width'
p10
I1401
sS'contours'
p11
(tsS'components'
p12
(tsS'anchors'
p13
(tsss."
LayerCount: 2
Fore
SplineSet
700 -18 m 0
 335 -18 169 196 169 495 c 2
 169 1390 l 1
 346 1390 l 1
 346 492 l 2
 346 248 454 120 700 120 c 0
 940 120 1055 248 1055 492 c 2
 1055 1390 l 1
 1232 1390 l 1
 1232 493 l 2
 1232 195 1065 -18 700 -18 c 0
929 1798 m 1
 929 1641 812 1576 699 1576 c 0
 587 1576 472 1641 472 1798 c 1
 578 1798 l 1
 578 1711 633 1670 699 1670 c 0
 765 1670 823 1711 823 1798 c 1
 929 1798 l 1
EndSplineSet
EndChar

StartChar: Ucircumflex
Encoding: 154 219 135
Width: 1401
VWidth: 0
Flags: HW
PickledData: "(dp1
S'com.typemytype.robofont.layerData'
p2
(dp3
S'b'
(dp4
S'name'
p5
S'Ucircumflex'
p6
sS'lib'
p7
(dp8
sS'unicodes'
p9
(tsS'width'
p10
I1401
sS'contours'
p11
(tsS'components'
p12
(tsS'anchors'
p13
(tsss."
LayerCount: 2
Fore
SplineSet
700 -18 m 0
 335 -18 169 196 169 495 c 2
 169 1390 l 1
 346 1390 l 1
 346 492 l 2
 346 248 454 120 700 120 c 0
 940 120 1055 248 1055 492 c 2
 1055 1390 l 1
 1232 1390 l 1
 1232 493 l 2
 1232 195 1065 -18 700 -18 c 0
434 1576 m 1
 604 1929 l 1
 798 1929 l 1
 968 1576 l 1
 846 1576 l 1
 700 1824 l 1
 552 1576 l 1
 434 1576 l 1
EndSplineSet
EndChar

StartChar: Udieresis
Encoding: 155 220 136
Width: 1401
VWidth: 0
Flags: HW
PickledData: "(dp1
S'com.typemytype.robofont.layerData'
p2
(dp3
S'b'
(dp4
S'name'
p5
S'Udieresis'
p6
sS'lib'
p7
(dp8
sS'unicodes'
p9
(tsS'width'
p10
I1401
sS'contours'
p11
(tsS'components'
p12
(tsS'anchors'
p13
(tsss."
LayerCount: 2
Fore
SplineSet
700 -18 m 0
 335 -18 169 196 169 495 c 2
 169 1390 l 1
 346 1390 l 1
 346 492 l 2
 346 248 454 120 700 120 c 0
 940 120 1055 248 1055 492 c 2
 1055 1390 l 1
 1232 1390 l 1
 1232 493 l 2
 1232 195 1065 -18 700 -18 c 0
808 1576 m 1
 808 1769 l 1
 948 1769 l 1
 948 1576 l 1
 808 1576 l 1
452 1576 m 1
 452 1769 l 1
 594 1769 l 1
 594 1576 l 1
 452 1576 l 1
EndSplineSet
EndChar

StartChar: Ugrave
Encoding: 152 217 137
Width: 1401
VWidth: 0
Flags: HW
PickledData: "(dp1
S'com.typemytype.robofont.layerData'
p2
(dp3
S'b'
(dp4
S'name'
p5
S'Ugrave'
p6
sS'lib'
p7
(dp8
sS'unicodes'
p9
(tsS'width'
p10
I1401
sS'contours'
p11
(tsS'components'
p12
(tsS'anchors'
p13
(tsss."
LayerCount: 2
Fore
SplineSet
700 -18 m 0
 335 -18 169 196 169 495 c 2
 169 1390 l 1
 346 1390 l 1
 346 492 l 2
 346 248 454 120 700 120 c 0
 940 120 1055 248 1055 492 c 2
 1055 1390 l 1
 1232 1390 l 1
 1232 493 l 2
 1232 195 1065 -18 700 -18 c 0
650 1576 m 1
 356 1929 l 1
 584 1929 l 1
 752 1576 l 1
 650 1576 l 1
EndSplineSet
EndChar

StartChar: Uhorn
Encoding: 322 431 138
Width: 1401
VWidth: 0
Flags: HW
PickledData: "(dp1
S'com.typemytype.robofont.layerData'
p2
(dp3
S'b'
(dp4
S'name'
p5
S'Uhorn'
p6
sS'lib'
p7
(dp8
sS'unicodes'
p9
(tsS'width'
p10
I1401
sS'contours'
p11
(tsS'components'
p12
(tsS'anchors'
p13
(tsss."
LayerCount: 2
Fore
SplineSet
700 -18 m 0
 335 -18 169 196 169 495 c 2
 169 1390 l 1
 346 1390 l 1
 346 492 l 2
 346 248 454 120 700 120 c 0
 940 120 1055 248 1055 492 c 2
 1055 1390 l 1
 1232 1390 l 1
 1232 493 l 2
 1232 195 1065 -18 700 -18 c 0
1398 1099 m 0
 1372 1099 1342 1101 1314 1104 c 1
 1314 1190 l 1
 1328 1190 1343 1188 1358 1188 c 0
 1411 1188 1428 1229 1428 1279 c 0
 1428 1324 1414 1376 1400 1413 c 1
 1506 1413 l 1
 1525 1368 1536 1321 1536 1276 c 0
 1536 1180 1490 1099 1398 1099 c 0
EndSplineSet
EndChar

StartChar: Uhungarumlaut
Encoding: 303 368 139
Width: 1401
VWidth: 0
Flags: HW
PickledData: "(dp1
S'com.typemytype.robofont.layerData'
p2
(dp3
S'b'
(dp4
S'name'
p5
S'Uhungarumlaut'
p6
sS'lib'
p7
(dp8
sS'unicodes'
p9
(tsS'width'
p10
I1401
sS'contours'
p11
(tsS'components'
p12
(tsS'anchors'
p13
(tsss."
LayerCount: 2
Fore
SplineSet
700 -18 m 0
 335 -18 169 196 169 495 c 2
 169 1390 l 1
 346 1390 l 1
 346 492 l 2
 346 248 454 120 700 120 c 0
 940 120 1055 248 1055 492 c 2
 1055 1390 l 1
 1232 1390 l 1
 1232 493 l 2
 1232 195 1065 -18 700 -18 c 0
761 1576 m 1
 944 1881 l 1
 1081 1881 l 1
 853 1576 l 1
 761 1576 l 1
548 1576 m 1
 729 1881 l 1
 868 1881 l 1
 639 1576 l 1
 548 1576 l 1
EndSplineSet
EndChar

StartChar: Umacron
Encoding: 297 362 140
Width: 1401
VWidth: 0
Flags: HW
PickledData: "(dp1
S'com.typemytype.robofont.layerData'
p2
(dp3
S'b'
(dp4
S'name'
p5
S'Umacron'
p6
sS'lib'
p7
(dp8
sS'unicodes'
p9
(tsS'width'
p10
I1401
sS'contours'
p11
(tsS'components'
p12
(tsS'anchors'
p13
(tsss."
LayerCount: 2
Fore
SplineSet
700 -18 m 0
 335 -18 169 196 169 495 c 2
 169 1390 l 1
 346 1390 l 1
 346 492 l 2
 346 248 454 120 700 120 c 0
 940 120 1055 248 1055 492 c 2
 1055 1390 l 1
 1232 1390 l 1
 1232 493 l 2
 1232 195 1065 -18 700 -18 c 0
396 1576 m 1
 396 1703 l 1
 1004 1703 l 1
 1004 1576 l 1
 396 1576 l 1
EndSplineSet
EndChar

StartChar: Uogonek
Encoding: 305 370 141
Width: 1401
VWidth: 0
Flags: HW
PickledData: "(dp1
S'com.typemytype.robofont.layerData'
p2
(dp3
S'b'
(dp4
S'name'
p5
S'Uogonek'
p6
sS'lib'
p7
(dp8
sS'unicodes'
p9
(tsS'width'
p10
I1401
sS'contours'
p11
(tsS'components'
p12
(tsS'anchors'
p13
(tsss."
LayerCount: 2
Fore
SplineSet
650 -391 m 0
 552 -391 474 -335 474 -231 c 0
 474 -138 551 -66 632 -15 c 1
 654 -17 676 -18 700 -18 c 0
 712 -18 724 -17 736 -17 c 1
 649 -83 588 -147 588 -205 c 0
 588 -253 631 -286 668 -286 c 0
 717 -286 748 -275 794 -256 c 1
 794 -362 l 1
 759 -377 699 -391 650 -391 c 0
736 -17 m 1
 1076 -3 1232 205 1232 493 c 2
 1232 1390 l 1
 1055 1390 l 1
 1055 492 l 2
 1055 248 940 120 700 120 c 0
 454 120 346 248 346 492 c 2
 346 1390 l 1
 169 1390 l 1
 169 495 l 2
 169 215 315 10 632 -15 c 1
 638 -11 642 -8 648 -5 c 1
 752 -5 l 1
 746 -9 741 -13 736 -17 c 1
EndSplineSet
EndChar

StartChar: Upsilon
Encoding: 466 933 142
Width: 1248
VWidth: 0
Flags: HW
PickledData: "(dp1
S'com.typemytype.robofont.layerData'
p2
(dp3
S'b'
(dp4
S'name'
p5
S'Upsilon'
p6
sS'lib'
p7
(dp8
sS'unicodes'
p9
(tsS'width'
p10
I1248
sS'contours'
p11
(tsS'components'
p12
(tsS'anchors'
p13
(tsss."
LayerCount: 2
Fore
SplineSet
623 683 m 1
 1002 1346 l 1
 1177 1346 l 1
 711 537 l 1
 711 0 l 1
 536 0 l 1
 536 533 l 1
 70 1346 l 1
 245 1346 l 1
 623 683 l 1
EndSplineSet
EndChar

StartChar: Upsilondieresis
Encoding: 472 939 143
Width: 1248
VWidth: 0
Flags: HW
PickledData: "(dp1
S'com.typemytype.robofont.layerData'
p2
(dp3
S'b'
(dp4
S'name'
p5
S'Upsilondieresis'
p6
sS'lib'
p7
(dp8
sS'unicodes'
p9
(tsS'width'
p10
I1248
sS'contours'
p11
(tsS'components'
p12
(tsS'anchors'
p13
(tsss."
LayerCount: 2
Fore
SplineSet
730 1576 m 1
 730 1769 l 1
 872 1769 l 1
 872 1576 l 1
 730 1576 l 1
376 1576 m 1
 376 1769 l 1
 516 1769 l 1
 516 1576 l 1
 376 1576 l 1
623 683 m 1
 1002 1346 l 1
 1177 1346 l 1
 711 537 l 1
 711 0 l 1
 536 0 l 1
 536 533 l 1
 70 1346 l 1
 245 1346 l 1
 623 683 l 1
EndSplineSet
EndChar

StartChar: Upsilontonos
Encoding: 444 910 144
Width: 451
VWidth: 0
Flags: HW
PickledData: "(dp1
S'com.typemytype.robofont.layerData'
p2
(dp3
S'b'
(dp4
S'name'
p5
S'Upsilontonos'
p6
sS'lib'
p7
(dp8
sS'unicodes'
p9
(tsS'width'
p10
I451
sS'contours'
p11
(tsS'components'
p12
(tsS'anchors'
p13
(tsss."
LayerCount: 2
Fore
SplineSet
223 484 m 0
 143 484 102 544 102 604 c 0
 102 664 143 724 223 724 c 0
 304 724 344 664 344 604 c 0
 344 544 304 484 223 484 c 0
EndSplineSet
EndChar

StartChar: Uring
Encoding: 301 366 145
Width: 1401
VWidth: 0
Flags: HW
PickledData: "(dp1
S'com.typemytype.robofont.layerData'
p2
(dp3
S'b'
(dp4
S'name'
p5
S'Uring'
p6
sS'lib'
p7
(dp8
sS'unicodes'
p9
(tsS'width'
p10
I1401
sS'contours'
p11
(tsS'components'
p12
(tsS'anchors'
p13
(tsss."
LayerCount: 2
Fore
SplineSet
700 -18 m 0
 335 -18 169 196 169 495 c 2
 169 1390 l 1
 346 1390 l 1
 346 492 l 2
 346 248 454 120 700 120 c 0
 940 120 1055 248 1055 492 c 2
 1055 1390 l 1
 1232 1390 l 1
 1232 493 l 2
 1232 195 1065 -18 700 -18 c 0
702 1576 m 0
 607 1576 524 1639 524 1744 c 0
 524 1852 608 1923 700 1923 c 0
 795 1923 878 1846 878 1744 c 0
 878 1639 792 1576 702 1576 c 0
700 1642 m 0
 746 1642 788 1688 788 1744 c 0
 788 1800 750 1849 700 1849 c 0
 654 1849 610 1800 610 1744 c 0
 610 1683 644 1642 700 1642 c 0
EndSplineSet
EndChar

StartChar: Utilde
Encoding: 295 360 146
Width: 1401
VWidth: 0
Flags: HW
PickledData: "(dp1
S'com.typemytype.robofont.layerData'
p2
(dp3
S'b'
(dp4
S'name'
p5
S'Utilde'
p6
sS'lib'
p7
(dp8
sS'unicodes'
p9
(tsS'width'
p10
I1401
sS'contours'
p11
(tsS'components'
p12
(tsS'anchors'
p13
(tsss."
LayerCount: 2
Fore
SplineSet
700 -18 m 0
 335 -18 169 196 169 495 c 2
 169 1390 l 1
 346 1390 l 1
 346 492 l 2
 346 248 454 120 700 120 c 0
 940 120 1055 248 1055 492 c 2
 1055 1390 l 1
 1232 1390 l 1
 1232 493 l 2
 1232 195 1065 -18 700 -18 c 0
417 1576 m 1
 417 1712 476 1775 573 1775 c 0
 686 1775 842 1690 842 1690 c 1
 878 1693 881 1737 884 1775 c 1
 984 1775 l 1
 984 1650 944 1576 848 1576 c 0
 766 1576 564 1664 564 1664 c 1
 534 1663 517 1626 514 1576 c 1
 417 1576 l 1
EndSplineSet
EndChar

StartChar: V
Encoding: 55 86 147
Width: 1344
VWidth: 0
Flags: HW
PickledData: "(dp1
S'com.typemytype.robofont.layerData'
p2
(dp3
S'b'
(dp4
S'name'
p5
S'V'
sS'lib'
p6
(dp7
sS'unicodes'
p8
(tsS'width'
p9
I1344
sS'contours'
p10
(tsS'components'
p11
(tsS'anchors'
p12
(tsss."
LayerCount: 2
Fore
SplineSet
756 0 m 1
 588 0 l 1
 78 1390 l 1
 264 1390 l 1
 569 492 l 1
 672 197 l 1
 776 495 l 1
 1082 1390 l 1
 1266 1390 l 1
 756 0 l 1
EndSplineSet
EndChar

StartChar: W
Encoding: 56 87 148
Width: 1902
VWidth: 0
Flags: HW
PickledData: "(dp1
S'com.typemytype.robofont.layerData'
p2
(dp3
S'b'
(dp4
S'name'
p5
S'W'
sS'lib'
p6
(dp7
sS'unicodes'
p8
(tsS'width'
p9
I1902
sS'contours'
p10
(tsS'components'
p11
(tsS'anchors'
p12
(tsss."
LayerCount: 2
Fore
SplineSet
861 1365 m 1
 1043 1365 l 1
 1373 221 l 1
 1669 1390 l 1
 1846 1390 l 1
 1471 0 l 1
 1286 0 l 1
 959 1160 l 1
 610 0 l 1
 428 0 l 1
 56 1390 l 1
 234 1390 l 1
 523 222 l 1
 861 1365 l 1
EndSplineSet
EndChar

StartChar: Wacute
Encoding: 620 7810 149
Width: 2002
VWidth: 0
Flags: HW
PickledData: "(dp1
S'com.typemytype.robofont.layerData'
p2
(dp3
S'b'
(dp4
S'name'
p5
S'Wacute'
p6
sS'lib'
p7
(dp8
sS'unicodes'
p9
(tsS'width'
p10
I2002
sS'contours'
p11
(tsS'components'
p12
(tsS'anchors'
p13
(tsss."
LayerCount: 2
Fore
SplineSet
949 1576 m 1
 1119 1929 l 1
 1349 1929 l 1
 1053 1576 l 1
 949 1576 l 1
911 1365 m 1
 1093 1365 l 1
 1423 221 l 1
 1759 1390 l 1
 1936 1390 l 1
 1521 0 l 1
 1336 0 l 1
 1009 1160 l 1
 660 0 l 1
 478 0 l 1
 66 1390 l 1
 244 1390 l 1
 573 222 l 1
 911 1365 l 1
EndSplineSet
EndChar

StartChar: Wcircumflex
Encoding: 307 372 150
Width: 2044
VWidth: 0
Flags: HW
PickledData: "(dp1
S'com.typemytype.robofont.layerData'
p2
(dp3
S'b'
(dp4
S'name'
p5
S'Wcircumflex'
p6
sS'lib'
p7
(dp8
sS'unicodes'
p9
(tsS'width'
p10
I2044
sS'contours'
p11
(tsS'components'
p12
(tsS'anchors'
p13
(tsss."
LayerCount: 2
Fore
SplineSet
932 1365 m 1
 1114 1365 l 1
 1444 221 l 1
 1780 1390 l 1
 1957 1390 l 1
 1542 0 l 1
 1357 0 l 1
 1030 1160 l 1
 681 0 l 1
 499 0 l 1
 87 1390 l 1
 265 1390 l 1
 594 222 l 1
 932 1365 l 1
755 1576 m 1
 925 1929 l 1
 1119 1929 l 1
 1289 1576 l 1
 1168 1576 l 1
 1021 1824 l 1
 874 1576 l 1
 755 1576 l 1
EndSplineSet
EndChar

StartChar: Wdieresis
Encoding: 622 7812 151
Width: 2002
VWidth: 0
Flags: HW
PickledData: "(dp1
S'com.typemytype.robofont.layerData'
p2
(dp3
S'b'
(dp4
S'name'
p5
S'Wdieresis'
p6
sS'lib'
p7
(dp8
sS'unicodes'
p9
(tsS'width'
p10
I2002
sS'contours'
p11
(tsS'components'
p12
(tsS'anchors'
p13
(tsss."
LayerCount: 2
Fore
SplineSet
1108 1576 m 1
 1108 1769 l 1
 1249 1769 l 1
 1249 1576 l 1
 1108 1576 l 1
753 1576 m 1
 753 1769 l 1
 894 1769 l 1
 894 1576 l 1
 753 1576 l 1
911 1365 m 1
 1093 1365 l 1
 1423 221 l 1
 1759 1390 l 1
 1936 1390 l 1
 1521 0 l 1
 1336 0 l 1
 1009 1160 l 1
 660 0 l 1
 478 0 l 1
 66 1390 l 1
 244 1390 l 1
 573 222 l 1
 911 1365 l 1
EndSplineSet
EndChar

StartChar: Wgrave
Encoding: 618 7808 152
Width: 2002
VWidth: 0
Flags: HW
PickledData: "(dp1
S'com.typemytype.robofont.layerData'
p2
(dp3
S'b'
(dp4
S'name'
p5
S'Wgrave'
p6
sS'lib'
p7
(dp8
sS'unicodes'
p9
(tsS'width'
p10
I2002
sS'contours'
p11
(tsS'components'
p12
(tsS'anchors'
p13
(tsss."
LayerCount: 2
Fore
SplineSet
950 1576 m 1
 656 1929 l 1
 884 1929 l 1
 1052 1576 l 1
 950 1576 l 1
911 1365 m 1
 1093 1365 l 1
 1423 221 l 1
 1759 1390 l 1
 1936 1390 l 1
 1521 0 l 1
 1336 0 l 1
 1009 1160 l 1
 660 0 l 1
 478 0 l 1
 66 1390 l 1
 244 1390 l 1
 573 222 l 1
 911 1365 l 1
EndSplineSet
EndChar

StartChar: X
Encoding: 57 88 153
Width: 1293
VWidth: 0
Flags: HW
PickledData: "(dp1
S'com.typemytype.robofont.layerData'
p2
(dp3
S'b'
(dp4
S'name'
p5
S'X'
sS'lib'
p6
(dp7
sS'unicodes'
p8
(tsS'width'
p9
I1293
sS'contours'
p10
(tsS'components'
p11
(tsS'anchors'
p12
(tsss."
LayerCount: 2
Fore
SplineSet
746 709 m 1
 1213 0 l 1
 1027 0 l 1
 646 576 l 1
 266 0 l 1
 80 0 l 1
 543 709 l 1
 80 1390 l 1
 266 1390 l 1
 646 831 l 1
 1027 1390 l 1
 1213 1390 l 1
 746 709 l 1
EndSplineSet
EndChar

StartChar: Xi
Encoding: 460 926 154
Width: 451
VWidth: 0
Flags: HW
PickledData: "(dp1
S'com.typemytype.robofont.layerData'
p2
(dp3
S'b'
(dp4
S'name'
p5
S'Xi'
p6
sS'lib'
p7
(dp8
sS'unicodes'
p9
(tsS'width'
p10
I451
sS'contours'
p11
(tsS'components'
p12
(tsS'anchors'
p13
(tsss."
LayerCount: 2
Fore
SplineSet
223 484 m 0
 143 484 102 544 102 604 c 0
 102 664 143 724 223 724 c 0
 304 724 344 664 344 604 c 0
 344 544 304 484 223 484 c 0
EndSplineSet
EndChar

StartChar: Y
Encoding: 58 89 155
Width: 1225
VWidth: 0
Flags: HW
PickledData: "(dp1
S'com.typemytype.robofont.layerData'
p2
(dp3
S'b'
(dp4
S'name'
p5
S'Y'
sS'lib'
p6
(dp7
sS'unicodes'
p8
(tsS'width'
p9
F1225
sS'contours'
p10
(tsS'components'
p11
(tsS'anchors'
p12
(tsss."
LayerCount: 2
Fore
SplineSet
618 723 m 1
 1013 1390 l 1
 1191 1390 l 1
 708 577 l 1
 708 0 l 1
 530 0 l 1
 530 573 l 1
 34 1390 l 1
 212 1390 l 1
 618 723 l 1
EndSplineSet
EndChar

StartChar: Yacute
Encoding: 156 221 156
Width: 1309
VWidth: 0
Flags: HW
PickledData: "(dp1
S'com.typemytype.robofont.layerData'
p2
(dp3
S'b'
(dp4
S'name'
p5
S'Yacute'
p6
sS'lib'
p7
(dp8
sS'unicodes'
p9
(tsS'width'
p10
I1309
sS'contours'
p11
(tsS'components'
p12
(tsS'anchors'
p13
(tsss."
LayerCount: 2
Fore
SplineSet
668 723 m 1
 1055 1390 l 1
 1233 1390 l 1
 758 577 l 1
 758 0 l 1
 580 0 l 1
 580 573 l 1
 76 1390 l 1
 254 1390 l 1
 668 723 l 1
602 1576 m 1
 772 1929 l 1
 1002 1929 l 1
 706 1576 l 1
 602 1576 l 1
EndSplineSet
EndChar

StartChar: Ycircumflex
Encoding: 309 374 157
Width: 1309
VWidth: 0
Flags: HW
PickledData: "(dp1
S'com.typemytype.robofont.layerData'
p2
(dp3
S'b'
(dp4
S'name'
p5
S'Ycircumflex'
p6
sS'lib'
p7
(dp8
sS'unicodes'
p9
(tsS'width'
p10
I1309
sS'contours'
p11
(tsS'components'
p12
(tsS'anchors'
p13
(tsss."
LayerCount: 2
Fore
SplineSet
668 723 m 1
 1055 1390 l 1
 1233 1390 l 1
 758 577 l 1
 758 0 l 1
 580 0 l 1
 580 573 l 1
 76 1390 l 1
 254 1390 l 1
 668 723 l 1
388 1576 m 1
 558 1929 l 1
 752 1929 l 1
 922 1576 l 1
 800 1576 l 1
 654 1824 l 1
 506 1576 l 1
 388 1576 l 1
EndSplineSet
EndChar

StartChar: Ydieresis
Encoding: 311 376 158
Width: 1309
VWidth: 0
Flags: HW
PickledData: "(dp1
S'com.typemytype.robofont.layerData'
p2
(dp3
S'b'
(dp4
S'name'
p5
S'Ydieresis'
p6
sS'lib'
p7
(dp8
sS'unicodes'
p9
(tsS'width'
p10
I1309
sS'contours'
p11
(tsS'components'
p12
(tsS'anchors'
p13
(tsss."
LayerCount: 2
Fore
SplineSet
668 723 m 1
 1055 1390 l 1
 1233 1390 l 1
 758 577 l 1
 758 0 l 1
 580 0 l 1
 580 573 l 1
 76 1390 l 1
 254 1390 l 1
 668 723 l 1
762 1576 m 1
 762 1769 l 1
 902 1769 l 1
 902 1576 l 1
 762 1576 l 1
406 1576 m 1
 406 1769 l 1
 548 1769 l 1
 548 1576 l 1
 406 1576 l 1
EndSplineSet
EndChar

StartChar: Ygrave
Encoding: 626 7922 159
Width: 1181
VWidth: 0
Flags: HW
PickledData: "(dp1
S'com.typemytype.robofont.layerData'
p2
(dp3
S'b'
(dp4
S'name'
p5
S'Ygrave'
p6
sS'lib'
p7
(dp8
sS'unicodes'
p9
(tsS'width'
p10
I1181
sS'contours'
p11
(tsS'components'
p12
(tsS'anchors'
p13
(tsss."
LayerCount: 2
Fore
SplineSet
540 1576 m 1
 246 1929 l 1
 474 1929 l 1
 642 1576 l 1
 540 1576 l 1
604 723 m 1
 991 1390 l 1
 1169 1390 l 1
 694 577 l 1
 694 0 l 1
 516 0 l 1
 516 573 l 1
 12 1390 l 1
 190 1390 l 1
 604 723 l 1
EndSplineSet
EndChar

StartChar: Z
Encoding: 59 90 160
Width: 1173
VWidth: 0
Flags: HW
PickledData: "(dp1
S'com.typemytype.robofont.layerData'
p2
(dp3
S'b'
(dp4
S'name'
p5
S'Z'
sS'lib'
p6
(dp7
sS'unicodes'
p8
(tsS'width'
p9
I1173
sS'contours'
p10
(tsS'components'
p11
(tsS'anchors'
p12
(tsss."
LayerCount: 2
Fore
SplineSet
174 1390 m 1
 1061 1390 l 1
 1061 1272 l 1
 344 138 l 1
 1072 138 l 1
 1066 0 l 1
 147 0 l 1
 147 124 l 1
 852 1252 l 1
 174 1252 l 1
 174 1390 l 1
EndSplineSet
EndChar

StartChar: Zacute
Encoding: 312 377 161
Width: 1234
VWidth: 0
Flags: HW
PickledData: "(dp1
S'com.typemytype.robofont.layerData'
p2
(dp3
S'b'
(dp4
S'name'
p5
S'Zacute'
p6
sS'lib'
p7
(dp8
sS'unicodes'
p9
(tsS'width'
p10
I1234
sS'contours'
p11
(tsS'components'
p12
(tsS'anchors'
p13
(tsss."
LayerCount: 2
Fore
SplineSet
182 1390 m 1
 1094 1390 l 1
 1094 1272 l 1
 356 138 l 1
 1101 138 l 1
 1095 0 l 1
 155 0 l 1
 155 124 l 1
 889 1252 l 1
 182 1252 l 1
 182 1390 l 1
576 1576 m 1
 746 1929 l 1
 976 1929 l 1
 680 1576 l 1
 576 1576 l 1
EndSplineSet
EndChar

StartChar: Zcaron
Encoding: 316 381 162
Width: 1234
VWidth: 0
Flags: HW
PickledData: "(dp1
S'com.typemytype.robofont.layerData'
p2
(dp3
S'b'
(dp4
S'name'
p5
S'Zcaron'
p6
sS'lib'
p7
(dp8
sS'unicodes'
p9
(tsS'width'
p10
I1234
sS'contours'
p11
(tsS'components'
p12
(tsS'anchors'
p13
(tsss."
LayerCount: 2
Fore
SplineSet
182 1390 m 1
 1094 1390 l 1
 1094 1272 l 1
 356 138 l 1
 1101 138 l 1
 1095 0 l 1
 155 0 l 1
 155 124 l 1
 889 1252 l 1
 182 1252 l 1
 182 1390 l 1
531 1576 m 1
 361 1929 l 1
 480 1929 l 1
 627 1646 l 1
 774 1929 l 1
 895 1929 l 1
 725 1576 l 1
 531 1576 l 1
EndSplineSet
EndChar

StartChar: Zdotaccent
Encoding: 314 379 163
Width: 1234
VWidth: 0
Flags: HW
PickledData: "(dp1
S'com.typemytype.robofont.layerData'
p2
(dp3
S'b'
(dp4
S'name'
p5
S'Zdotaccent'
p6
sS'lib'
p7
(dp8
sS'unicodes'
p9
(tsS'width'
p10
I1234
sS'contours'
p11
(tsS'components'
p12
(tsS'anchors'
p13
(tsss."
LayerCount: 2
Fore
SplineSet
182 1390 m 1
 1094 1390 l 1
 1094 1272 l 1
 356 138 l 1
 1101 138 l 1
 1095 0 l 1
 155 0 l 1
 155 124 l 1
 889 1252 l 1
 182 1252 l 1
 182 1390 l 1
552 1576 m 1
 552 1756 l 1
 704 1756 l 1
 704 1576 l 1
 552 1576 l 1
EndSplineSet
EndChar

StartChar: Zeta
Encoding: 452 918 164
Width: 1159
VWidth: 0
Flags: HW
PickledData: "(dp1
S'com.typemytype.robofont.layerData'
p2
(dp3
S'b'
(dp4
S'name'
p5
S'Zeta'
p6
sS'lib'
p7
(dp8
sS'unicodes'
p9
(tsS'width'
p10
I1159
sS'contours'
p11
(tsS'components'
p12
(tsS'anchors'
p13
(tsss."
LayerCount: 2
Fore
SplineSet
137 1346 m 1
 1044 1346 l 1
 1044 1228 l 1
 308 140 l 1
 1050 140 l 1
 1045 0 l 1
 111 0 l 1
 111 124 l 1
 843 1206 l 1
 137 1206 l 1
 137 1346 l 1
EndSplineSet
EndChar

StartChar: a
Encoding: 66 97 165
Width: 1069
VWidth: 0
Flags: W
PickledData: "(dp1
S'com.typemytype.robofont.layerData'
p2
(dp3
S'b'
(dp4
S'name'
p5
S'a'
sS'lib'
p6
(dp7
sS'unicodes'
p8
(tsS'width'
p9
I1069
sS'contours'
p10
(tsS'components'
p11
(tsS'anchors'
p12
(tsss."
HStem: -20 123<317.967 607.221> 0 21G<751.714 897> 478 105<399.703 721.941> 887 132<279.842 662.585>
VStem: 101 174<147.05 386.701> 722 175<191.594 490 593.376 827.943> 756 141<0 66.9013>
LayerCount: 2
Fore
SplineSet
434 103 m 0xbc
 555 103 690 165 722 251 c 1
 722 490 l 1
 722 490 641 481 618 478 c 0
 357 447 275 402 275 262 c 0
 275 152 351 103 434 103 c 0xbc
412 -20 m 0
 236 -20 101 79 101 263 c 0
 101 478 274 562 559 583 c 0
 605 587 722 597 722 597 c 1
 722 685 l 2
 722 823 654 887 511 887 c 0
 415 887 272 848 178 802 c 1
 138 927 l 1
 224 975 378 1019 507 1019 c 0
 751 1019 897 927 897 661 c 2xbc
 897 0 l 1
 756 0 l 1x7a
 729 126 l 1
 668 36 546 -20 412 -20 c 0
EndSplineSet
EndChar

StartChar: aacute
Encoding: 160 225 166
Width: 1116
VWidth: 0
Flags: HW
PickledData: "(dp1
S'com.typemytype.robofont.layerData'
p2
(dp3
S'b'
(dp4
S'name'
p5
S'aacute'
p6
sS'lib'
p7
(dp8
sS'unicodes'
p9
(tsS'width'
p10
I1116
sS'contours'
p11
(tsS'components'
p12
(tsS'anchors'
p13
(tsss."
LayerCount: 2
Fore
SplineSet
468 102 m 0
 589 102 742 165 774 251 c 1
 774 490 l 1
 774 490 681 481 658 478 c 0
 397 447 308 402 308 262 c 0
 308 152 385 102 468 102 c 0
445 -21 m 0
 269 -21 134 79 134 263 c 0
 134 478 314 562 599 583 c 0
 645 587 774 597 774 597 c 1
 774 685 l 2
 774 823 704 886 561 886 c 0
 465 886 328 858 234 812 c 1
 226 831 194 916 187 935 c 1
 273 983 428 1019 557 1019 c 0
 801 1019 949 927 949 661 c 2
 949 0 l 1
 808 0 l 1
 781 112 l 1
 720 22 579 -21 445 -21 c 0
490 1182 m 1
 660 1535 l 1
 890 1535 l 1
 594 1182 l 1
 490 1182 l 1
EndSplineSet
EndChar

StartChar: abreve
Encoding: 194 259 167
Width: 1116
VWidth: 0
Flags: HW
PickledData: "(dp1
S'com.typemytype.robofont.layerData'
p2
(dp3
S'b'
(dp4
S'name'
p5
S'abreve'
p6
sS'lib'
p7
(dp8
sS'unicodes'
p9
(tsS'width'
p10
I1116
sS'contours'
p11
(tsS'components'
p12
(tsS'anchors'
p13
(tsss."
LayerCount: 2
Fore
SplineSet
468 102 m 0
 589 102 742 165 774 251 c 1
 774 490 l 1
 774 490 681 481 658 478 c 0
 397 447 308 402 308 262 c 0
 308 152 385 102 468 102 c 0
445 -21 m 0
 269 -21 134 79 134 263 c 0
 134 478 314 562 599 583 c 0
 645 587 774 597 774 597 c 1
 774 685 l 2
 774 823 704 886 561 886 c 0
 465 886 328 858 234 812 c 1
 226 831 194 916 187 935 c 1
 273 983 428 1019 557 1019 c 0
 801 1019 949 927 949 661 c 2
 949 0 l 1
 808 0 l 1
 781 112 l 1
 720 22 579 -21 445 -21 c 0
770 1404 m 1
 770 1247 653 1182 540 1182 c 0
 428 1182 313 1247 313 1404 c 1
 419 1404 l 1
 419 1317 474 1276 540 1276 c 0
 606 1276 664 1317 664 1404 c 1
 770 1404 l 1
EndSplineSet
EndChar

StartChar: acircumflex
Encoding: 161 226 168
Width: 1116
VWidth: 0
Flags: HW
PickledData: "(dp1
S'com.typemytype.robofont.layerData'
p2
(dp3
S'b'
(dp4
S'name'
p5
S'acircumflex'
p6
sS'lib'
p7
(dp8
sS'unicodes'
p9
(tsS'width'
p10
I1116
sS'contours'
p11
(tsS'components'
p12
(tsS'anchors'
p13
(tsss."
LayerCount: 2
Fore
SplineSet
468 102 m 0
 589 102 742 165 774 251 c 1
 774 490 l 1
 774 490 681 481 658 478 c 0
 397 447 308 402 308 262 c 0
 308 152 385 102 468 102 c 0
445 -21 m 0
 269 -21 134 79 134 263 c 0
 134 478 314 562 599 583 c 0
 645 587 774 597 774 597 c 1
 774 685 l 2
 774 823 704 886 561 886 c 0
 465 886 328 858 234 812 c 1
 226 831 194 916 187 935 c 1
 273 983 428 1019 557 1019 c 0
 801 1019 949 927 949 661 c 2
 949 0 l 1
 808 0 l 1
 781 112 l 1
 720 22 579 -21 445 -21 c 0
274 1182 m 1
 444 1535 l 1
 638 1535 l 1
 808 1182 l 1
 688 1182 l 1
 540 1430 l 1
 394 1182 l 1
 274 1182 l 1
EndSplineSet
EndChar

StartChar: acute
Encoding: 116 180 169
Width: 581
VWidth: 0
Flags: HW
PickledData: "(dp1
S'com.typemytype.robofont.layerData'
p2
(dp3
S'b'
(dp4
S'name'
p5
S'acute'
p6
sS'lib'
p7
(dp8
sS'unicodes'
p9
(tsS'width'
p10
I581
sS'contours'
p11
(tsS'components'
p12
(tsS'anchors'
p13
(tsss."
LayerCount: 2
Fore
SplineSet
116 1138 m 1
 286 1491 l 1
 516 1491 l 1
 220 1138 l 1
 116 1138 l 1
EndSplineSet
EndChar

StartChar: adieresis
Encoding: 163 228 170
Width: 1116
VWidth: 0
Flags: HW
PickledData: "(dp1
S'com.typemytype.robofont.layerData'
p2
(dp3
S'b'
(dp4
S'name'
p5
S'adieresis'
p6
sS'lib'
p7
(dp8
sS'unicodes'
p9
(tsS'width'
p10
I1116
sS'contours'
p11
(tsS'components'
p12
(tsS'anchors'
p13
(tsss."
LayerCount: 2
Fore
SplineSet
468 102 m 0
 589 102 742 165 774 251 c 1
 774 490 l 1
 774 490 681 481 658 478 c 0
 397 447 308 402 308 262 c 0
 308 152 385 102 468 102 c 0
445 -21 m 0
 269 -21 134 79 134 263 c 0
 134 478 314 562 599 583 c 0
 645 587 774 597 774 597 c 1
 774 685 l 2
 774 823 704 886 561 886 c 0
 465 886 328 858 234 812 c 1
 226 831 194 916 187 935 c 1
 273 983 428 1019 557 1019 c 0
 801 1019 949 927 949 661 c 2
 949 0 l 1
 808 0 l 1
 781 112 l 1
 720 22 579 -21 445 -21 c 0
648 1182 m 1
 648 1375 l 1
 790 1375 l 1
 790 1182 l 1
 648 1182 l 1
294 1182 m 1
 294 1375 l 1
 434 1375 l 1
 434 1182 l 1
 294 1182 l 1
EndSplineSet
EndChar

StartChar: ae
Encoding: 165 230 171
Width: 1587
VWidth: 0
Flags: HW
PickledData: "(dp1
S'com.typemytype.robofont.layerData'
p2
(dp3
S'b'
(dp4
S'name'
p5
S'ae'
p6
sS'lib'
p7
(dp8
sS'unicodes'
p9
(tsS'width'
p10
I1587
sS'contours'
p11
(tsS'components'
p12
(tsS'anchors'
p13
(tsss."
LayerCount: 2
Fore
SplineSet
848 560 m 1
 1318 586 l 1
 1318 595 l 1
 1316 802 1256 895 1122 895 c 0
 939 895 858 747 848 560 c 1
419 103 m 0
 520 103 652 154 756 189 c 1
 715 264 692 351 687 454 c 1
 667 453 647 452 629 450 c 0
 337 428 266 373 266 265 c 0
 266 144 332 103 419 103 c 0
408 -24 m 0
 250 -24 113 54 113 273 c 0
 113 513 356 543 632 558 c 2
 690 561 l 1
 690 711 l 2
 690 832 645 888 517 888 c 0
 392 888 269 854 193 814 c 1
 160 939 l 1
 233 981 377 1023 513 1023 c 0
 658 1023 775 966 802 848 c 1
 868 967 993 1023 1125 1023 c 0
 1373 1023 1465 827 1465 622 c 0
 1465 535 1442 493 1295 486 c 2
 843 463 l 1
 858 250 933 108 1127 108 c 0
 1244 108 1357 163 1421 208 c 1
 1468 98 l 1
 1394 34 1277 -23 1117 -23 c 0
 986 -23 892 22 819 102 c 1
 712 36 550 -24 408 -24 c 0
EndSplineSet
EndChar

StartChar: aeacute
Encoding: 374 509 172
Width: 1587
VWidth: 0
Flags: HW
PickledData: "(dp1
S'com.typemytype.robofont.layerData'
p2
(dp3
S'b'
(dp4
S'name'
p5
S'aeacute'
p6
sS'lib'
p7
(dp8
sS'unicodes'
p9
(tsS'width'
p10
I1587
sS'contours'
p11
(tsS'components'
p12
(tsS'anchors'
p13
(tsss."
LayerCount: 2
Fore
SplineSet
848 560 m 1
 1318 586 l 1
 1318 595 l 1
 1316 802 1256 895 1122 895 c 0
 939 895 858 747 848 560 c 1
419 103 m 0
 520 103 652 154 756 189 c 1
 715 264 692 351 687 454 c 1
 667 453 647 452 629 450 c 0
 337 428 266 373 266 265 c 0
 266 144 332 103 419 103 c 0
408 -24 m 0
 250 -24 113 54 113 273 c 0
 113 513 356 543 632 558 c 2
 690 561 l 1
 690 711 l 2
 690 832 645 888 517 888 c 0
 392 888 269 854 193 814 c 1
 160 939 l 1
 233 981 377 1023 513 1023 c 0
 658 1023 775 966 802 848 c 1
 868 967 993 1023 1125 1023 c 0
 1373 1023 1465 827 1465 622 c 0
 1465 535 1442 493 1295 486 c 2
 843 463 l 1
 858 250 933 108 1127 108 c 0
 1244 108 1357 163 1421 208 c 1
 1468 98 l 1
 1394 34 1277 -23 1117 -23 c 0
 986 -23 892 22 819 102 c 1
 712 36 550 -24 408 -24 c 0
738 1186 m 1
 908 1539 l 1
 1138 1539 l 1
 842 1186 l 1
 738 1186 l 1
EndSplineSet
EndChar

StartChar: afii10017
Encoding: 524 1040 173
Width: 1224
VWidth: 0
Flags: HW
PickledData: "(dp1
S'com.typemytype.robofont.layerData'
p2
(dp3
S'b'
(dp4
S'name'
p5
S'afii10017'
p6
sS'lib'
p7
(dp8
sS'unicodes'
p9
(tsS'width'
p10
I1224
sS'contours'
p11
(tsS'components'
p12
(tsS'anchors'
p13
(tsss."
LayerCount: 2
Fore
SplineSet
215 0 m 1
 37 0 l 1
 541 1390 l 1
 743 1390 l 1
 1246 0 l 1
 1078 0 l 1
 919 430 l 1
 375 430 l 1
 215 0 l 1
641 1223 m 1
 426 561 l 1
 870 561 l 1
 641 1223 l 1
EndSplineSet
EndChar

StartChar: afii10018
Encoding: 525 1041 174
Width: 1174
VWidth: 0
Flags: HW
PickledData: "(dp1
S'com.typemytype.robofont.layerData'
p2
(dp3
S'b'
(dp4
S'name'
p5
S'afii10018'
p6
sS'lib'
p7
(dp8
sS'unicodes'
p9
(tsS'width'
p10
I1174
sS'contours'
p11
(tsS'components'
p12
(tsS'anchors'
p13
(tsss."
LayerCount: 2
Fore
SplineSet
1088 393 m 0
 1088 155 960 0 630 0 c 2
 160 0 l 1
 160 1346 l 1
 974 1346 l 1
 974 1213 l 1
 334 1213 l 1
 334 779 l 1
 636 779 l 2
 960 779 1088 628 1088 393 c 0
334 653 m 1
 334 129 l 1
 639 129 l 2
 825 129 914 212 914 392 c 0
 914 573 823 653 631 653 c 2
 334 653 l 1
EndSplineSet
EndChar

StartChar: afii10019
Encoding: 526 1042 175
Width: 1194
VWidth: 0
Flags: HW
PickledData: "(dp1
S'com.typemytype.robofont.layerData'
p2
(dp3
S'b'
(dp4
S'name'
p5
S'afii10019'
p6
sS'lib'
p7
(dp8
sS'unicodes'
p9
(tsS'width'
p10
I1194
sS'contours'
p11
(tsS'components'
p12
(tsS'anchors'
p13
(tsss."
LayerCount: 2
Fore
SplineSet
339 1257 m 1
 339 797 l 1
 632 797 l 2
 809 797 923 854 923 1031 c 0
 923 1208 795 1257 563 1257 c 2
 339 1257 l 1
339 671 m 1
 339 129 l 1
 625 129 l 2
 856 129 974 239 974 419 c 0
 974 611 842 671 587 671 c 2
 339 671 l 1
657 0 m 2
 178 0 l 1
 178 1390 l 1
 571 1390 l 2
 919 1390 1091 1289 1091 1055 c 0
 1091 989 1074 809 861 743 c 1
 1052 708 1142 574 1142 413 c 0
 1142 175 984 0 657 0 c 2
EndSplineSet
EndChar

StartChar: afii10020
Encoding: 527 1043 176
Width: 1047
VWidth: 0
Flags: HW
PickledData: "(dp1
S'com.typemytype.robofont.layerData'
p2
(dp3
S'b'
(dp4
S'name'
p5
S'afii10020'
p6
sS'lib'
p7
(dp8
sS'unicodes'
p9
(tsS'width'
p10
I1047
sS'contours'
p11
(tsS'components'
p12
(tsS'anchors'
p13
(tsss."
LayerCount: 2
Fore
SplineSet
995 1205 m 1
 334 1205 l 1
 334 0 l 1
 160 0 l 1
 160 1346 l 1
 1008 1346 l 1
 995 1205 l 1
EndSplineSet
EndChar

StartChar: afii10021
Encoding: 528 1044 177
Width: 1368
VWidth: 0
Flags: HW
PickledData: "(dp1
S'com.typemytype.robofont.layerData'
p2
(dp3
S'b'
(dp4
S'name'
p5
S'afii10021'
p6
sS'lib'
p7
(dp8
sS'unicodes'
p9
(tsS'width'
p10
I1368
sS'contours'
p11
(tsS'components'
p12
(tsS'anchors'
p13
(tsss."
LayerCount: 2
Fore
SplineSet
126 -275 m 1
 -38 -275 l 1
 -38 138 l 1
 112 138 l 1
 198 199 223 353 289 1019 c 0
 298 1109 311 1238 321 1346 c 1
 1152 1346 l 1
 1152 138 l 1
 1306 138 l 1
 1306 -275 l 1
 1145 -275 l 1
 1145 0 l 1
 126 0 l 1
 126 -275 l 1
482 1205 m 1
 482 1202 l 1
 476 1142 460 989 456 938 c 1
 410 471 391 257 317 138 c 1
 978 138 l 1
 978 1205 l 1
 482 1205 l 1
EndSplineSet
EndChar

StartChar: afii10022
Encoding: 529 1045 178
Width: 1067
VWidth: 0
Flags: HW
PickledData: "(dp1
S'com.typemytype.robofont.layerData'
p2
(dp3
S'b'
(dp4
S'name'
p5
S'afii10022'
p6
sS'lib'
p7
(dp8
sS'unicodes'
p9
(tsS'width'
p10
I1067
sS'contours'
p11
(tsS'components'
p12
(tsS'anchors'
p13
(tsss."
LayerCount: 2
Fore
SplineSet
989 1251 m 1
 356 1251 l 1
 356 799 l 1
 936 799 l 1
 936 662 l 1
 356 662 l 1
 356 139 l 1
 996 139 l 1
 988 0 l 1
 178 0 l 1
 178 1390 l 1
 996 1390 l 1
 989 1251 l 1
EndSplineSet
EndChar

StartChar: afii10023
Encoding: 509 1025 179
Width: 1067
VWidth: 0
Flags: HW
PickledData: "(dp1
S'com.typemytype.robofont.layerData'
p2
(dp3
S'b'
(dp4
S'name'
p5
S'afii10023'
p6
sS'lib'
p7
(dp8
sS'unicodes'
p9
(tsS'width'
p10
I1067
sS'contours'
p11
(tsS'components'
p12
(tsS'anchors'
p13
(tsss."
LayerCount: 2
Fore
SplineSet
989 1251 m 1
 356 1251 l 1
 356 799 l 1
 936 799 l 1
 936 662 l 1
 356 662 l 1
 356 139 l 1
 996 139 l 1
 988 0 l 1
 178 0 l 1
 178 1390 l 1
 996 1390 l 1
 989 1251 l 1
694 1576 m 1
 694 1769 l 1
 835 1769 l 1
 835 1576 l 1
 694 1576 l 1
339 1576 m 1
 339 1769 l 1
 480 1769 l 1
 480 1576 l 1
 339 1576 l 1
EndSplineSet
EndChar

StartChar: afii10024
Encoding: 530 1046 180
Width: 1851
VWidth: 0
Flags: HW
PickledData: "(dp1
S'com.typemytype.robofont.layerData'
p2
(dp3
S'b'
(dp4
S'name'
p5
S'afii10024'
p6
sS'lib'
p7
(dp8
sS'unicodes'
p9
(tsS'width'
p10
I1851
sS'contours'
p11
(tsS'components'
p12
(tsS'anchors'
p13
(tsss."
LayerCount: 2
Fore
SplineSet
832 0 m 1
 832 599 l 1
 304 0 l 1
 95 0 l 1
 692 668 l 1
 166 1346 l 1
 362 1346 l 1
 832 735 l 1
 832 1346 l 1
 1006 1346 l 1
 1006 733 l 1
 1477 1346 l 1
 1673 1346 l 1
 1147 668 l 1
 1744 0 l 1
 1535 0 l 1
 1006 600 l 1
 1006 0 l 1
 832 0 l 1
EndSplineSet
EndChar

StartChar: afii10025
Encoding: 531 1047 181
Width: 1111
VWidth: 0
Flags: HW
PickledData: "(dp1
S'com.typemytype.robofont.layerData'
p2
(dp3
S'b'
(dp4
S'name'
p5
S'afii10025'
p6
sS'lib'
p7
(dp8
sS'unicodes'
p9
(tsS'width'
p10
I1111
sS'contours'
p11
(tsS'components'
p12
(tsS'anchors'
p13
(tsss."
LayerCount: 2
Fore
SplineSet
991 363 m 0
 991 135 832 -18 540 -18 c 0
 365 -18 216 33 127 95 c 1
 183 223 l 1
 253 174 393 120 527 120 c 0
 693 120 817 203 817 377 c 0
 817 502 725 627 550 627 c 2
 425 627 l 1
 425 770 l 1
 545 770 l 2
 714 770 785 896 785 999 c 0
 785 1158 681 1228 546 1228 c 0
 431 1228 307 1187 218 1134 c 1
 159 1259 l 1
 266 1322 371 1366 556 1366 c 0
 864 1366 959 1170 959 1026 c 0
 959 865 866 750 719 706 c 1
 842 678 991 579 991 363 c 0
EndSplineSet
EndChar

StartChar: afii10026
Encoding: 532 1048 182
Width: 1426
VWidth: 0
Flags: HW
PickledData: "(dp1
S'com.typemytype.robofont.layerData'
p2
(dp3
S'b'
(dp4
S'name'
p5
S'afii10026'
p6
sS'lib'
p7
(dp8
sS'unicodes'
p9
(tsS'width'
p10
I1426
sS'contours'
p11
(tsS'components'
p12
(tsS'anchors'
p13
(tsss."
LayerCount: 2
Fore
SplineSet
308 219 m 1
 566 598 831 970 1091 1346 c 1
 1267 1346 l 1
 1267 0 l 1
 1114 0 l 1
 1114 786 l 2
 1114 894 1119 1127 1119 1127 c 1
 863 747 598 377 339 0 c 1
 160 0 l 1
 160 1346 l 1
 313 1346 l 1
 313 555 l 2
 313 509 308 219 308 219 c 1
EndSplineSet
EndChar

StartChar: afii10027
Encoding: 533 1049 183
Width: 1426
VWidth: 0
Flags: HW
PickledData: "(dp1
S'com.typemytype.robofont.layerData'
p2
(dp3
S'b'
(dp4
S'name'
p5
S'afii10027'
p6
sS'lib'
p7
(dp8
sS'unicodes'
p9
(tsS'width'
p10
I1426
sS'contours'
p11
(tsS'components'
p12
(tsS'anchors'
p13
(tsss."
LayerCount: 2
Fore
SplineSet
942 1798 m 1
 942 1641 825 1576 712 1576 c 0
 600 1576 485 1641 485 1798 c 1
 591 1798 l 1
 591 1711 646 1670 712 1670 c 0
 778 1670 836 1711 836 1798 c 1
 942 1798 l 1
308 219 m 1
 566 598 831 970 1091 1346 c 1
 1267 1346 l 1
 1267 0 l 1
 1114 0 l 1
 1114 786 l 2
 1114 894 1119 1127 1119 1127 c 1
 863 747 598 377 339 0 c 1
 160 0 l 1
 160 1346 l 1
 313 1346 l 1
 313 555 l 2
 313 509 308 219 308 219 c 1
EndSplineSet
EndChar

StartChar: afii10028
Encoding: 534 1050 184
Width: 1243
VWidth: 0
Flags: HW
PickledData: "(dp1
S'com.typemytype.robofont.layerData'
p2
(dp3
S'b'
(dp4
S'name'
p5
S'afii10028'
p6
sS'lib'
p7
(dp8
sS'unicodes'
p9
(tsS'width'
p10
I1243
sS'contours'
p11
(tsS'components'
p12
(tsS'anchors'
p13
(tsss."
LayerCount: 2
Fore
SplineSet
334 0 m 1
 160 0 l 1
 160 1346 l 1
 334 1346 l 1
 334 739 l 1
 881 1346 l 1
 1101 1346 l 1
 496 672 l 1
 1130 0 l 1
 895 0 l 1
 334 607 l 1
 334 0 l 1
EndSplineSet
EndChar

StartChar: afii10029
Encoding: 535 1051 185
Width: 1248
VWidth: 0
Flags: HW
PickledData: "(dp1
S'com.typemytype.robofont.layerData'
p2
(dp3
S'b'
(dp4
S'name'
p5
S'afii10029'
p6
sS'lib'
p7
(dp8
sS'unicodes'
p9
(tsS'width'
p10
I1248
sS'contours'
p11
(tsS'components'
p12
(tsS'anchors'
p13
(tsss."
LayerCount: 2
Fore
SplineSet
914 0 m 1
 914 1205 l 1
 391 1205 l 1
 389 1148 380 991 378 939 c 0
 337 123 323 -10 -30 -46 c 1
 -60 91 l 1
 145 144 160 94 207 1019 c 0
 212 1109 219 1238 224 1346 c 1
 1088 1346 l 1
 1088 0 l 1
 914 0 l 1
EndSplineSet
EndChar

StartChar: afii10030
Encoding: 536 1052 186
Width: 1648
VWidth: 0
Flags: HW
PickledData: "(dp1
S'com.typemytype.robofont.layerData'
p2
(dp3
S'b'
(dp4
S'name'
p5
S'afii10030'
p6
sS'lib'
p7
(dp8
sS'unicodes'
p9
(tsS'width'
p10
I1648
sS'contours'
p11
(tsS'components'
p12
(tsS'anchors'
p13
(tsss."
LayerCount: 2
Fore
SplineSet
832 305 m 1
 1278 1390 l 1
 1485 1390 l 1
 1485 0 l 1
 1330 0 l 1
 1330 843 l 1
 1337 1163 l 1
 911 108 l 1
 753 108 l 1
 322 1167 l 1
 333 839 l 1
 333 0 l 1
 178 0 l 1
 178 1390 l 1
 391 1390 l 1
 832 305 l 1
EndSplineSet
EndChar

StartChar: afii10031
Encoding: 537 1053 187
Width: 1435
VWidth: 0
Flags: HW
PickledData: "(dp1
S'com.typemytype.robofont.layerData'
p2
(dp3
S'b'
(dp4
S'name'
p5
S'afii10031'
p6
sS'lib'
p7
(dp8
sS'unicodes'
p9
(tsS'width'
p10
I1435
sS'contours'
p11
(tsS'components'
p12
(tsS'anchors'
p13
(tsss."
LayerCount: 2
Fore
SplineSet
356 766 m 1
 1079 766 l 1
 1079 1390 l 1
 1257 1390 l 1
 1257 0 l 1
 1079 0 l 1
 1079 634 l 1
 356 634 l 1
 356 0 l 1
 178 0 l 1
 178 1390 l 1
 356 1390 l 1
 356 766 l 1
EndSplineSet
EndChar

StartChar: afii10032
Encoding: 538 1054 188
Width: 1507
VWidth: 0
Flags: HW
PickledData: "(dp1
S'com.typemytype.robofont.layerData'
p2
(dp3
S'b'
(dp4
S'name'
p5
S'afii10032'
p6
sS'lib'
p7
(dp8
sS'unicodes'
p9
(tsS'width'
p10
I1507
sS'contours'
p11
(tsS'components'
p12
(tsS'anchors'
p13
(tsss."
LayerCount: 2
Fore
SplineSet
282 697 m 0
 282 379 433 120 757 120 c 0
 1081 120 1231 379 1231 697 c 0
 1231 1027 1075 1275 758 1275 c 0
 441 1275 282 1028 282 697 c 0
758 1413 m 0
 1167 1413 1410 1122 1410 697 c 0
 1410 287 1175 -18 757 -18 c 0
 334 -18 103 281 103 698 c 0
 103 1125 342 1413 758 1413 c 0
EndSplineSet
EndChar

StartChar: afii10033
Encoding: 539 1055 189
Width: 1368
VWidth: 0
Flags: HW
PickledData: "(dp1
S'com.typemytype.robofont.layerData'
p2
(dp3
S'b'
(dp4
S'name'
p5
S'afii10033'
p6
sS'lib'
p7
(dp8
sS'unicodes'
p9
(tsS'width'
p10
I1368
sS'contours'
p11
(tsS'components'
p12
(tsS'anchors'
p13
(tsss."
LayerCount: 2
Fore
SplineSet
334 1208 m 1
 334 0 l 1
 160 0 l 1
 160 1346 l 1
 1208 1346 l 1
 1208 0 l 1
 1034 0 l 1
 1034 1208 l 1
 334 1208 l 1
EndSplineSet
EndChar

StartChar: afii10034
Encoding: 540 1056 190
Width: 1166
VWidth: 0
Flags: HW
PickledData: "(dp1
S'com.typemytype.robofont.layerData'
p2
(dp3
S'b'
(dp4
S'name'
p5
S'afii10034'
p6
sS'lib'
p7
(dp8
sS'unicodes'
p9
(tsS'width'
p10
I1166
sS'contours'
p11
(tsS'components'
p12
(tsS'anchors'
p13
(tsss."
LayerCount: 2
Fore
SplineSet
615 744 m 0
 839 744 907 840 907 1020 c 0
 907 1182 795 1253 624 1253 c 2
 357 1253 l 1
 357 746 l 1
 357 746 552 744 615 744 c 0
178 0 m 1
 178 1390 l 1
 628 1390 l 2
 891 1390 1086 1268 1086 1023 c 0
 1086 770 951 613 607 613 c 0
 534 613 427 612 357 616 c 1
 357 0 l 1
 178 0 l 1
EndSplineSet
EndChar

StartChar: afii10035
Encoding: 541 1057 191
Width: 1183
VWidth: 0
Flags: HW
PickledData: "(dp1
S'com.typemytype.robofont.layerData'
p2
(dp3
S'b'
(dp4
S'name'
p5
S'afii10035'
p6
sS'lib'
p7
(dp8
sS'unicodes'
p9
(tsS'width'
p10
I1183
sS'contours'
p11
(tsS'components'
p12
(tsS'anchors'
p13
(tsss."
LayerCount: 2
Fore
SplineSet
1131 68 m 1
 1066 28 914 -18 743 -18 c 1
 349 -12 103 310 103 725 c 0
 103 1130 349 1413 761 1413 c 0
 923 1413 1050 1377 1151 1313 c 1
 1097 1189 l 1
 1006 1243 885 1275 763 1275 c 0
 446 1275 275 1038 275 719 c 0
 275 401 441 120 779 120 c 0
 896 120 1006 149 1105 196 c 1
 1131 68 l 1
EndSplineSet
EndChar

StartChar: afii10036
Encoding: 542 1058 192
Width: 1088
VWidth: 0
Flags: HW
PickledData: "(dp1
S'com.typemytype.robofont.layerData'
p2
(dp3
S'b'
(dp4
S'name'
p5
S'afii10036'
p6
sS'lib'
p7
(dp8
sS'unicodes'
p9
(tsS'width'
p10
I1088
sS'contours'
p11
(tsS'components'
p12
(tsS'anchors'
p13
(tsss."
LayerCount: 2
Fore
SplineSet
39 1390 m 1
 1049 1390 l 1
 1049 1251 l 1
 633 1251 l 1
 633 0 l 1
 454 0 l 1
 454 1251 l 1
 39 1251 l 1
 39 1390 l 1
EndSplineSet
EndChar

StartChar: afii10037
Encoding: 543 1059 193
Width: 1248
VWidth: 0
Flags: HW
PickledData: "(dp1
S'com.typemytype.robofont.layerData'
p2
(dp3
S'b'
(dp4
S'name'
p5
S'afii10037'
p6
sS'lib'
p7
(dp8
sS'unicodes'
p9
(tsS'width'
p10
I1248
sS'contours'
p11
(tsS'components'
p12
(tsS'anchors'
p13
(tsss."
LayerCount: 2
Fore
SplineSet
255 1346 m 1
 670 580 l 1
 1029 1346 l 1
 1217 1346 l 1
 577 0 l 1
 390 0 l 1
 567 424 l 1
 64 1346 l 1
 255 1346 l 1
EndSplineSet
EndChar

StartChar: afii10038
Encoding: 544 1060 194
Width: 1566
VWidth: 0
Flags: HW
PickledData: "(dp1
S'com.typemytype.robofont.layerData'
p2
(dp3
S'b'
(dp4
S'name'
p5
S'afii10038'
p6
sS'lib'
p7
(dp8
sS'unicodes'
p9
(tsS'width'
p10
I1566
sS'contours'
p11
(tsS'components'
p12
(tsS'anchors'
p13
(tsss."
LayerCount: 2
Fore
SplineSet
850 1098 m 1
 850 258 l 1
 1165 287 1305 445 1305 678 c 0
 1305 911 1165 1069 850 1098 c 1
702 259 m 1
 702 1097 l 1
 401 1065 261 910 261 678 c 0
 261 445 401 291 702 259 c 1
850 0 m 1
 702 0 l 1
 702 116 l 1
 309 150 89 356 89 678 c 0
 89 1000 309 1205 702 1239 c 1
 702 1361 l 1
 850 1361 l 1
 850 1241 l 1
 1238 1215 1477 1019 1477 678 c 0
 1477 337 1238 141 850 115 c 1
 850 0 l 1
EndSplineSet
EndChar

StartChar: afii10039
Encoding: 545 1061 195
Width: 1196
VWidth: 0
Flags: HW
PickledData: "(dp1
S'com.typemytype.robofont.layerData'
p2
(dp3
S'b'
(dp4
S'name'
p5
S'afii10039'
p6
sS'lib'
p7
(dp8
sS'unicodes'
p9
(tsS'width'
p10
I1196
sS'contours'
p11
(tsS'components'
p12
(tsS'anchors'
p13
(tsss."
LayerCount: 2
Fore
SplineSet
696 709 m 1
 1161 0 l 1
 975 0 l 1
 603 572 l 1
 232 0 l 1
 46 0 l 1
 510 709 l 1
 46 1390 l 1
 232 1390 l 1
 603 846 l 1
 975 1390 l 1
 1161 1390 l 1
 696 709 l 1
EndSplineSet
EndChar

StartChar: afii10040
Encoding: 546 1062 196
Width: 1386
VWidth: 0
Flags: HW
PickledData: "(dp1
S'com.typemytype.robofont.layerData'
p2
(dp3
S'b'
(dp4
S'name'
p5
S'afii10040'
p6
sS'lib'
p7
(dp8
sS'unicodes'
p9
(tsS'width'
p10
I1386
sS'contours'
p11
(tsS'components'
p12
(tsS'anchors'
p13
(tsss."
LayerCount: 2
Fore
SplineSet
1280 -275 m 1
 1120 -275 l 1
 1120 0 l 1
 160 0 l 1
 160 1346 l 1
 334 1346 l 1
 334 138 l 1
 967 138 l 1
 967 1346 l 1
 1141 1346 l 1
 1141 141 l 1
 1280 141 l 1
 1280 -275 l 1
EndSplineSet
EndChar

StartChar: afii10041
Encoding: 547 1063 197
Width: 1139
VWidth: 0
Flags: HW
PickledData: "(dp1
S'com.typemytype.robofont.layerData'
p2
(dp3
S'b'
(dp4
S'name'
p5
S'afii10041'
p6
sS'lib'
p7
(dp8
sS'unicodes'
p9
(tsS'width'
p10
I1139
sS'contours'
p11
(tsS'components'
p12
(tsS'anchors'
p13
(tsss."
LayerCount: 2
Fore
SplineSet
1017 0 m 1
 843 0 l 1
 843 461 l 1
 500 461 l 2
 247 461 109 595 109 834 c 2
 109 1346 l 1
 283 1346 l 1
 283 866 l 2
 283 649 365 612 533 612 c 2
 843 612 l 1
 843 1346 l 1
 1017 1346 l 1
 1017 0 l 1
EndSplineSet
EndChar

StartChar: afii10042
Encoding: 548 1064 198
Width: 1525
VWidth: 0
Flags: HW
PickledData: "(dp1
S'com.typemytype.robofont.layerData'
p2
(dp3
S'b'
(dp4
S'name'
p5
S'afii10042'
p6
sS'lib'
p7
(dp8
sS'unicodes'
p9
(tsS'width'
p10
I1525
sS'contours'
p11
(tsS'components'
p12
(tsS'anchors'
p13
(tsss."
LayerCount: 2
Fore
SplineSet
682 141 m 1
 682 1346 l 1
 843 1346 l 1
 843 141 l 1
 1228 141 l 1
 1228 1346 l 1
 1390 1346 l 1
 1390 0 l 1
 136 0 l 1
 136 1346 l 1
 298 1346 l 1
 298 141 l 1
 682 141 l 1
EndSplineSet
EndChar

StartChar: afii10043
Encoding: 549 1065 199
Width: 1591
VWidth: 0
Flags: HW
PickledData: "(dp1
S'com.typemytype.robofont.layerData'
p2
(dp3
S'b'
(dp4
S'name'
p5
S'afii10043'
p6
sS'lib'
p7
(dp8
sS'unicodes'
p9
(tsS'width'
p10
I1591
sS'contours'
p11
(tsS'components'
p12
(tsS'anchors'
p13
(tsss."
LayerCount: 2
Fore
SplineSet
706 141 m 1
 706 1346 l 1
 867 1346 l 1
 867 141 l 1
 1252 141 l 1
 1252 1346 l 1
 1414 1346 l 1
 1414 141 l 1
 1515 141 l 1
 1515 -275 l 1
 1356 -275 l 1
 1356 0 l 1
 160 0 l 1
 160 1346 l 1
 322 1346 l 1
 322 141 l 1
 706 141 l 1
EndSplineSet
EndChar

StartChar: afii10044
Encoding: 550 1066 200
Width: 1395
VWidth: 0
Flags: HW
PickledData: "(dp1
S'com.typemytype.robofont.layerData'
p2
(dp3
S'b'
(dp4
S'name'
p5
S'afii10044'
p6
sS'lib'
p7
(dp8
sS'unicodes'
p9
(tsS'width'
p10
I1395
sS'contours'
p11
(tsS'components'
p12
(tsS'anchors'
p13
(tsss."
LayerCount: 2
Fore
SplineSet
623 633 m 1
 623 142 l 1
 836 142 l 2
 1076 142 1137 232 1137 392 c 0
 1137 539 1062 633 833 633 c 2
 623 633 l 1
623 1346 m 1
 623 773 l 1
 814 773 l 2
 1128 773 1312 652 1312 389 c 0
 1312 126 1145 0 817 0 c 2
 448 0 l 1
 448 1205 l 1
 128 1205 l 1
 128 1346 l 1
 623 1346 l 1
EndSplineSet
EndChar

StartChar: afii10045
Encoding: 551 1067 201
Width: 1032
VWidth: 0
Flags: HW
PickledData: "(dp1
S'com.typemytype.robofont.layerData'
p2
(dp3
S'b'
(dp4
S'name'
p5
S'afii10045'
p6
sS'lib'
p7
(dp8
sS'unicodes'
p9
(tsS'width'
p10
I1032
sS'contours'
p11
(tsS'components'
p12
(tsS'anchors'
p13
(tsss."
LayerCount: 2
Fore
SplineSet
324 633 m 1
 324 141 l 1
 459 141 l 2
 689 141 774 223 774 383 c 0
 774 537 692 633 453 633 c 2
 324 633 l 1
324 1346 m 1
 324 773 l 1
 454 773 l 2
 776 773 949 634 949 387 c 0
 949 149 781 0 441 0 c 2
 149 0 l 1
 149 1346 l 1
 324 1346 l 1
EndSplineSet
EndChar

StartChar: afii10046
Encoding: 552 1068 202
Width: 1431
VWidth: 0
Flags: HW
PickledData: "(dp1
S'com.typemytype.robofont.layerData'
p2
(dp3
S'b'
(dp4
S'name'
p5
S'afii10046'
p6
sS'lib'
p7
(dp8
sS'unicodes'
p9
(tsS'width'
p10
I1431
sS'contours'
p11
(tsS'components'
p12
(tsS'anchors'
p13
(tsss."
LayerCount: 2
Fore
SplineSet
149 1346 m 1
 324 1346 l 1
 324 0 l 1
 149 0 l 1
 149 1346 l 1
723 633 m 1
 723 141 l 1
 871 141 l 2
 1111 141 1173 232 1173 392 c 0
 1173 546 1104 633 874 633 c 2
 723 633 l 1
723 1346 m 1
 723 773 l 1
 862 773 l 2
 1181 773 1348 643 1348 396 c 0
 1348 158 1187 0 864 0 c 2
 548 0 l 1
 548 1346 l 1
 723 1346 l 1
EndSplineSet
EndChar

StartChar: afii10047
Encoding: 553 1069 203
Width: 1275
VWidth: 0
Flags: HW
PickledData: "(dp1
S'com.typemytype.robofont.layerData'
p2
(dp3
S'b'
(dp4
S'name'
p5
S'afii10047'
p6
sS'lib'
p7
(dp8
sS'unicodes'
p9
(tsS'width'
p10
I1275
sS'contours'
p11
(tsS'components'
p12
(tsS'anchors'
p13
(tsss."
LayerCount: 2
Fore
SplineSet
519 -21 m 0
 340 -21 205 27 111 103 c 1
 169 226 l 1
 245 168 372 117 511 117 c 0
 802 117 958 336 984 604 c 1
 357 604 l 1
 357 744 l 1
 986 744 l 1
 970 1011 835 1249 500 1249 c 0
 364 1249 243 1198 168 1138 c 1
 116 1269 l 1
 208 1349 341 1388 521 1388 c 0
 943 1388 1159 1074 1159 689 c 0
 1159 287 939 -21 519 -21 c 0
EndSplineSet
EndChar

StartChar: afii10048
Encoding: 554 1070 204
Width: 1885
VWidth: 0
Flags: HW
PickledData: "(dp1
S'com.typemytype.robofont.layerData'
p2
(dp3
S'b'
(dp4
S'name'
p5
S'afii10048'
p6
sS'lib'
p7
(dp8
sS'unicodes'
p9
(tsS'width'
p10
I1885
sS'contours'
p11
(tsS'components'
p12
(tsS'anchors'
p13
(tsss."
LayerCount: 2
Fore
SplineSet
1178 117 m 0
 1459 117 1597 378 1597 681 c 0
 1597 969 1458 1249 1169 1249 c 0
 889 1249 753 977 753 679 c 0
 753 382 896 117 1178 117 c 0
1176 -21 m 0
 816 -21 608 268 582 624 c 1
 298 624 l 1
 298 0 l 1
 136 0 l 1
 136 1360 l 1
 298 1360 l 1
 298 762 l 1
 585 762 l 1
 614 1129 816 1388 1168 1388 c 0
 1549 1388 1769 1082 1769 675 c 0
 1769 293 1558 -21 1176 -21 c 0
EndSplineSet
EndChar

StartChar: afii10049
Encoding: 555 1071 205
Width: 1262
VWidth: 0
Flags: HW
PickledData: "(dp1
S'com.typemytype.robofont.layerData'
p2
(dp3
S'b'
(dp4
S'name'
p5
S'afii10049'
p6
sS'lib'
p7
(dp8
sS'unicodes'
p9
(tsS'width'
p10
I1262
sS'contours'
p11
(tsS'components'
p12
(tsS'anchors'
p13
(tsss."
LayerCount: 2
Fore
SplineSet
978 706 m 1
 978 1205 l 1
 693 1205 l 2
 463 1205 366 1121 366 961 c 0
 366 807 437 706 693 706 c 2
 978 706 l 1
328 0 m 1
 133 0 l 1
 183 106 382 486 440 602 c 1
 286 660 192 779 192 954 c 0
 192 1217 374 1346 710 1346 c 2
 1152 1346 l 1
 1152 0 l 1
 978 0 l 1
 978 566 l 1
 823 566 l 2
 685 566 637 569 602 572 c 1
 507 375 423 197 328 0 c 1
EndSplineSet
EndChar

StartChar: afii10051
Encoding: 510 1026 206
Width: 1088
VWidth: 0
Flags: HW
PickledData: "(dp1
S'com.typemytype.robofont.layerData'
p2
(dp3
S'b'
(dp4
S'name'
p5
S'afii10051'
p6
sS'lib'
p7
(dp8
sS'unicodes'
p9
(tsS'width'
p10
I1088
sS'contours'
p11
(tsS'components'
p12
(tsS'anchors'
p13
(tsss."
LayerCount: 2
Fore
SplineSet
39 1390 m 1
 1049 1390 l 1
 1049 1251 l 1
 633 1251 l 1
 633 0 l 1
 454 0 l 1
 454 1251 l 1
 39 1251 l 1
 39 1390 l 1
EndSplineSet
EndChar

StartChar: afii10052
Encoding: 511 1027 207
Width: 1047
VWidth: 0
Flags: HW
PickledData: "(dp1
S'com.typemytype.robofont.layerData'
p2
(dp3
S'b'
(dp4
S'name'
p5
S'afii10052'
p6
sS'lib'
p7
(dp8
sS'unicodes'
p9
(tsS'width'
p10
I1047
sS'contours'
p11
(tsS'components'
p12
(tsS'anchors'
p13
(tsss."
LayerCount: 2
Fore
SplineSet
995 1205 m 1
 334 1205 l 1
 334 0 l 1
 160 0 l 1
 160 1346 l 1
 1008 1346 l 1
 995 1205 l 1
EndSplineSet
EndChar

StartChar: afii10053
Encoding: 512 1028 208
Width: 1268
VWidth: 0
Flags: HW
PickledData: "(dp1
S'com.typemytype.robofont.layerData'
p2
(dp3
S'b'
(dp4
S'name'
p5
S'afii10053'
p6
sS'lib'
p7
(dp8
sS'unicodes'
p9
(tsS'width'
p10
I1268
sS'contours'
p11
(tsS'components'
p12
(tsS'anchors'
p13
(tsss."
LayerCount: 2
Fore
SplineSet
754 -21 m 0
 334 -21 114 287 114 689 c 0
 114 1074 332 1388 760 1388 c 0
 937 1388 1068 1349 1158 1269 c 1
 1105 1138 l 1
 1030 1198 909 1249 773 1249 c 0
 438 1249 304 1011 288 744 c 1
 916 744 l 1
 916 604 l 1
 289 604 l 1
 315 336 472 117 763 117 c 0
 902 117 1028 168 1104 226 c 1
 1162 103 l 1
 1068 27 933 -21 754 -21 c 0
EndSplineSet
EndChar

StartChar: afii10054
Encoding: 513 1029 209
Width: 1200
VWidth: 0
Flags: HW
PickledData: "(dp1
S'com.typemytype.robofont.layerData'
p2
(dp3
S'b'
(dp4
S'name'
p5
S'afii10054'
p6
sS'lib'
p7
(dp8
sS'unicodes'
p9
(tsS'width'
p10
I1200
sS'contours'
p11
(tsS'components'
p12
(tsS'anchors'
p13
(tsss."
LayerCount: 2
Fore
SplineSet
607 -20 m 0
 370 -20 202 40 119 91 c 1
 167 222 l 1
 289 162 443 118 617 118 c 0
 810 118 915 204 915 388 c 0
 915 497 868 570 695 614 c 2
 428 682 l 2
 241 729 121 829 121 1009 c 0
 121 1274 320 1366 618 1366 c 0
 785 1366 932 1336 1025 1278 c 1
 979 1155 l 1
 884 1201 770 1228 623 1228 c 0
 406 1228 288 1173 288 1020 c 0
 288 914 356 856 487 824 c 2
 743 763 l 2
 947 714 1082 615 1082 393 c 0
 1082 110 885 -20 607 -20 c 0
EndSplineSet
EndChar

StartChar: afii10055
Encoding: 514 1030 210
Width: 432
VWidth: 0
Flags: HW
PickledData: "(dp1
S'com.typemytype.robofont.layerData'
p2
(dp3
S'b'
(dp4
S'name'
p5
S'afii10055'
p6
sS'lib'
p7
(dp8
sS'unicodes'
p9
(tsS'width'
p10
I432
sS'contours'
p11
(tsS'components'
p12
(tsS'anchors'
p13
(tsss."
LayerCount: 2
Fore
SplineSet
136 0 m 1
 136 1362 l 1
 297 1362 l 1
 297 0 l 1
 136 0 l 1
EndSplineSet
EndChar

StartChar: afii10056
Encoding: 515 1031 211
Width: 432
VWidth: 0
Flags: HW
PickledData: "(dp1
S'com.typemytype.robofont.layerData'
p2
(dp3
S'b'
(dp4
S'name'
p5
S'afii10056'
p6
sS'lib'
p7
(dp8
sS'unicodes'
p9
(tsS'width'
p10
I432
sS'contours'
p11
(tsS'components'
p12
(tsS'anchors'
p13
(tsss."
LayerCount: 2
Fore
SplineSet
324 1576 m 1
 324 1769 l 1
 464 1769 l 1
 464 1576 l 1
 324 1576 l 1
-32 1576 m 1
 -32 1769 l 1
 110 1769 l 1
 110 1576 l 1
 -32 1576 l 1
136 0 m 1
 136 1362 l 1
 297 1362 l 1
 297 0 l 1
 136 0 l 1
EndSplineSet
EndChar

StartChar: afii10057
Encoding: 516 1032 212
Width: 632
VWidth: 0
Flags: HW
PickledData: "(dp1
S'com.typemytype.robofont.layerData'
p2
(dp3
S'b'
(dp4
S'name'
p5
S'afii10057'
p6
sS'lib'
p7
(dp8
sS'unicodes'
p9
(tsS'width'
p10
I632
sS'contours'
p11
(tsS'components'
p12
(tsS'anchors'
p13
(tsss."
LayerCount: 2
Fore
SplineSet
100 -195 m 1
 81 -45 l 1
 148 -45 l 2
 314 -45 323 51 323 186 c 2
 323 1346 l 1
 498 1346 l 1
 498 219 l 2
 498 -61 452 -195 132 -195 c 2
 100 -195 l 1
EndSplineSet
EndChar

StartChar: afii10058
Encoding: 517 1033 213
Width: 1755
VWidth: 0
Flags: HW
PickledData: "(dp1
S'com.typemytype.robofont.layerData'
p2
(dp3
S'b'
(dp4
S'name'
p5
S'afii10058'
p6
sS'lib'
p7
(dp8
sS'unicodes'
p9
(tsS'width'
p10
I1755
sS'contours'
p11
(tsS'components'
p12
(tsS'anchors'
p13
(tsss."
LayerCount: 2
Fore
SplineSet
992 652 m 1
 992 141 l 1
 1227 141 l 2
 1377 141 1479 232 1479 392 c 0
 1479 552 1381 652 1227 652 c 2
 992 652 l 1
78 -24 m 1
 78 119 l 1
 120 119 l 2
 285 119 294 214 294 349 c 2
 294 1346 l 1
 992 1346 l 1
 992 793 l 1
 1227 793 l 2
 1478 793 1653 676 1653 389 c 0
 1653 126 1485 0 1227 0 c 2
 818 0 l 1
 818 1205 l 1
 468 1205 l 1
 468 394 l 2
 468 114 424 -24 104 -24 c 2
 78 -24 l 1
EndSplineSet
EndChar

StartChar: afii10059
Encoding: 518 1034 214
Width: 1853
VWidth: 0
Flags: HW
PickledData: "(dp1
S'com.typemytype.robofont.layerData'
p2
(dp3
S'b'
(dp4
S'name'
p5
S'afii10059'
p6
sS'lib'
p7
(dp8
sS'unicodes'
p9
(tsS'width'
p10
I1853
sS'contours'
p11
(tsS'components'
p12
(tsS'anchors'
p13
(tsss."
LayerCount: 2
Fore
SplineSet
334 630 m 1
 334 0 l 1
 160 0 l 1
 160 1346 l 1
 334 1346 l 1
 334 768 l 1
 946 768 l 1
 946 1346 l 1
 1120 1346 l 1
 1120 779 l 1
 1340 779 l 2
 1664 779 1792 628 1792 393 c 0
 1792 155 1664 0 1334 0 c 2
 946 0 l 1
 946 630 l 1
 334 630 l 1
1335 653 m 2
 1120 653 l 1
 1120 129 l 1
 1343 129 l 2
 1529 129 1627 212 1627 392 c 0
 1627 573 1527 653 1335 653 c 2
EndSplineSet
EndChar

StartChar: afii10060
Encoding: 519 1035 215
Width: 1088
VWidth: 0
Flags: HW
PickledData: "(dp1
S'com.typemytype.robofont.layerData'
p2
(dp3
S'b'
(dp4
S'name'
p5
S'afii10060'
p6
sS'lib'
p7
(dp8
sS'unicodes'
p9
(tsS'width'
p10
I1088
sS'contours'
p11
(tsS'components'
p12
(tsS'anchors'
p13
(tsss."
LayerCount: 2
Fore
SplineSet
39 1390 m 1
 1049 1390 l 1
 1049 1251 l 1
 633 1251 l 1
 633 0 l 1
 454 0 l 1
 454 1251 l 1
 39 1251 l 1
 39 1390 l 1
EndSplineSet
EndChar

StartChar: afii10061
Encoding: 520 1036 216
Width: 1243
VWidth: 0
Flags: HW
PickledData: "(dp1
S'com.typemytype.robofont.layerData'
p2
(dp3
S'b'
(dp4
S'name'
p5
S'afii10061'
p6
sS'lib'
p7
(dp8
sS'unicodes'
p9
(tsS'width'
p10
I1243
sS'contours'
p11
(tsS'components'
p12
(tsS'anchors'
p13
(tsss."
LayerCount: 2
Fore
SplineSet
593 1576 m 1
 763 1929 l 1
 993 1929 l 1
 697 1576 l 1
 593 1576 l 1
334 0 m 1
 160 0 l 1
 160 1346 l 1
 334 1346 l 1
 334 739 l 1
 881 1346 l 1
 1101 1346 l 1
 496 672 l 1
 1130 0 l 1
 895 0 l 1
 334 607 l 1
 334 0 l 1
EndSplineSet
EndChar

StartChar: afii10062
Encoding: 522 1038 217
Width: 1248
VWidth: 0
Flags: HW
PickledData: "(dp1
S'com.typemytype.robofont.layerData'
p2
(dp3
S'b'
(dp4
S'name'
p5
S'afii10062'
p6
sS'lib'
p7
(dp8
sS'unicodes'
p9
(tsS'width'
p10
I1248
sS'contours'
p11
(tsS'components'
p12
(tsS'anchors'
p13
(tsss."
LayerCount: 2
Fore
SplineSet
869 1798 m 1
 869 1641 752 1576 639 1576 c 0
 527 1576 412 1641 412 1798 c 1
 518 1798 l 1
 518 1711 573 1670 639 1670 c 0
 705 1670 763 1711 763 1798 c 1
 869 1798 l 1
255 1346 m 1
 670 580 l 1
 1029 1346 l 1
 1217 1346 l 1
 577 0 l 1
 390 0 l 1
 567 424 l 1
 64 1346 l 1
 255 1346 l 1
EndSplineSet
EndChar

StartChar: afii10065
Encoding: 556 1072 218
Width: 1054
VWidth: 0
Flags: HW
PickledData: "(dp1
S'com.typemytype.robofont.layerData'
p2
(dp3
S'b'
(dp4
S'name'
p5
S'afii10065'
p6
sS'lib'
p7
(dp8
sS'unicodes'
p9
(tsS'width'
p10
I1054
sS'contours'
p11
(tsS'components'
p12
(tsS'anchors'
p13
(tsss."
LayerCount: 2
Fore
SplineSet
301 262 m 0
 301 152 378 102 461 102 c 0
 582 102 735 165 767 251 c 1
 767 490 l 1
 767 490 674 481 651 478 c 0
 390 447 301 402 301 262 c 0
774 112 m 1
 713 22 572 -21 438 -21 c 0
 262 -21 127 79 127 263 c 0
 127 478 307 562 592 583 c 0
 638 587 767 597 767 597 c 1
 767 685 l 2
 767 823 697 886 554 886 c 0
 458 886 321 858 227 812 c 1
 219 831 187 916 180 935 c 1
 266 983 421 1019 550 1019 c 0
 794 1019 942 927 942 661 c 2
 942 0 l 1
 801 0 l 1
 774 112 l 1
EndSplineSet
EndChar

StartChar: afii10065.copy_1
Encoding: 666 -1 219
Width: 1054
VWidth: 0
Flags: HW
PickledData: "(dp1
S'com.typemytype.robofont.layerData'
p2
(dp3
S'b'
(dp4
S'name'
p5
S'afii10065.copy_1'
p6
sS'lib'
p7
(dp8
sS'unicodes'
p9
(tsS'width'
p10
I1054
sS'contours'
p11
(tsS'components'
p12
(tsS'anchors'
p13
(tsss."
LayerCount: 2
Fore
SplineSet
301 262 m 0
 301 152 378 102 461 102 c 0
 582 102 735 165 767 251 c 1
 767 490 l 1
 767 490 674 481 651 478 c 0
 390 447 301 402 301 262 c 0
774 112 m 1
 713 22 572 -21 438 -21 c 0
 262 -21 127 79 127 263 c 0
 127 478 307 562 592 583 c 0
 638 587 767 597 767 597 c 1
 767 685 l 2
 767 823 697 886 554 886 c 0
 458 886 321 858 227 812 c 1
 219 831 187 916 180 935 c 1
 266 983 421 1019 550 1019 c 0
 794 1019 942 927 942 661 c 2
 942 0 l 1
 801 0 l 1
 774 112 l 1
EndSplineSet
EndChar

StartChar: afii10066
Encoding: 557 1073 220
Width: 983
VWidth: 0
Flags: HW
PickledData: "(dp1
S'com.typemytype.robofont.layerData'
p2
(dp3
S'b'
(dp4
S'name'
p5
S'afii10066'
p6
sS'lib'
p7
(dp8
sS'unicodes'
p9
(tsS'width'
p10
I983
sS'contours'
p11
(tsS'components'
p12
(tsS'anchors'
p13
(tsss."
LayerCount: 2
Fore
SplineSet
516 112 m 0
 695 112 776 208 776 399 c 0
 776 550 681 653 547 653 c 0
 489 653 358 625 264 528 c 1
 261 502 260 478 260 455 c 0
 260 220 384 112 516 112 c 0
521 -18 m 0
 137 -18 89 354 89 484 c 0
 89 886 300 1145 803 1165 c 1
 824 1036 l 1
 526 1027 322 915 274 680 c 1
 364 733 450 778 562 778 c 0
 794 778 924 583 924 396 c 0
 924 163 766 -18 521 -18 c 0
EndSplineSet
EndChar

StartChar: afii10067
Encoding: 558 1074 221
Width: 1041
VWidth: 0
Flags: HW
PickledData: "(dp1
S'com.typemytype.robofont.layerData'
p2
(dp3
S'b'
(dp4
S'name'
p5
S'afii10067'
p6
sS'lib'
p7
(dp8
sS'unicodes'
p9
(tsS'width'
p10
I1041
sS'contours'
p11
(tsS'components'
p12
(tsS'anchors'
p13
(tsss."
LayerCount: 2
Fore
SplineSet
324 870 m 1
 324 580 l 1
 599 580 l 2
 720 580 753 654 753 724 c 0
 753 807 708 870 587 870 c 2
 324 870 l 1
324 455 m 1
 324 122 l 1
 590 122 l 2
 748 122 785 189 785 293 c 0
 785 369 760 455 605 455 c 2
 324 455 l 1
149 0 m 1
 149 999 l 1
 595 999 l 2
 831 999 928 883 928 748 c 0
 928 645 883 574 756 533 c 1
 908 497 960 376 960 288 c 0
 960 137 861 0 595 0 c 2
 149 0 l 1
EndSplineSet
EndChar

StartChar: afii10068
Encoding: 559 1075 222
Width: 846
VWidth: 0
Flags: HW
PickledData: "(dp1
S'com.typemytype.robofont.layerData'
p2
(dp3
S'b'
(dp4
S'name'
p5
S'afii10068'
p6
sS'lib'
p7
(dp8
sS'unicodes'
p9
(tsS'width'
p10
I846
sS'contours'
p11
(tsS'components'
p12
(tsS'anchors'
p13
(tsss."
LayerCount: 2
Fore
SplineSet
779 878 m 1
 324 878 l 1
 324 0 l 1
 149 0 l 1
 149 999 l 1
 790 999 l 1
 779 878 l 1
EndSplineSet
EndChar

StartChar: afii10069
Encoding: 560 1076 223
Width: 1119
VWidth: 0
Flags: HW
PickledData: "(dp1
S'com.typemytype.robofont.layerData'
p2
(dp3
S'b'
(dp4
S'name'
p5
S'afii10069'
p6
sS'lib'
p7
(dp8
sS'unicodes'
p9
(tsS'width'
p10
I1119
sS'contours'
p11
(tsS'components'
p12
(tsS'anchors'
p13
(tsss."
LayerCount: 2
Fore
SplineSet
795 878 m 1
 489 878 l 1
 434 478 l 2
 408 292 357 153 322 120 c 1
 795 120 l 1
 795 878 l 1
45 -275 m 1
 45 120 l 1
 133 120 l 1
 202 175 238 306 259 451 c 2
 337 999 l 1
 970 999 l 1
 970 120 l 1
 1049 120 l 1
 1049 -275 l 1
 901 -275 l 1
 901 0 l 1
 189 0 l 1
 189 -275 l 1
 45 -275 l 1
EndSplineSet
EndChar

StartChar: afii10069.copy_1
Encoding: 667 -1 224
Width: 1108
VWidth: 0
Flags: HW
PickledData: "(dp1
S'com.typemytype.robofont.layerData'
p2
(dp3
S'b'
(dp4
S'name'
p5
S'afii10069.copy_1'
p6
sS'lib'
p7
(dp8
sS'unicodes'
p9
(tsS'width'
p10
I1108
sS'contours'
p11
(tsS'components'
p12
(tsS'anchors'
p13
(tsss."
LayerCount: 2
Fore
SplineSet
795 878 m 1
 483 878 l 1
 428 478 l 2
 402 292 351 153 316 120 c 1
 795 120 l 1
 795 878 l 1
39 -275 m 1
 39 120 l 1
 127 120 l 1
 196 175 232 306 253 451 c 2
 331 999 l 1
 970 999 l 1
 970 120 l 1
 1049 120 l 1
 1049 -275 l 1
 901 -275 l 1
 901 0 l 1
 183 0 l 1
 183 -275 l 1
 39 -275 l 1
EndSplineSet
EndChar

StartChar: afii10070
Encoding: 561 1077 225
Width: 1108
VWidth: 0
Flags: HW
PickledData: "(dp1
S'com.typemytype.robofont.layerData'
p2
(dp3
S'b'
(dp4
S'name'
p5
S'afii10070'
p6
sS'lib'
p7
(dp8
sS'unicodes'
p9
(tsS'width'
p10
I1108
sS'contours'
p11
(tsS'components'
p12
(tsS'anchors'
p13
(tsss."
LayerCount: 2
Fore
SplineSet
956 65 m 1
 860 7 746 -21 597 -21 c 0
 308 -21 103 176 103 496 c 0
 103 805 315 1019 578 1019 c 0
 835 1019 978 832 978 553 c 0
 978 530 972 469 972 469 c 1
 275 469 l 1
 279 240 432 112 622 112 c 0
 747 112 844 151 932 197 c 1
 956 65 l 1
583 888 m 0
 427 888 296 772 279 582 c 1
 814 582 l 1
 809 779 744 888 583 888 c 0
EndSplineSet
EndChar

StartChar: afii10070.copy_1
Encoding: 668 -1 226
Width: 1108
VWidth: 0
Flags: HW
PickledData: "(dp1
S'com.typemytype.robofont.layerData'
p2
(dp3
S'b'
(dp4
S'name'
p5
S'afii10070.copy_1'
p6
sS'lib'
p7
(dp8
sS'unicodes'
p9
(tsS'width'
p10
I1108
sS'contours'
p11
(tsS'components'
p12
(tsS'anchors'
p13
(tsss."
LayerCount: 2
Fore
SplineSet
956 65 m 1
 860 7 746 -21 597 -21 c 0
 308 -21 103 176 103 496 c 0
 103 805 315 1019 578 1019 c 0
 835 1019 978 832 978 553 c 0
 978 530 972 469 972 469 c 1
 275 469 l 1
 279 240 432 112 622 112 c 0
 747 112 844 151 932 197 c 1
 956 65 l 1
583 888 m 0
 427 888 296 772 279 582 c 1
 814 582 l 1
 809 779 744 888 583 888 c 0
EndSplineSet
EndChar

StartChar: afii10071
Encoding: 589 1105 227
Width: 1108
VWidth: 0
Flags: HW
PickledData: "(dp1
S'com.typemytype.robofont.layerData'
p2
(dp3
S'b'
(dp4
S'name'
p5
S'afii10071'
p6
sS'lib'
p7
(dp8
sS'unicodes'
p9
(tsS'width'
p10
I1108
sS'contours'
p11
(tsS'components'
p12
(tsS'anchors'
p13
(tsss."
LayerCount: 2
Fore
SplineSet
956 65 m 1
 860 7 746 -21 597 -21 c 0
 308 -21 103 176 103 496 c 0
 103 805 315 1019 578 1019 c 0
 835 1019 978 832 978 553 c 0
 978 530 972 469 972 469 c 1
 275 469 l 1
 279 240 432 112 622 112 c 0
 747 112 844 151 932 197 c 1
 956 65 l 1
583 888 m 0
 427 888 296 772 279 582 c 1
 814 582 l 1
 809 779 744 888 583 888 c 0
640 1182 m 1
 640 1375 l 1
 782 1375 l 1
 782 1182 l 1
 640 1182 l 1
286 1182 m 1
 286 1375 l 1
 426 1375 l 1
 426 1182 l 1
 286 1182 l 1
EndSplineSet
EndChar

StartChar: afii10072
Encoding: 562 1078 228
Width: 1415
VWidth: 0
Flags: HW
PickledData: "(dp1
S'com.typemytype.robofont.layerData'
p2
(dp3
S'b'
(dp4
S'name'
p5
S'afii10072'
p6
sS'lib'
p7
(dp8
sS'unicodes'
p9
(tsS'width'
p10
I1415
sS'contours'
p11
(tsS'components'
p12
(tsS'anchors'
p13
(tsss."
LayerCount: 2
Fore
SplineSet
623 550 m 1
 623 999 l 1
 791 999 l 1
 791 550 l 1
 1188 999 l 1
 1369 999 l 1
 921 511 l 1
 1378 0 l 1
 1193 0 l 1
 791 460 l 1
 791 0 l 1
 623 0 l 1
 623 460 l 1
 222 0 l 1
 37 0 l 1
 494 511 l 1
 46 999 l 1
 228 999 l 1
 623 550 l 1
EndSplineSet
EndChar

StartChar: afii10073
Encoding: 563 1079 229
Width: 865
VWidth: 0
Flags: HW
PickledData: "(dp1
S'com.typemytype.robofont.layerData'
p2
(dp3
S'b'
(dp4
S'name'
p5
S'afii10073'
p6
sS'lib'
p7
(dp8
sS'unicodes'
p9
(tsS'width'
p10
I865
sS'contours'
p11
(tsS'components'
p12
(tsS'anchors'
p13
(tsss."
LayerCount: 2
Fore
SplineSet
780 270 m 0
 780 112 627 -18 401 -18 c 0
 293 -18 182 3 98 70 c 1
 133 193 l 1
 190 149 301 112 401 112 c 0
 529 112 611 183 611 283 c 0
 611 371 555 457 395 457 c 2
 268 457 l 1
 268 576 l 1
 395 576 l 2
 529 576 591 648 591 726 c 0
 591 825 524 886 386 886 c 0
 288 886 193 851 132 807 c 1
 132 807 101 893 88 925 c 1
 172 995 295 1019 402 1019 c 0
 653 1019 748 884 748 745 c 0
 748 660 723 566 597 522 c 1
 722 480 780 379 780 270 c 0
EndSplineSet
EndChar

StartChar: afii10074
Encoding: 564 1080 230
Width: 1066
VWidth: 0
Flags: HW
PickledData: "(dp1
S'com.typemytype.robofont.layerData'
p2
(dp3
S'b'
(dp4
S'name'
p5
S'afii10074'
p6
sS'lib'
p7
(dp8
sS'unicodes'
p9
(tsS'width'
p10
I1066
sS'contours'
p11
(tsS'components'
p12
(tsS'anchors'
p13
(tsss."
LayerCount: 2
Fore
SplineSet
283 238 m 1
 784 905 l 1
 784 999 l 1
 937 999 l 1
 937 0 l 1
 784 0 l 1
 784 679 l 1
 274 0 l 1
 130 0 l 1
 130 999 l 1
 283 999 l 1
 283 238 l 1
EndSplineSet
EndChar

StartChar: afii10075
Encoding: 565 1081 231
Width: 1066
VWidth: 0
Flags: HW
PickledData: "(dp1
S'com.typemytype.robofont.layerData'
p2
(dp3
S'b'
(dp4
S'name'
p5
S'afii10075'
p6
sS'lib'
p7
(dp8
sS'unicodes'
p9
(tsS'width'
p10
I1066
sS'contours'
p11
(tsS'components'
p12
(tsS'anchors'
p13
(tsss."
LayerCount: 2
Fore
SplineSet
656 1363 m 1
 762 1363 l 1
 762 1206 645 1141 532 1141 c 0
 420 1141 305 1206 305 1363 c 1
 411 1363 l 1
 411 1276 466 1235 532 1235 c 0
 598 1235 656 1276 656 1363 c 1
283 999 m 1
 283 238 l 1
 784 905 l 1
 784 999 l 1
 937 999 l 1
 937 0 l 1
 784 0 l 1
 784 679 l 1
 274 0 l 1
 130 0 l 1
 130 999 l 1
 283 999 l 1
EndSplineSet
EndChar

StartChar: afii10076
Encoding: 566 1082 232
Width: 1064
VWidth: 0
Flags: HW
PickledData: "(dp1
S'com.typemytype.robofont.layerData'
p2
(dp3
S'b'
(dp4
S'name'
p5
S'afii10076'
p6
sS'lib'
p7
(dp8
sS'unicodes'
p9
(tsS'width'
p10
I1064
sS'contours'
p11
(tsS'components'
p12
(tsS'anchors'
p13
(tsss."
LayerCount: 2
Fore
SplineSet
149 999 m 1
 324 999 l 1
 324 560 l 1
 725 998 l 1
 940 998 l 1
 473 502 l 1
 990 0 l 1
 774 0 l 1
 324 439 l 1
 324 0 l 1
 149 0 l 1
 149 999 l 1
EndSplineSet
EndChar

StartChar: afii10077
Encoding: 567 1083 233
Width: 1128
VWidth: 0
Flags: HW
PickledData: "(dp1
S'com.typemytype.robofont.layerData'
p2
(dp3
S'b'
(dp4
S'name'
p5
S'afii10077'
p6
sS'lib'
p7
(dp8
sS'unicodes'
p9
(tsS'width'
p10
I1128
sS'contours'
p11
(tsS'components'
p12
(tsS'anchors'
p13
(tsss."
LayerCount: 2
Fore
SplineSet
804 0 m 1
 804 870 l 1
 493 870 l 1
 434 454 l 2
 393 167 333 -14 62 -14 c 1
 48 118 l 1
 192 118 227 187 268 480 c 2
 341 999 l 1
 979 999 l 1
 979 0 l 1
 804 0 l 1
EndSplineSet
EndChar

StartChar: afii10077.copy_1
Encoding: 669 -1 234
Width: 1128
VWidth: 0
Flags: HW
PickledData: "(dp1
S'com.typemytype.robofont.layerData'
p2
(dp3
S'b'
(dp4
S'name'
p5
S'afii10077.copy_1'
p6
sS'lib'
p7
(dp8
sS'unicodes'
p9
(tsS'width'
p10
I1128
sS'contours'
p11
(tsS'components'
p12
(tsS'anchors'
p13
(tsss."
LayerCount: 2
Fore
SplineSet
804 0 m 1
 804 870 l 1
 493 870 l 1
 434 454 l 2
 393 167 333 -14 62 -14 c 1
 48 118 l 1
 192 118 227 187 268 480 c 2
 341 999 l 1
 979 999 l 1
 979 0 l 1
 804 0 l 1
EndSplineSet
EndChar

StartChar: afii10078
Encoding: 568 1084 235
Width: 1171
VWidth: 0
Flags: HW
PickledData: "(dp1
S'com.typemytype.robofont.layerData'
p2
(dp3
S'b'
(dp4
S'name'
p5
S'afii10078'
p6
sS'lib'
p7
(dp8
sS'unicodes'
p9
(tsS'width'
p10
I1171
sS'contours'
p11
(tsS'components'
p12
(tsS'anchors'
p13
(tsss."
LayerCount: 2
Fore
SplineSet
870 999 m 1
 1022 999 l 1
 1022 0 l 1
 869 0 l 1
 869 711 l 1
 640 205 l 1
 543 205 l 1
 302 711 l 1
 302 0 l 1
 149 0 l 1
 149 999 l 1
 302 999 l 1
 585 385 l 1
 870 999 l 1
EndSplineSet
EndChar

StartChar: afii10078.copy_1
Encoding: 670 -1 236
Width: 1171
VWidth: 0
Flags: HW
PickledData: "(dp1
S'com.typemytype.robofont.layerData'
p2
(dp3
S'b'
(dp4
S'name'
p5
S'afii10078.copy_1'
p6
sS'lib'
p7
(dp8
sS'unicodes'
p9
(tsS'width'
p10
I1171
sS'contours'
p11
(tsS'components'
p12
(tsS'anchors'
p13
(tsss."
LayerCount: 2
Fore
SplineSet
870 999 m 1
 1022 999 l 1
 1022 0 l 1
 869 0 l 1
 869 711 l 1
 640 205 l 1
 543 205 l 1
 302 711 l 1
 302 0 l 1
 149 0 l 1
 149 999 l 1
 302 999 l 1
 585 385 l 1
 870 999 l 1
EndSplineSet
EndChar

StartChar: afii10079
Encoding: 569 1085 237
Width: 1143
VWidth: 0
Flags: HW
PickledData: "(dp1
S'com.typemytype.robofont.layerData'
p2
(dp3
S'b'
(dp4
S'name'
p5
S'afii10079'
p6
sS'lib'
p7
(dp8
sS'unicodes'
p9
(tsS'width'
p10
I1143
sS'contours'
p11
(tsS'components'
p12
(tsS'anchors'
p13
(tsss."
LayerCount: 2
Fore
SplineSet
819 594 m 1
 819 999 l 1
 994 999 l 1
 994 0 l 1
 819 0 l 1
 819 471 l 1
 324 471 l 1
 324 0 l 1
 149 0 l 1
 149 999 l 1
 324 999 l 1
 324 594 l 1
 819 594 l 1
EndSplineSet
EndChar

StartChar: afii10079.copy_1
Encoding: 671 -1 238
Width: 1104
VWidth: 0
Flags: HW
PickledData: "(dp1
S'com.typemytype.robofont.layerData'
p2
(dp3
S'b'
(dp4
S'name'
p5
S'afii10079.copy_1'
p6
sS'lib'
p7
(dp8
sS'unicodes'
p9
(tsS'width'
p10
I1104
sS'contours'
p11
(tsS'components'
p12
(tsS'anchors'
p13
(tsss."
LayerCount: 2
Fore
SplineSet
800 594 m 1
 800 999 l 1
 975 999 l 1
 975 0 l 1
 800 0 l 1
 800 471 l 1
 305 471 l 1
 305 0 l 1
 130 0 l 1
 130 999 l 1
 305 999 l 1
 305 594 l 1
 800 594 l 1
EndSplineSet
EndChar

StartChar: afii10080
Encoding: 570 1086 239
Width: 1138
VWidth: 0
Flags: HW
PickledData: "(dp1
S'com.typemytype.robofont.layerData'
p2
(dp3
S'b'
(dp4
S'name'
p5
S'afii10080'
p6
sS'lib'
p7
(dp8
sS'unicodes'
p9
(tsS'width'
p10
I1138
sS'contours'
p11
(tsS'components'
p12
(tsS'anchors'
p13
(tsss."
LayerCount: 2
Fore
SplineSet
277 497 m 0
 277 279 362 112 569 112 c 0
 776 112 860 279 860 497 c 0
 860 719 775 886 569 886 c 0
 363 886 277 719 277 497 c 0
1035 499 m 0
 1035 200 854 -21 569 -21 c 0
 284 -21 103 200 103 499 c 0
 103 804 274 1019 569 1019 c 0
 864 1019 1035 804 1035 499 c 0
EndSplineSet
EndChar

StartChar: afii10080.copy_1
Encoding: 672 -1 240
Width: 1138
VWidth: 0
Flags: HW
PickledData: "(dp1
S'com.typemytype.robofont.layerData'
p2
(dp3
S'b'
(dp4
S'name'
p5
S'afii10080.copy_1'
p6
sS'lib'
p7
(dp8
sS'unicodes'
p9
(tsS'width'
p10
I1138
sS'contours'
p11
(tsS'components'
p12
(tsS'anchors'
p13
(tsss."
LayerCount: 2
Fore
SplineSet
277 497 m 0
 277 279 362 112 569 112 c 0
 776 112 860 279 860 497 c 0
 860 719 775 886 569 886 c 0
 363 886 277 719 277 497 c 0
1035 499 m 0
 1035 200 854 -21 569 -21 c 0
 284 -21 103 200 103 499 c 0
 103 804 274 1019 569 1019 c 0
 864 1019 1035 804 1035 499 c 0
EndSplineSet
EndChar

StartChar: afii10081
Encoding: 571 1087 241
Width: 1066
VWidth: 0
Flags: HW
PickledData: "(dp1
S'com.typemytype.robofont.layerData'
p2
(dp3
S'b'
(dp4
S'name'
p5
S'afii10081'
p6
sS'lib'
p7
(dp8
sS'unicodes'
p9
(tsS'width'
p10
I1066
sS'contours'
p11
(tsS'components'
p12
(tsS'anchors'
p13
(tsss."
LayerCount: 2
Fore
SplineSet
784 0 m 1
 784 870 l 1
 283 870 l 1
 283 0 l 1
 130 0 l 1
 130 999 l 1
 937 999 l 1
 937 0 l 1
 784 0 l 1
EndSplineSet
EndChar

StartChar: afii10082
Encoding: 572 1088 242
Width: 1177
VWidth: 0
Flags: HW
PickledData: "(dp1
S'com.typemytype.robofont.layerData'
p2
(dp3
S'b'
(dp4
S'name'
p5
S'afii10082'
p6
sS'lib'
p7
(dp8
sS'unicodes'
p9
(tsS'width'
p10
I1177
sS'contours'
p11
(tsS'components'
p12
(tsS'anchors'
p13
(tsss."
LayerCount: 2
Fore
SplineSet
599 107 m 0
 790 107 890 261 890 500 c 0
 890 734 794 890 600 890 c 0
 394 890 308 746 308 516 c 0
 308 257 384 107 599 107 c 0
133 998 m 1
 291 998 l 1
 308 835 l 1
 363 953 489 1019 626 1019 c 0
 905 1019 1065 800 1065 494 c 0
 1065 196 887 -21 627 -21 c 0
 495 -21 369 43 303 136 c 1
 307 70 308 7 308 -55 c 2
 308 -423 l 1
 133 -433 l 1
 133 998 l 1
EndSplineSet
EndChar

StartChar: afii10083
Encoding: 573 1089 243
Width: 945
VWidth: 0
Flags: HW
PickledData: "(dp1
S'com.typemytype.robofont.layerData'
p2
(dp3
S'b'
(dp4
S'name'
p5
S'afii10083'
p6
sS'lib'
p7
(dp8
sS'unicodes'
p9
(tsS'width'
p10
I945
sS'contours'
p11
(tsS'components'
p12
(tsS'anchors'
p13
(tsss."
LayerCount: 2
Fore
SplineSet
852 51 m 1
 786 3 681 -21 581 -21 c 0
 300 -21 103 195 103 496 c 0
 103 810 307 1019 587 1019 c 0
 692 1019 803 990 858 950 c 1
 816 832 l 1
 745 870 676 886 610 886 c 0
 400 886 277 733 277 495 c 0
 277 265 396 112 610 112 c 0
 696 112 757 138 829 175 c 1
 852 51 l 1
EndSplineSet
EndChar

StartChar: afii10084
Encoding: 574 1090 244
Width: 883
VWidth: 0
Flags: HW
PickledData: "(dp1
S'com.typemytype.robofont.layerData'
p2
(dp3
S'b'
(dp4
S'name'
p5
S'afii10084'
p6
sS'lib'
p7
(dp8
sS'unicodes'
p9
(tsS'width'
p10
I883
sS'contours'
p11
(tsS'components'
p12
(tsS'anchors'
p13
(tsss."
LayerCount: 2
Fore
SplineSet
809 999 m 1
 809 870 l 1
 529 870 l 1
 529 0 l 1
 354 0 l 1
 354 870 l 1
 74 870 l 1
 74 999 l 1
 809 999 l 1
EndSplineSet
EndChar

StartChar: afii10085
Encoding: 575 1091 245
Width: 1013
VWidth: 0
Flags: HW
PickledData: "(dp1
S'com.typemytype.robofont.layerData'
p2
(dp3
S'b'
(dp4
S'name'
p5
S'afii10085'
p6
sS'lib'
p7
(dp8
sS'unicodes'
p9
(tsS'width'
p10
I1013
sS'contours'
p11
(tsS'components'
p12
(tsS'anchors'
p13
(tsss."
LayerCount: 2
Fore
SplineSet
92 -292 m 1
 86 -153 l 1
 105 -155 122 -155 139 -155 c 0
 421 -155 467 48 491 111 c 1
 52 998 l 1
 240 998 l 1
 565 277 l 1
 808 998 l 1
 992 998 l 1
 628 40 l 2
 569 -117 448 -293 138 -293 c 0
 123 -293 108 -293 92 -292 c 1
EndSplineSet
EndChar

StartChar: afii10086
Encoding: 576 1092 246
Width: 1345
VWidth: 0
Flags: HW
PickledData: "(dp1
S'com.typemytype.robofont.layerData'
p2
(dp3
S'b'
(dp4
S'name'
p5
S'afii10086'
p6
sS'lib'
p7
(dp8
sS'unicodes'
p9
(tsS'width'
p10
I1345
sS'contours'
p11
(tsS'components'
p12
(tsS'anchors'
p13
(tsss."
LayerCount: 2
Fore
SplineSet
885 153 m 0
 1013 153 1088 327 1088 506 c 0
 1088 687 1016 850 888 850 c 0
 847 850 782 844 736 821 c 1
 736 180 l 1
 780 157 846 153 885 153 c 0
426 153 m 0
 465 153 532 158 576 178 c 1
 576 824 l 1
 530 847 462 850 423 850 c 0
 294 850 224 687 224 506 c 0
 224 327 297 153 426 153 c 0
736 -280 m 1
 576 -280 l 1
 576 52 l 1
 533 35 462 29 421 29 c 0
 209 29 64 249 64 508 c 0
 64 768 206 974 423 974 c 0
 462 974 533 962 576 945 c 1
 576 1194 l 1
 736 1194 l 1
 736 945 l 1
 779 962 847 974 888 974 c 0
 1104 974 1248 768 1248 508 c 0
 1248 250 1102 29 889 29 c 0
 848 29 779 35 736 52 c 1
 736 -280 l 1
EndSplineSet
EndChar

StartChar: afii10087
Encoding: 577 1093 247
Width: 1021
VWidth: 0
Flags: HW
PickledData: "(dp1
S'com.typemytype.robofont.layerData'
p2
(dp3
S'b'
(dp4
S'name'
p5
S'afii10087'
p6
sS'lib'
p7
(dp8
sS'unicodes'
p9
(tsS'width'
p10
I1021
sS'contours'
p11
(tsS'components'
p12
(tsS'anchors'
p13
(tsss."
LayerCount: 2
Fore
SplineSet
242 998 m 1
 509 623 l 1
 776 998 l 1
 968 998 l 1
 607 506 l 1
 977 0 l 1
 791 0 l 1
 509 396 l 1
 228 0 l 1
 44 0 l 1
 410 508 l 1
 58 998 l 1
 242 998 l 1
EndSplineSet
EndChar

StartChar: afii10088
Encoding: 578 1094 248
Width: 1094
VWidth: 0
Flags: HW
PickledData: "(dp1
S'com.typemytype.robofont.layerData'
p2
(dp3
S'b'
(dp4
S'name'
p5
S'afii10088'
p6
sS'lib'
p7
(dp8
sS'unicodes'
p9
(tsS'width'
p10
I1094
sS'contours'
p11
(tsS'components'
p12
(tsS'anchors'
p13
(tsss."
LayerCount: 2
Fore
SplineSet
1046 -275 m 1
 871 -275 l 1
 871 0 l 1
 150 0 l 1
 150 999 l 1
 324 999 l 1
 324 120 l 1
 774 120 l 1
 774 999 l 1
 948 999 l 1
 948 121 l 1
 1046 121 l 1
 1046 -275 l 1
EndSplineSet
EndChar

StartChar: afii10089
Encoding: 579 1095 249
Width: 1013
VWidth: 0
Flags: HW
PickledData: "(dp1
S'com.typemytype.robofont.layerData'
p2
(dp3
S'b'
(dp4
S'name'
p5
S'afii10089'
p6
sS'lib'
p7
(dp8
sS'unicodes'
p9
(tsS'width'
p10
I1013
sS'contours'
p11
(tsS'components'
p12
(tsS'anchors'
p13
(tsss."
LayerCount: 2
Fore
SplineSet
864 0 m 1
 689 0 l 1
 689 368 l 1
 689 368 586 359 470 359 c 0
 238 359 113 499 113 750 c 2
 113 999 l 1
 288 999 l 1
 288 766 l 2
 288 548 347 490 498 490 c 0
 601 490 689 498 689 498 c 1
 689 999 l 1
 864 999 l 1
 864 0 l 1
EndSplineSet
EndChar

StartChar: afii10090
Encoding: 580 1096 250
Width: 1354
VWidth: 0
Flags: HW
PickledData: "(dp1
S'com.typemytype.robofont.layerData'
p2
(dp3
S'b'
(dp4
S'name'
p5
S'afii10090'
p6
sS'lib'
p7
(dp8
sS'unicodes'
p9
(tsS'width'
p10
I1354
sS'contours'
p11
(tsS'components'
p12
(tsS'anchors'
p13
(tsss."
LayerCount: 2
Fore
SplineSet
621 120 m 1
 621 999 l 1
 787 999 l 1
 787 120 l 1
 1050 120 l 1
 1050 999 l 1
 1216 999 l 1
 1216 0 l 1
 192 0 l 1
 192 999 l 1
 358 999 l 1
 358 120 l 1
 621 120 l 1
EndSplineSet
EndChar

StartChar: afii10091
Encoding: 581 1097 251
Width: 1354
VWidth: 0
Flags: HW
PickledData: "(dp1
S'com.typemytype.robofont.layerData'
p2
(dp3
S'b'
(dp4
S'name'
p5
S'afii10091'
p6
sS'lib'
p7
(dp8
sS'unicodes'
p9
(tsS'width'
p10
I1354
sS'contours'
p11
(tsS'components'
p12
(tsS'anchors'
p13
(tsss."
LayerCount: 2
Fore
SplineSet
1127 -275 m 1
 1127 0 l 1
 150 0 l 1
 150 999 l 1
 324 999 l 1
 324 120 l 1
 606 120 l 1
 606 999 l 1
 780 999 l 1
 780 120 l 1
 1030 120 l 1
 1030 999 l 1
 1204 999 l 1
 1204 120 l 1
 1302 120 l 1
 1302 -275 l 1
 1127 -275 l 1
EndSplineSet
EndChar

StartChar: afii10092
Encoding: 582 1098 252
Width: 996
VWidth: 0
Flags: HW
PickledData: "(dp1
S'com.typemytype.robofont.layerData'
p2
(dp3
S'b'
(dp4
S'name'
p5
S'afii10092'
p6
sS'lib'
p7
(dp8
sS'unicodes'
p9
(tsS'width'
p10
I996
sS'contours'
p11
(tsS'components'
p12
(tsS'anchors'
p13
(tsss."
LayerCount: 2
Fore
SplineSet
377 122 m 1
 587 122 l 2
 707 122 750 239 750 329 c 0
 750 419 701 511 581 511 c 2
 377 511 l 1
 377 122 l 1
203 0 m 1
 203 878 l 1
 43 878 l 1
 43 999 l 1
 377 999 l 1
 377 635 l 1
 579 635 l 2
 823 635 924 490 924 326 c 0
 924 162 829 0 585 0 c 2
 203 0 l 1
EndSplineSet
EndChar

StartChar: afii10093
Encoding: 583 1099 253
Width: 1397
VWidth: 0
Flags: HW
PickledData: "(dp1
S'com.typemytype.robofont.layerData'
p2
(dp3
S'b'
(dp4
S'name'
p5
S'afii10093'
p6
sS'lib'
p7
(dp8
sS'unicodes'
p9
(tsS'width'
p10
I1397
sS'contours'
p11
(tsS'components'
p12
(tsS'anchors'
p13
(tsss."
LayerCount: 2
Fore
SplineSet
323 511 m 1
 323 122 l 1
 533 122 l 2
 653 122 696 239 696 329 c 0
 696 419 647 511 527 511 c 2
 323 511 l 1
323 999 m 1
 323 635 l 1
 525 635 l 2
 769 635 870 490 870 326 c 0
 870 162 775 0 531 0 c 2
 149 0 l 1
 149 999 l 1
 323 999 l 1
1074 0 m 1
 1074 998 l 1
 1248 998 l 1
 1248 0 l 1
 1074 0 l 1
EndSplineSet
EndChar

StartChar: afii10094
Encoding: 584 1100 254
Width: 942
VWidth: 0
Flags: HW
PickledData: "(dp1
S'com.typemytype.robofont.layerData'
p2
(dp3
S'b'
(dp4
S'name'
p5
S'afii10094'
p6
sS'lib'
p7
(dp8
sS'unicodes'
p9
(tsS'width'
p10
I942
sS'contours'
p11
(tsS'components'
p12
(tsS'anchors'
p13
(tsss."
LayerCount: 2
Fore
SplineSet
323 511 m 1
 323 122 l 1
 533 122 l 2
 653 122 696 239 696 329 c 0
 696 419 647 511 527 511 c 2
 323 511 l 1
323 999 m 1
 323 635 l 1
 525 635 l 2
 769 635 870 490 870 326 c 0
 870 162 775 0 531 0 c 2
 149 0 l 1
 149 999 l 1
 323 999 l 1
EndSplineSet
EndChar

StartChar: afii10094.copy_1
Encoding: 673 -1 255
Width: 940
VWidth: 0
Flags: HW
PickledData: "(dp1
S'com.typemytype.robofont.layerData'
p2
(dp3
S'b'
(dp4
S'name'
p5
S'afii10094.copy_1'
p6
sS'lib'
p7
(dp8
sS'unicodes'
p9
(tsS'width'
p10
I940
sS'contours'
p11
(tsS'components'
p12
(tsS'anchors'
p13
(tsss."
LayerCount: 2
Fore
SplineSet
302 511 m 1
 302 122 l 1
 512 122 l 2
 632 122 675 239 675 329 c 0
 675 419 626 511 506 511 c 2
 302 511 l 1
302 999 m 1
 302 635 l 1
 504 635 l 2
 748 635 849 490 849 326 c 0
 849 162 754 0 510 0 c 2
 128 0 l 1
 128 999 l 1
 302 999 l 1
EndSplineSet
EndChar

StartChar: afii10095
Encoding: 585 1101 256
Width: 1010
VWidth: 0
Flags: HW
PickledData: "(dp1
S'com.typemytype.robofont.layerData'
p2
(dp3
S'b'
(dp4
S'name'
p5
S'afii10095'
p6
sS'lib'
p7
(dp8
sS'unicodes'
p9
(tsS'width'
p10
I1010
sS'contours'
p11
(tsS'components'
p12
(tsS'anchors'
p13
(tsss."
LayerCount: 2
Fore
SplineSet
411 -23 m 0
 285 -23 178 10 116 64 c 1
 157 177 l 1
 241 126 322 103 402 103 c 0
 591 103 716 234 737 434 c 1
 316 434 l 1
 316 563 l 1
 737 563 l 1
 717 764 608 897 401 897 c 0
 303 897 218 860 157 821 c 1
 115 932 l 1
 186 993 302 1023 409 1023 c 0
 741 1023 898 776 898 496 c 0
 898 227 735 -23 411 -23 c 0
EndSplineSet
EndChar

StartChar: afii10096
Encoding: 586 1102 257
Width: 1395
VWidth: 0
Flags: HW
PickledData: "(dp1
S'com.typemytype.robofont.layerData'
p2
(dp3
S'b'
(dp4
S'name'
p5
S'afii10096'
p6
sS'lib'
p7
(dp8
sS'unicodes'
p9
(tsS'width'
p10
I1395
sS'contours'
p11
(tsS'components'
p12
(tsS'anchors'
p13
(tsss."
LayerCount: 2
Fore
SplineSet
868 103 m 0
 1065 103 1124 294 1124 498 c 0
 1124 710 1072 897 865 897 c 0
 668 897 598 699 598 495 c 0
 598 294 668 103 868 103 c 0
865 -23 m 0
 586 -23 459 177 442 435 c 1
 283 435 l 1
 283 0 l 1
 130 0 l 1
 130 999 l 1
 283 999 l 1
 283 562 l 1
 442 562 l 1
 460 819 589 1023 868 1023 c 0
 1174 1023 1282 788 1282 500 c 0
 1282 223 1164 -23 865 -23 c 0
EndSplineSet
EndChar

StartChar: afii10097
Encoding: 587 1103 258
Width: 1055
VWidth: 0
Flags: HW
PickledData: "(dp1
S'com.typemytype.robofont.layerData'
p2
(dp3
S'b'
(dp4
S'name'
p5
S'afii10097'
p6
sS'lib'
p7
(dp8
sS'unicodes'
p9
(tsS'width'
p10
I1055
sS'contours'
p11
(tsS'components'
p12
(tsS'anchors'
p13
(tsss."
LayerCount: 2
Fore
SplineSet
444 527 m 2
 733 527 l 1
 733 870 l 1
 444 870 l 2
 323 870 280 776 280 693 c 0
 280 617 323 527 444 527 c 2
107 0 m 1
 315 418 l 1
 174 462 106 577 106 693 c 0
 106 849 209 999 454 999 c 2
 906 999 l 1
 906 0 l 1
 733 0 l 1
 733 399 l 1
 485 399 l 1
 302 0 l 1
 107 0 l 1
EndSplineSet
EndChar

StartChar: afii10099
Encoding: 590 1106 259
Width: 1130
VWidth: 0
Flags: HW
PickledData: "(dp1
S'com.typemytype.robofont.layerData'
p2
(dp3
S'b'
(dp4
S'name'
p5
S'afii10099'
p6
sS'lib'
p7
(dp8
sS'unicodes'
p9
(tsS'width'
p10
I1130
sS'contours'
p11
(tsS'components'
p12
(tsS'anchors'
p13
(tsss."
LayerCount: 2
Fore
SplineSet
655 -258 m 1
 644 -128 l 1
 683 -128 l 2
 840 -128 858 -100 858 95 c 2
 858 335 l 2
 858 561 828 672 658 672 c 0
 502 672 376 545 351 450 c 1
 351 0 l 1
 198 0 l 1
 198 999 l 1
 113 999 l 1
 113 1105 l 1
 198 1105 l 1
 198 1374 l 1
 351 1374 l 1
 351 1105 l 1
 729 1105 l 1
 729 999 l 1
 351 999 l 1
 351 649 l 1
 431 750 536 812 672 812 c 0
 906 812 1011 667 1011 405 c 2
 1011 144 l 2
 1011 -134 990 -258 720 -258 c 2
 655 -258 l 1
EndSplineSet
EndChar

StartChar: afii10100
Encoding: 591 1107 260
Width: 846
VWidth: 0
Flags: HW
PickledData: "(dp1
S'com.typemytype.robofont.layerData'
p2
(dp3
S'b'
(dp4
S'name'
p5
S'afii10100'
p6
sS'lib'
p7
(dp8
sS'unicodes'
p9
(tsS'width'
p10
I846
sS'contours'
p11
(tsS'components'
p12
(tsS'anchors'
p13
(tsss."
LayerCount: 2
Fore
SplineSet
418 1182 m 1
 588 1535 l 1
 818 1535 l 1
 522 1182 l 1
 418 1182 l 1
779 878 m 1
 324 878 l 1
 324 0 l 1
 149 0 l 1
 149 999 l 1
 790 999 l 1
 779 878 l 1
EndSplineSet
EndChar

StartChar: afii10101
Encoding: 592 1108 261
Width: 1004
VWidth: 0
Flags: HW
PickledData: "(dp1
S'com.typemytype.robofont.layerData'
p2
(dp3
S'b'
(dp4
S'name'
p5
S'afii10101'
p6
sS'lib'
p7
(dp8
sS'unicodes'
p9
(tsS'width'
p10
I1004
sS'contours'
p11
(tsS'components'
p12
(tsS'anchors'
p13
(tsss."
LayerCount: 2
Fore
SplineSet
595 -23 m 0
 271 -23 108 227 108 496 c 0
 108 776 266 1023 598 1023 c 0
 705 1023 821 993 892 932 c 1
 850 821 l 1
 789 860 703 897 605 897 c 0
 398 897 289 764 269 563 c 1
 691 563 l 1
 691 434 l 1
 269 434 l 1
 290 234 415 103 604 103 c 0
 684 103 765 126 849 177 c 1
 891 64 l 1
 829 10 721 -23 595 -23 c 0
EndSplineSet
EndChar

StartChar: afii10102
Encoding: 593 1109 262
Width: 814
VWidth: 0
Flags: HW
PickledData: "(dp1
S'com.typemytype.robofont.layerData'
p2
(dp3
S'b'
(dp4
S'name'
p5
S'afii10102'
p6
sS'lib'
p7
(dp8
sS'unicodes'
p9
(tsS'width'
p10
I814
sS'contours'
p11
(tsS'components'
p12
(tsS'anchors'
p13
(tsss."
LayerCount: 2
Fore
SplineSet
794 269 m 1
 791 82 659 -21 441 -21 c 0
 298 -21 189 5 123 48 c 1
 155 168 l 1
 221 133 314 98 433 98 c 0
 572 98 652 154 652 254 c 0
 652 342 612 373 429 439 c 1
 361 465 l 1
 184 530 117 620 116 745 c 1
 116 896 233 1019 459 1019 c 0
 577 1019 667 996 756 954 c 1
 718 845 l 1
 641 877 562 899 466 899 c 0
 340 899 267 836 267 751 c 0
 267 672 308 649 451 593 c 2
 515 568 l 2
 713 491 794 420 794 269 c 1
EndSplineSet
EndChar

StartChar: afii10103
Encoding: 594 1110 263
Width: 522
VWidth: 0
Flags: HW
PickledData: "(dp1
S'com.typemytype.robofont.layerData'
p2
(dp3
S'b'
(dp4
S'name'
p5
S'afii10103'
p6
sS'lib'
p7
(dp8
sS'unicodes'
p9
(tsS'width'
p10
I522
sS'contours'
p11
(tsS'components'
p12
(tsS'anchors'
p13
(tsss."
LayerCount: 2
Fore
SplineSet
352 1181 m 1
 178 1181 l 1
 178 1361 l 1
 352 1361 l 1
 352 1181 l 1
352 0 m 1
 178 0 l 1
 178 998 l 1
 352 998 l 1
 352 0 l 1
EndSplineSet
EndChar

StartChar: afii10104
Encoding: 595 1111 264
Width: 413
VWidth: 0
Flags: HW
PickledData: "(dp1
S'com.typemytype.robofont.layerData'
p2
(dp3
S'b'
(dp4
S'name'
p5
S'afii10104'
p6
sS'lib'
p7
(dp8
sS'unicodes'
p9
(tsS'width'
p10
I413
sS'contours'
p11
(tsS'components'
p12
(tsS'anchors'
p13
(tsss."
LayerCount: 2
Fore
SplineSet
314 1182 m 1
 314 1375 l 1
 455 1375 l 1
 455 1182 l 1
 314 1182 l 1
-41 1182 m 1
 -41 1375 l 1
 100 1375 l 1
 100 1182 l 1
 -41 1182 l 1
130 0 m 1
 130 999 l 1
 284 999 l 1
 284 0 l 1
 130 0 l 1
EndSplineSet
EndChar

StartChar: afii10105
Encoding: 596 1112 265
Width: 484
VWidth: 0
Flags: HW
PickledData: "(dp1
S'com.typemytype.robofont.layerData'
p2
(dp3
S'b'
(dp4
S'name'
p5
S'afii10105'
p6
sS'lib'
p7
(dp8
sS'unicodes'
p9
(tsS'width'
p10
I484
sS'contours'
p11
(tsS'components'
p12
(tsS'anchors'
p13
(tsss."
LayerCount: 2
Fore
SplineSet
96 -398 m 2
 48 -398 l 1
 28 -257 l 1
 76 -257 l 2
 211 -257 225 -215 225 -127 c 2
 224 998 l 1
 399 998 l 1
 399 -68 l 2
 399 -312 344 -398 96 -398 c 2
399 1181 m 1
 224 1181 l 1
 224 1361 l 1
 399 1361 l 1
 399 1181 l 1
EndSplineSet
EndChar

StartChar: afii10106
Encoding: 597 1113 266
Width: 1648
VWidth: 0
Flags: HW
PickledData: "(dp1
S'com.typemytype.robofont.layerData'
p2
(dp3
S'b'
(dp4
S'name'
p5
S'afii10106'
p6
sS'lib'
p7
(dp8
sS'unicodes'
p9
(tsS'width'
p10
I1648
sS'contours'
p11
(tsS'components'
p12
(tsS'anchors'
p13
(tsss."
LayerCount: 2
Fore
SplineSet
1004 511 m 1
 1004 120 l 1
 1224 120 l 2
 1344 120 1393 239 1393 329 c 0
 1393 419 1338 511 1218 511 c 2
 1004 511 l 1
107 -23 m 1
 98 116 l 1
 141 116 l 2
 267 116 269 168 269 372 c 2
 269 999 l 1
 1004 999 l 1
 1004 635 l 1
 1196 635 l 2
 1440 635 1541 490 1541 326 c 0
 1541 162 1446 0 1202 0 c 2
 851 0 l 1
 851 870 l 1
 422 870 l 1
 422 381 l 2
 422 83 419 -23 141 -23 c 2
 107 -23 l 1
EndSplineSet
EndChar

StartChar: afii10107
Encoding: 598 1114 267
Width: 1515
VWidth: 0
Flags: HW
PickledData: "(dp1
S'com.typemytype.robofont.layerData'
p2
(dp3
S'b'
(dp4
S'name'
p5
S'afii10107'
p6
sS'lib'
p7
(dp8
sS'unicodes'
p9
(tsS'width'
p10
I1515
sS'contours'
p11
(tsS'components'
p12
(tsS'anchors'
p13
(tsss."
LayerCount: 2
Fore
SplineSet
875 511 m 1
 875 120 l 1
 1091 120 l 2
 1211 120 1260 239 1260 329 c 0
 1260 419 1205 511 1085 511 c 2
 875 511 l 1
722 594 m 1
 722 999 l 1
 875 999 l 1
 875 635 l 1
 1063 635 l 2
 1307 635 1408 490 1408 326 c 0
 1408 162 1313 0 1069 0 c 2
 722 0 l 1
 722 471 l 1
 283 471 l 1
 283 0 l 1
 130 0 l 1
 130 999 l 1
 283 999 l 1
 283 594 l 1
 722 594 l 1
EndSplineSet
EndChar

StartChar: afii10108
Encoding: 599 1115 268
Width: 1128
VWidth: 0
Flags: HW
PickledData: "(dp1
S'com.typemytype.robofont.layerData'
p2
(dp3
S'b'
(dp4
S'name'
p5
S'afii10108'
p6
sS'lib'
p7
(dp8
sS'unicodes'
p9
(tsS'width'
p10
I1128
sS'contours'
p11
(tsS'components'
p12
(tsS'anchors'
p13
(tsss."
LayerCount: 2
Fore
SplineSet
366 0 m 1
 192 0 l 1
 192 954 l 1
 64 954 l 1
 64 1060 l 1
 192 1060 l 1
 192 1347 l 1
 345 1347 l 1
 345 1060 l 1
 704 1060 l 1
 704 954 l 1
 366 954 l 1
 366 630 l 1
 398 633 473 650 598 650 c 0
 830 650 928 520 928 269 c 2
 928 0 l 1
 754 0 l 1
 754 233 l 2
 754 451 727 519 576 519 c 0
 470 519 395 504 366 502 c 1
 366 0 l 1
EndSplineSet
EndChar

StartChar: afii10108.copy_1
Encoding: 674 -1 269
Width: 1128
VWidth: 0
Flags: HW
PickledData: "(dp1
S'com.typemytype.robofont.layerData'
p2
(dp3
S'b'
(dp4
S'name'
p5
S'afii10108.copy_1'
p6
sS'lib'
p7
(dp8
sS'unicodes'
p9
(tsS'width'
p10
I1128
sS'contours'
p11
(tsS'components'
p12
(tsS'anchors'
p13
(tsss."
LayerCount: 2
Fore
SplineSet
366 0 m 1
 192 0 l 1
 192 954 l 1
 64 954 l 1
 64 1060 l 1
 192 1060 l 1
 192 1347 l 1
 345 1347 l 1
 345 1060 l 1
 704 1060 l 1
 704 954 l 1
 366 954 l 1
 366 630 l 1
 398 633 473 650 598 650 c 0
 830 650 928 520 928 269 c 2
 928 0 l 1
 754 0 l 1
 754 233 l 2
 754 451 727 519 576 519 c 0
 470 519 395 504 366 502 c 1
 366 0 l 1
EndSplineSet
EndChar

StartChar: afii10109
Encoding: 600 1116 270
Width: 1064
VWidth: 0
Flags: HW
PickledData: "(dp1
S'com.typemytype.robofont.layerData'
p2
(dp3
S'b'
(dp4
S'name'
p5
S'afii10109'
p6
sS'lib'
p7
(dp8
sS'unicodes'
p9
(tsS'width'
p10
I1064
sS'contours'
p11
(tsS'components'
p12
(tsS'anchors'
p13
(tsss."
LayerCount: 2
Fore
SplineSet
518 1182 m 1
 688 1535 l 1
 918 1535 l 1
 622 1182 l 1
 518 1182 l 1
149 999 m 1
 324 999 l 1
 324 560 l 1
 725 998 l 1
 940 998 l 1
 473 502 l 1
 990 0 l 1
 774 0 l 1
 324 439 l 1
 324 0 l 1
 149 0 l 1
 149 999 l 1
EndSplineSet
EndChar

StartChar: afii10110
Encoding: 602 1118 271
Width: 1013
VWidth: 0
Flags: HW
PickledData: "(dp1
S'com.typemytype.robofont.layerData'
p2
(dp3
S'b'
(dp4
S'name'
p5
S'afii10110'
p6
sS'lib'
p7
(dp8
sS'unicodes'
p9
(tsS'width'
p10
I1013
sS'contours'
p11
(tsS'components'
p12
(tsS'anchors'
p13
(tsss."
LayerCount: 2
Fore
SplineSet
750 1404 m 1
 750 1247 633 1182 520 1182 c 0
 408 1182 294 1247 294 1404 c 1
 400 1404 l 1
 400 1317 454 1276 520 1276 c 0
 586 1276 644 1317 644 1404 c 1
 750 1404 l 1
92 -292 m 1
 86 -153 l 1
 105 -155 122 -155 139 -155 c 0
 421 -155 467 48 491 111 c 1
 52 998 l 1
 240 998 l 1
 565 277 l 1
 808 998 l 1
 992 998 l 1
 628 40 l 2
 569 -117 448 -293 138 -293 c 0
 123 -293 108 -293 92 -292 c 1
EndSplineSet
EndChar

StartChar: afii10145
Encoding: 523 1039 272
Width: 1327
VWidth: 0
Flags: HW
PickledData: "(dp1
S'com.typemytype.robofont.layerData'
p2
(dp3
S'b'
(dp4
S'name'
p5
S'afii10145'
p6
sS'lib'
p7
(dp8
sS'unicodes'
p9
(tsS'width'
p10
I1327
sS'contours'
p11
(tsS'components'
p12
(tsS'anchors'
p13
(tsss."
LayerCount: 2
Fore
SplineSet
760 0 m 1
 760 -275 l 1
 601 -275 l 1
 601 0 l 1
 160 0 l 1
 160 1346 l 1
 334 1346 l 1
 334 138 l 1
 993 138 l 1
 993 1346 l 1
 1167 1346 l 1
 1167 0 l 1
 760 0 l 1
EndSplineSet
EndChar

StartChar: afii10193
Encoding: 603 1119 273
Width: 1025
VWidth: 0
Flags: HW
PickledData: "(dp1
S'com.typemytype.robofont.layerData'
p2
(dp3
S'b'
(dp4
S'name'
p5
S'afii10193'
p6
sS'lib'
p7
(dp8
sS'unicodes'
p9
(tsS'width'
p10
I1025
sS'contours'
p11
(tsS'components'
p12
(tsS'anchors'
p13
(tsss."
LayerCount: 2
Fore
SplineSet
283 999 m 1
 283 120 l 1
 743 120 l 1
 743 999 l 1
 896 999 l 1
 896 0 l 1
 604 0 l 1
 598 -253 l 1
 474 -253 l 1
 470 0 l 1
 130 0 l 1
 130 999 l 1
 283 999 l 1
EndSplineSet
EndChar

StartChar: afii57929
Encoding: 423 700 274
Width: 458
VWidth: 0
Flags: HW
PickledData: "(dp1
S'com.typemytype.robofont.layerData'
p2
(dp3
S'b'
(dp4
S'name'
p5
S'afii57929'
p6
sS'lib'
p7
(dp8
sS'unicodes'
p9
(tsS'width'
p10
I458
sS'contours'
p11
(tsS'components'
p12
(tsS'anchors'
p13
(tsss."
LayerCount: 2
Fore
SplineSet
121 1003 m 1
 206 1432 l 1
 349 1432 l 1
 227 1003 l 1
 121 1003 l 1
EndSplineSet
EndChar

StartChar: afii61352
Encoding: 648 8470 275
Width: 2577
VWidth: 0
Flags: HW
PickledData: "(dp1
S'com.typemytype.robofont.layerData'
p2
(dp3
S'b'
(dp4
S'name'
p5
S'afii61352'
p6
sS'lib'
p7
(dp8
sS'unicodes'
p9
(tsS'width'
p10
I2577
sS'contours'
p11
(tsS'components'
p12
(tsS'anchors'
p13
(tsss."
LayerCount: 2
Fore
SplineSet
2042 112 m 0
 2249 112 2333 279 2333 497 c 0
 2333 719 2248 886 2042 886 c 0
 1836 886 1750 719 1750 497 c 0
 1750 279 1835 112 2042 112 c 0
2042 -21 m 0
 1757 -21 1576 200 1576 499 c 0
 1576 804 1747 1019 2042 1019 c 0
 2337 1019 2508 804 2508 499 c 0
 2508 200 2327 -21 2042 -21 c 0
1156 208 m 1
 1151 555 l 1
 1151 1390 l 1
 1307 1390 l 1
 1307 0 l 1
 1124 0 l 1
 329 1181 l 1
 334 830 l 1
 334 0 l 1
 178 0 l 1
 178 1390 l 1
 357 1390 l 1
 1156 208 l 1
EndSplineSet
EndChar

StartChar: agrave
Encoding: 159 224 276
Width: 1116
VWidth: 0
Flags: HW
PickledData: "(dp1
S'com.typemytype.robofont.layerData'
p2
(dp3
S'b'
(dp4
S'name'
p5
S'agrave'
p6
sS'lib'
p7
(dp8
sS'unicodes'
p9
(tsS'width'
p10
I1116
sS'contours'
p11
(tsS'components'
p12
(tsS'anchors'
p13
(tsss."
LayerCount: 2
Fore
SplineSet
468 102 m 0
 589 102 742 165 774 251 c 1
 774 490 l 1
 774 490 681 481 658 478 c 0
 397 447 308 402 308 262 c 0
 308 152 385 102 468 102 c 0
445 -21 m 0
 269 -21 134 79 134 263 c 0
 134 478 314 562 599 583 c 0
 645 587 774 597 774 597 c 1
 774 685 l 2
 774 823 704 886 561 886 c 0
 465 886 328 858 234 812 c 1
 226 831 194 916 187 935 c 1
 273 983 428 1019 557 1019 c 0
 801 1019 949 927 949 661 c 2
 949 0 l 1
 808 0 l 1
 781 112 l 1
 720 22 579 -21 445 -21 c 0
490 1182 m 1
 196 1535 l 1
 424 1535 l 1
 592 1182 l 1
 490 1182 l 1
EndSplineSet
EndChar

StartChar: alpha
Encoding: 478 945 277
Width: 451
VWidth: 0
Flags: HW
PickledData: "(dp1
S'com.typemytype.robofont.layerData'
p2
(dp3
S'b'
(dp4
S'name'
p5
S'alpha'
p6
sS'lib'
p7
(dp8
sS'unicodes'
p9
(tsS'width'
p10
I451
sS'contours'
p11
(tsS'components'
p12
(tsS'anchors'
p13
(tsss."
LayerCount: 2
Fore
SplineSet
223 484 m 0
 143 484 102 544 102 604 c 0
 102 664 143 724 223 724 c 0
 304 724 344 664 344 604 c 0
 344 544 304 484 223 484 c 0
EndSplineSet
EndChar

StartChar: alphatonos
Encoding: 473 940 278
Width: 451
VWidth: 0
Flags: HW
PickledData: "(dp1
S'com.typemytype.robofont.layerData'
p2
(dp3
S'b'
(dp4
S'name'
p5
S'alphatonos'
p6
sS'lib'
p7
(dp8
sS'unicodes'
p9
(tsS'width'
p10
I451
sS'contours'
p11
(tsS'components'
p12
(tsS'anchors'
p13
(tsss."
LayerCount: 2
Fore
SplineSet
223 484 m 0
 143 484 102 544 102 604 c 0
 102 664 143 724 223 724 c 0
 304 724 344 664 344 604 c 0
 344 544 304 484 223 484 c 0
EndSplineSet
EndChar

StartChar: amacron
Encoding: 192 257 279
Width: 1116
VWidth: 0
Flags: HW
PickledData: "(dp1
S'com.typemytype.robofont.layerData'
p2
(dp3
S'b'
(dp4
S'name'
p5
S'amacron'
p6
sS'lib'
p7
(dp8
sS'unicodes'
p9
(tsS'width'
p10
I1116
sS'contours'
p11
(tsS'components'
p12
(tsS'anchors'
p13
(tsss."
LayerCount: 2
Fore
SplineSet
468 102 m 0
 589 102 742 165 774 251 c 1
 774 490 l 1
 774 490 681 481 658 478 c 0
 397 447 308 402 308 262 c 0
 308 152 385 102 468 102 c 0
445 -21 m 0
 269 -21 134 79 134 263 c 0
 134 478 314 562 599 583 c 0
 645 587 774 597 774 597 c 1
 774 685 l 2
 774 823 704 886 561 886 c 0
 465 886 328 858 234 812 c 1
 226 831 194 916 187 935 c 1
 273 983 428 1019 557 1019 c 0
 801 1019 949 927 949 661 c 2
 949 0 l 1
 808 0 l 1
 781 112 l 1
 720 22 579 -21 445 -21 c 0
238 1182 m 1
 238 1309 l 1
 846 1309 l 1
 846 1182 l 1
 238 1182 l 1
EndSplineSet
EndChar

StartChar: ampersand
Encoding: 7 38 280
Width: 1363
VWidth: 0
Flags: HW
PickledData: "(dp1
S'com.typemytype.robofont.layerData'
p2
(dp3
S'b'
(dp4
S'name'
p5
S'ampersand'
p6
sS'lib'
p7
(dp8
sS'unicodes'
p9
(tsS'width'
p10
I1363
sS'contours'
p11
(tsS'components'
p12
(tsS'anchors'
p13
(tsss."
LayerCount: 2
Fore
SplineSet
578 838 m 1
 702 899 807 1011 807 1127 c 0
 807 1233 723 1288 627 1288 c 0
 516 1288 432 1226 432 1121 c 0
 432 1031 498 915 578 838 c 1
599 120 m 0
 729 120 835 166 923 236 c 1
 787 381 658 536 522 681 c 1
 384 611 282 504 282 369 c 0
 282 213 400 120 599 120 c 0
591 -21 m 0
 279 -21 121 125 121 359 c 0
 121 556 255 689 437 781 c 1
 343 884 270 996 270 1115 c 0
 270 1297 409 1413 624 1413 c 0
 810 1413 978 1319 978 1131 c 0
 978 971 835 826 663 746 c 1
 1029 337 l 1
 1081 392 1131 471 1164 545 c 1
 1274 461 l 1
 1238 381 1184 298 1126 230 c 1
 1314 27 l 1
 1171 -20 l 1
 1028 130 l 1
 915 39 773 -21 591 -21 c 0
EndSplineSet
EndChar

StartChar: aogonek
Encoding: 196 261 281
Width: 1116
VWidth: 0
Flags: HW
PickledData: "(dp1
S'com.typemytype.robofont.layerData'
p2
(dp3
S'b'
(dp4
S'name'
p5
S'aogonek'
p6
sS'lib'
p7
(dp8
sS'unicodes'
p9
(tsS'width'
p10
I1116
sS'contours'
p11
(tsS'components'
p12
(tsS'anchors'
p13
(tsss."
LayerCount: 2
Fore
SplineSet
468 102 m 0
 589 102 742 165 774 251 c 1
 774 490 l 1
 774 490 681 481 658 478 c 0
 397 447 308 402 308 262 c 0
 308 152 385 102 468 102 c 0
445 -21 m 0
 269 -21 134 79 134 263 c 0
 134 478 314 562 599 583 c 0
 645 587 774 597 774 597 c 1
 774 685 l 2
 774 823 704 886 561 886 c 0
 465 886 328 858 234 812 c 1
 226 831 194 916 187 935 c 1
 273 983 428 1019 557 1019 c 0
 801 1019 949 927 949 661 c 2
 949 0 l 1
 808 0 l 1
 781 112 l 1
 739 50 660 11 571 -8 c 1
 646 -8 l 1
 551 -78 482 -146 482 -208 c 0
 482 -256 525 -289 562 -289 c 0
 611 -289 640 -278 686 -259 c 1
 686 -365 l 1
 651 -380 593 -394 544 -394 c 0
 446 -394 368 -338 368 -234 c 0
 368 -140 447 -66 530 -15 c 1
 502 -19 473 -21 445 -21 c 0
EndSplineSet
EndChar

StartChar: approxequal
Encoding: 658 8776 282
Width: 1177
VWidth: 0
Flags: HW
PickledData: "(dp1
S'com.typemytype.robofont.layerData'
p2
(dp3
S'b'
(dp4
S'name'
p5
S'approxequal'
p6
sS'lib'
p7
(dp8
sS'unicodes'
p9
(tsS'width'
p10
I1177
sS'contours'
p11
(tsS'components'
p12
(tsS'anchors'
p13
(tsss."
LayerCount: 2
Fore
SplineSet
207 622 m 1
 114 648 l 1
 143 803 235 899 379 899 c 0
 459 899 531 865 617 813 c 0
 701 762 753 737 805 737 c 0
 885 737 935 794 970 899 c 1
 1060 873 l 1
 1031 722 956 622 802 622 c 0
 723 622 649 653 548 716 c 0
 486 755 431 783 376 783 c 0
 284 783 233 720 207 622 c 1
207 255 m 1
 116 284 l 1
 146 441 234 536 379 536 c 0
 464 536 543 496 615 455 c 0
 687 415 751 374 807 374 c 0
 887 374 937 433 973 536 c 1
 1062 508 l 1
 1033 358 961 257 804 257 c 0
 728 257 653 288 550 350 c 1
 488 389 434 418 379 418 c 0
 287 418 236 353 207 255 c 1
EndSplineSet
EndChar

StartChar: aring
Encoding: 164 229 283
Width: 1116
VWidth: 0
Flags: HW
PickledData: "(dp1
S'com.typemytype.robofont.layerData'
p2
(dp3
S'b'
(dp4
S'name'
p5
S'aring'
p6
sS'lib'
p7
(dp8
sS'unicodes'
p9
(tsS'width'
p10
I1116
sS'contours'
p11
(tsS'components'
p12
(tsS'anchors'
p13
(tsss."
LayerCount: 2
Fore
SplineSet
468 102 m 0
 589 102 742 165 774 251 c 1
 774 490 l 1
 774 490 681 481 658 478 c 0
 397 447 308 402 308 262 c 0
 308 152 385 102 468 102 c 0
445 -21 m 0
 269 -21 134 79 134 263 c 0
 134 478 314 562 599 583 c 0
 645 587 774 597 774 597 c 1
 774 685 l 2
 774 823 704 886 561 886 c 0
 465 886 328 858 234 812 c 1
 226 831 194 916 187 935 c 1
 273 983 428 1019 557 1019 c 0
 801 1019 949 927 949 661 c 2
 949 0 l 1
 808 0 l 1
 781 112 l 1
 720 22 579 -21 445 -21 c 0
544 1182 m 0
 449 1182 364 1245 364 1350 c 0
 364 1458 450 1529 542 1529 c 0
 637 1529 718 1452 718 1350 c 0
 718 1245 634 1182 544 1182 c 0
542 1248 m 0
 588 1248 630 1294 630 1350 c 0
 630 1406 592 1455 542 1455 c 0
 496 1455 452 1406 452 1350 c 0
 452 1289 486 1248 542 1248 c 0
EndSplineSet
EndChar

StartChar: aringacute
Encoding: 372 507 284
Width: 1116
VWidth: 0
Flags: HW
PickledData: "(dp1
S'com.typemytype.robofont.layerData'
p2
(dp3
S'b'
(dp4
S'name'
p5
S'aringacute'
p6
sS'lib'
p7
(dp8
sS'unicodes'
p9
(tsS'width'
p10
I1116
sS'contours'
p11
(tsS'components'
p12
(tsS'anchors'
p13
(tsss."
LayerCount: 2
Fore
SplineSet
468 102 m 0
 589 102 742 165 774 251 c 1
 774 490 l 1
 774 490 681 481 658 478 c 0
 397 447 308 402 308 262 c 0
 308 152 385 102 468 102 c 0
445 -21 m 0
 269 -21 134 79 134 263 c 0
 134 478 314 562 599 583 c 0
 645 587 774 597 774 597 c 1
 774 685 l 2
 774 823 704 886 561 886 c 0
 465 886 328 858 234 812 c 1
 226 831 194 916 187 935 c 1
 273 983 428 1019 557 1019 c 0
 801 1019 949 927 949 661 c 2
 949 0 l 1
 808 0 l 1
 781 112 l 1
 720 22 579 -21 445 -21 c 0
544 1182 m 0
 449 1182 364 1245 364 1350 c 0
 364 1458 450 1529 542 1529 c 0
 637 1529 718 1452 718 1350 c 0
 718 1245 634 1182 544 1182 c 0
542 1248 m 0
 588 1248 630 1294 630 1350 c 0
 630 1406 592 1455 542 1455 c 0
 496 1455 452 1406 452 1350 c 0
 452 1289 486 1248 542 1248 c 0
490 1692 m 1
 660 2045 l 1
 890 2045 l 1
 594 1692 l 1
 490 1692 l 1
EndSplineSet
EndChar

StartChar: asciicircum
Encoding: 63 94 285
Width: 1143
VWidth: 0
Flags: HW
PickledData: "(dp1
S'com.typemytype.robofont.layerData'
p2
(dp3
S'b'
(dp4
S'name'
p5
S'asciicircum'
p6
sS'lib'
p7
(dp8
sS'unicodes'
p9
(tsS'width'
p10
I1143
sS'contours'
p11
(tsS'components'
p12
(tsS'anchors'
p13
(tsss."
LayerCount: 2
Fore
SplineSet
109 536 m 1
 514 1380 l 1
 607 1380 l 1
 1035 536 l 1
 905 536 l 1
 561 1215 l 1
 241 536 l 1
 109 536 l 1
EndSplineSet
EndChar

StartChar: asciitilde
Encoding: 95 126 286
Width: 1132
VWidth: 0
Flags: HW
PickledData: "(dp1
S'com.typemytype.robofont.layerData'
p2
(dp3
S'b'
(dp4
S'name'
p5
S'asciitilde'
p6
sS'lib'
p7
(dp8
sS'unicodes'
p9
(tsS'width'
p10
I1132
sS'contours'
p11
(tsS'components'
p12
(tsS'anchors'
p13
(tsss."
LayerCount: 2
Fore
SplineSet
147 458 m 1
 100 553 l 1
 143 654 224 733 347 733 c 0
 422 733 481 712 571 672 c 0
 658 634 730 600 785 600 c 0
 860 600 932 663 975 742 c 1
 1026 654 l 1
 980 543 899 470 781 470 c 0
 712 470 645 496 567 531 c 0
 475 573 408 603 343 603 c 0
 261 603 189 537 147 458 c 1
EndSplineSet
EndChar

StartChar: asterisk
Encoding: 11 42 287
Width: 983
VWidth: 0
Flags: HW
PickledData: "(dp1
S'com.typemytype.robofont.layerData'
p2
(dp3
S'b'
(dp4
S'name'
p5
S'asterisk'
p6
sS'lib'
p7
(dp8
sS'unicodes'
p9
(tsS'width'
p10
I983
sS'contours'
p11
(tsS'components'
p12
(tsS'anchors'
p13
(tsss."
LayerCount: 2
Fore
SplineSet
114 1153 m 1
 439 1016 l 1
 406 1390 l 1
 575 1390 l 1
 542 1016 l 1
 869 1153 l 1
 914 998 l 1
 580 922 l 1
 617 872 735 720 810 619 c 1
 764 589 715 564 669 534 c 1
 487 863 l 1
 315 534 l 1
 173 619 l 1
 399 922 l 1
 69 998 l 1
 114 1153 l 1
EndSplineSet
EndChar

StartChar: at
Encoding: 33 64 288
Width: 1946
VWidth: 0
Flags: HW
PickledData: "(dp1
S'com.typemytype.robofont.layerData'
p2
(dp3
S'b'
(dp4
S'name'
p5
S'at'
p6
sS'lib'
p7
(dp8
sS'unicodes'
p9
(tsS'width'
p10
I1946
sS'contours'
p11
(tsS'components'
p12
(tsS'anchors'
p13
(tsss."
LayerCount: 2
Fore
SplineSet
906 305 m 0
 1057 305 1120 446 1145 642 c 0
 1155 718 1163 796 1171 873 c 1
 1133 886 1072 893 1023 893 c 0
 831 893 743 723 743 520 c 0
 743 392 793 305 906 305 c 0
950 -226 m 0
 482 -226 168 70 168 557 c 0
 168 1043 518 1412 1017 1412 c 0
 1449 1412 1778 1133 1778 697 c 0
 1778 369 1568 168 1360 168 c 0
 1252 168 1174 230 1158 339 c 1
 1112 275 1018 176 887 176 c 0
 712 176 599 311 599 528 c 0
 599 795 749 1015 1022 1015 c 0
 1118 1015 1244 988 1329 959 c 1
 1301 760 1264 556 1264 434 c 0
 1264 336 1302 291 1376 291 c 0
 1506 291 1645 469 1645 704 c 0
 1645 1068 1377 1287 1008 1287 c 0
 595 1287 303 981 303 561 c 0
 303 144 563 -100 951 -100 c 0
 1115 -100 1270 -61 1402 15 c 1
 1438 -97 l 1
 1310 -183 1140 -226 950 -226 c 0
EndSplineSet
EndChar

StartChar: atilde
Encoding: 162 227 289
Width: 1116
VWidth: 0
Flags: HW
PickledData: "(dp1
S'com.typemytype.robofont.layerData'
p2
(dp3
S'b'
(dp4
S'name'
p5
S'atilde'
p6
sS'lib'
p7
(dp8
sS'unicodes'
p9
(tsS'width'
p10
I1116
sS'contours'
p11
(tsS'components'
p12
(tsS'anchors'
p13
(tsss."
LayerCount: 2
Fore
SplineSet
468 102 m 0
 589 102 742 165 774 251 c 1
 774 490 l 1
 774 490 681 481 658 478 c 0
 397 447 308 402 308 262 c 0
 308 152 385 102 468 102 c 0
445 -21 m 0
 269 -21 134 79 134 263 c 0
 134 478 314 562 599 583 c 0
 645 587 774 597 774 597 c 1
 774 685 l 2
 774 823 704 886 561 886 c 0
 465 886 328 858 234 812 c 1
 226 831 194 916 187 935 c 1
 273 983 428 1019 557 1019 c 0
 801 1019 949 927 949 661 c 2
 949 0 l 1
 808 0 l 1
 781 112 l 1
 720 22 579 -21 445 -21 c 0
258 1182 m 1
 258 1318 317 1381 414 1381 c 0
 527 1381 683 1296 683 1296 c 1
 719 1299 722 1343 725 1381 c 1
 825 1381 l 1
 825 1256 785 1182 689 1182 c 0
 607 1182 405 1270 405 1270 c 1
 375 1269 358 1232 355 1182 c 1
 258 1182 l 1
EndSplineSet
EndChar

StartChar: b
Encoding: 67 98 290
Width: 1206
VWidth: 0
Flags: HW
PickledData: "(dp1
S'com.typemytype.robofont.layerData'
p2
(dp3
S'b'
(dp4
S'name'
p5
S'b'
sS'lib'
p6
(dp7
sS'unicodes'
p8
(tsS'width'
p9
I1206
sS'contours'
p10
(tsS'components'
p11
(tsS'anchors'
p12
(tsss."
LayerCount: 2
Fore
SplineSet
636 112 m 0
 830 112 915 265 915 499 c 0
 915 738 825 887 634 887 c 0
 419 887 351 741 351 482 c 0
 351 252 430 112 636 112 c 0
661 -20 m 0
 524 -20 406 45 351 163 c 1
 334 0 l 1
 176 0 l 1
 176 1395 l 1
 351 1409 l 1
 351 1053 l 2
 351 991 350 928 346 862 c 1
 412 955 527 1019 659 1019 c 0
 919 1019 1090 802 1090 504 c 0
 1090 198 940 -20 661 -20 c 0
EndSplineSet
EndChar

StartChar: backslash
Encoding: 61 92 291
Width: 850
VWidth: 0
Flags: HW
PickledData: "(dp1
S'com.typemytype.robofont.layerData'
p2
(dp3
S'b'
(dp4
S'name'
p5
S'backslash'
p6
sS'lib'
p7
(dp8
sS'unicodes'
p9
(tsS'width'
p10
I850
sS'contours'
p11
(tsS'components'
p12
(tsS'anchors'
p13
(tsss."
LayerCount: 2
Fore
SplineSet
625 -55 m 1
 80 1332 l 1
 222 1332 l 1
 767 -55 l 1
 625 -55 l 1
EndSplineSet
EndChar

StartChar: bar
Encoding: 93 124 292
Width: 488
VWidth: 0
Flags: HW
PickledData: "(dp1
S'com.typemytype.robofont.layerData'
p2
(dp3
S'b'
(dp4
S'name'
p5
S'bar'
p6
sS'lib'
p7
(dp8
sS'unicodes'
p9
(tsS'width'
p10
I488
sS'contours'
p11
(tsS'components'
p12
(tsS'anchors'
p13
(tsss."
LayerCount: 2
Fore
SplineSet
178 -276 m 1
 178 1525 l 1
 310 1525 l 1
 310 -276 l 1
 178 -276 l 1
EndSplineSet
EndChar

StartChar: beta
Encoding: 479 946 293
Width: 451
VWidth: 0
Flags: HW
PickledData: "(dp1
S'com.typemytype.robofont.layerData'
p2
(dp3
S'b'
(dp4
S'name'
p5
S'beta'
p6
sS'lib'
p7
(dp8
sS'unicodes'
p9
(tsS'width'
p10
I451
sS'contours'
p11
(tsS'components'
p12
(tsS'anchors'
p13
(tsss."
LayerCount: 2
Fore
SplineSet
223 484 m 0
 143 484 102 544 102 604 c 0
 102 664 143 724 223 724 c 0
 304 724 344 664 344 604 c 0
 344 544 304 484 223 484 c 0
EndSplineSet
EndChar

StartChar: braceleft
Encoding: 92 123 294
Width: 717
VWidth: 0
Flags: HW
PickledData: "(dp1
S'com.typemytype.robofont.layerData'
p2
(dp3
S'b'
(dp4
S'name'
p5
S'braceleft'
p6
sS'lib'
p7
(dp8
sS'unicodes'
p9
(tsS'width'
p10
I717
sS'contours'
p11
(tsS'components'
p12
(tsS'anchors'
p13
(tsss."
LayerCount: 2
Fore
SplineSet
619 -130 m 1
 619 -256 l 1
 390 -255 298 -155 298 56 c 2
 298 245 l 2
 298 401 273 506 104 506 c 1
 104 638 l 1
 296 641 298 729 298 898 c 2
 298 1119 l 2
 298 1308 412 1400 619 1400 c 1
 619 1275 l 1
 484 1273 449 1217 449 1067 c 2
 449 826 l 2
 449 715 396 639 280 570 c 1
 402 531 449 427 449 318 c 2
 449 76 l 2
 449 -78 485 -128 619 -130 c 1
EndSplineSet
EndChar

StartChar: braceright
Encoding: 94 125 295
Width: 726
VWidth: 0
Flags: HW
PickledData: "(dp1
S'com.typemytype.robofont.layerData'
p2
(dp3
S'b'
(dp4
S'name'
p5
S'braceright'
p6
sS'lib'
p7
(dp8
sS'unicodes'
p9
(tsS'width'
p10
I726
sS'contours'
p11
(tsS'components'
p12
(tsS'anchors'
p13
(tsss."
LayerCount: 2
Fore
SplineSet
101 -256 m 1
 101 -130 l 1
 233 -128 271 -78 271 76 c 2
 271 318 l 2
 271 434 313 490 439 575 c 1
 317 613 271 718 271 826 c 2
 271 1067 l 2
 271 1217 235 1273 101 1275 c 1
 101 1400 l 1
 328 1400 421 1297 421 1087 c 2
 421 898 l 2
 421 741 441 640 617 638 c 1
 617 506 l 1
 447 506 421 401 421 245 c 2
 421 25 l 2
 421 -162 314 -255 101 -256 c 1
EndSplineSet
EndChar

StartChar: bracketleft
Encoding: 60 91 296
Width: 643
VWidth: 0
Flags: HW
PickledData: "(dp1
S'com.typemytype.robofont.layerData'
p2
(dp3
S'b'
(dp4
S'name'
p5
S'bracketleft'
p6
sS'lib'
p7
(dp8
sS'unicodes'
p9
(tsS'width'
p10
I643
sS'contours'
p11
(tsS'components'
p12
(tsS'anchors'
p13
(tsss."
LayerCount: 2
Fore
SplineSet
294 1229 m 1
 294 -147 l 1
 549 -147 l 1
 549 -267 l 1
 136 -267 l 1
 136 1350 l 1
 549 1350 l 1
 549 1229 l 1
 294 1229 l 1
EndSplineSet
EndChar

StartChar: bracketright
Encoding: 62 93 297
Width: 645
VWidth: 0
Flags: HW
PickledData: "(dp1
S'com.typemytype.robofont.layerData'
p2
(dp3
S'b'
(dp4
S'name'
p5
S'bracketright'
p6
sS'lib'
p7
(dp8
sS'unicodes'
p9
(tsS'width'
p10
I645
sS'contours'
p11
(tsS'components'
p12
(tsS'anchors'
p13
(tsss."
LayerCount: 2
Fore
SplineSet
96 1229 m 1
 96 1350 l 1
 509 1350 l 1
 509 -267 l 1
 96 -267 l 1
 96 -147 l 1
 351 -147 l 1
 351 1229 l 1
 96 1229 l 1
EndSplineSet
EndChar

StartChar: breve
Encoding: 426 728 298
Width: 686
VWidth: 0
Flags: HW
PickledData: "(dp1
S'com.typemytype.robofont.layerData'
p2
(dp3
S'b'
(dp4
S'name'
p5
S'breve'
p6
sS'lib'
p7
(dp8
sS'unicodes'
p9
(tsS'width'
p10
I686
sS'contours'
p11
(tsS'components'
p12
(tsS'anchors'
p13
(tsss."
LayerCount: 2
Fore
SplineSet
573 1404 m 1
 573 1247 456 1182 343 1182 c 0
 231 1182 116 1247 116 1404 c 1
 222 1404 l 1
 222 1317 277 1276 343 1276 c 0
 409 1276 467 1317 467 1404 c 1
 573 1404 l 1
EndSplineSet
EndChar

StartChar: brokenbar
Encoding: 102 166 299
Width: 399
VWidth: 0
Flags: HW
PickledData: "(dp1
S'com.typemytype.robofont.layerData'
p2
(dp3
S'b'
(dp4
S'name'
p5
S'brokenbar'
p6
sS'lib'
p7
(dp8
sS'unicodes'
p9
(tsS'width'
p10
I399
sS'contours'
p11
(tsS'components'
p12
(tsS'anchors'
p13
(tsss."
LayerCount: 2
Fore
SplineSet
134 794 m 1
 134 1437 l 1
 267 1437 l 1
 267 794 l 1
 134 794 l 1
134 -363 m 1
 134 282 l 1
 267 282 l 1
 267 -363 l 1
 134 -363 l 1
EndSplineSet
EndChar

StartChar: bullet
Encoding: 640 8226 300
Width: 756
VWidth: 0
Flags: HW
PickledData: "(dp1
S'com.typemytype.robofont.layerData'
p2
(dp3
S'b'
(dp4
S'name'
p5
S'bullet'
p6
sS'lib'
p7
(dp8
sS'unicodes'
p9
(tsS'width'
p10
I756
sS'contours'
p11
(tsS'components'
p12
(tsS'anchors'
p13
(tsss."
LayerCount: 2
Fore
SplineSet
374 378 m 0
 223 378 106 516 106 680 c 0
 106 847 234 988 378 988 c 0
 525 988 646 850 646 685 c 0
 646 518 521 378 374 378 c 0
EndSplineSet
EndChar

StartChar: c
Encoding: 68 99 301
Width: 952
VWidth: 0
Flags: HW
PickledData: "(dp1
S'com.typemytype.robofont.layerData'
p2
(dp3
S'b'
(dp4
S'name'
p5
S'c'
sS'lib'
p6
(dp7
sS'unicodes'
p8
(tsS'width'
p9
I952
sS'contours'
p10
(tsS'components'
p11
(tsS'anchors'
p12
(tsss."
LayerCount: 2
Fore
SplineSet
590 -20 m 0
 309 -20 116 195 116 496 c 0
 116 810 316 1019 596 1019 c 0
 701 1019 812 990 867 950 c 1
 825 832 l 1
 754 870 685 887 619 887 c 0
 409 887 290 733 290 495 c 0
 290 265 405 112 619 112 c 0
 705 112 766 138 838 175 c 1
 861 51 l 1
 795 3 690 -20 590 -20 c 0
EndSplineSet
EndChar

StartChar: cacute
Encoding: 198 263 302
Width: 985
VWidth: 0
Flags: HW
PickledData: "(dp1
S'com.typemytype.robofont.layerData'
p2
(dp3
S'b'
(dp4
S'name'
p5
S'cacute'
p6
sS'lib'
p7
(dp8
sS'unicodes'
p9
(tsS'width'
p10
I985
sS'contours'
p11
(tsS'components'
p12
(tsS'anchors'
p13
(tsss."
LayerCount: 2
Fore
SplineSet
600 -21 m 0
 319 -21 122 195 122 496 c 0
 122 810 326 1019 606 1019 c 0
 711 1019 822 990 877 950 c 1
 835 832 l 1
 764 870 695 886 629 886 c 0
 419 886 296 733 296 495 c 0
 296 265 415 112 629 112 c 0
 715 112 776 138 848 175 c 1
 871 51 l 1
 805 3 700 -21 600 -21 c 0
448 1182 m 1
 618 1535 l 1
 848 1535 l 1
 552 1182 l 1
 448 1182 l 1
EndSplineSet
EndChar

StartChar: caron
Encoding: 425 711 303
Width: 728
VWidth: 0
Flags: HW
PickledData: "(dp1
S'com.typemytype.robofont.layerData'
p2
(dp3
S'b'
(dp4
S'name'
p5
S'caron'
p6
sS'lib'
p7
(dp8
sS'unicodes'
p9
(tsS'width'
p10
I728
sS'contours'
p11
(tsS'components'
p12
(tsS'anchors'
p13
(tsss."
LayerCount: 2
Fore
SplineSet
268 1138 m 1
 98 1491 l 1
 217 1491 l 1
 364 1208 l 1
 511 1491 l 1
 632 1491 l 1
 462 1138 l 1
 268 1138 l 1
EndSplineSet
EndChar

StartChar: ccaron
Encoding: 204 269 304
Width: 985
VWidth: 0
Flags: HW
PickledData: "(dp1
S'com.typemytype.robofont.layerData'
p2
(dp3
S'b'
(dp4
S'name'
p5
S'ccaron'
p6
sS'lib'
p7
(dp8
sS'unicodes'
p9
(tsS'width'
p10
I985
sS'contours'
p11
(tsS'components'
p12
(tsS'anchors'
p13
(tsss."
LayerCount: 2
Fore
SplineSet
600 -21 m 0
 319 -21 122 195 122 496 c 0
 122 810 326 1019 606 1019 c 0
 711 1019 822 990 877 950 c 1
 835 832 l 1
 764 870 695 886 629 886 c 0
 419 886 296 733 296 495 c 0
 296 265 415 112 629 112 c 0
 715 112 776 138 848 175 c 1
 871 51 l 1
 805 3 700 -21 600 -21 c 0
402 1182 m 1
 232 1535 l 1
 352 1535 l 1
 498 1252 l 1
 646 1535 l 1
 766 1535 l 1
 596 1182 l 1
 402 1182 l 1
EndSplineSet
EndChar

StartChar: ccedilla
Encoding: 166 231 305
Width: 985
VWidth: 0
Flags: HW
PickledData: "(dp1
S'com.typemytype.robofont.layerData'
p2
(dp3
S'b'
(dp4
S'name'
p5
S'ccedilla'
p6
sS'lib'
p7
(dp8
sS'unicodes'
p9
(tsS'width'
p10
I985
sS'contours'
p11
(tsS'components'
p12
(tsS'anchors'
p13
(tsss."
LayerCount: 2
Fore
SplineSet
358 -396 m 1
 460 -8 l 1
 485 -8 l 1
 267 43 122 238 122 496 c 0
 122 810 326 1019 606 1019 c 0
 711 1019 822 990 877 950 c 1
 835 832 l 1
 764 870 695 886 629 886 c 0
 419 886 296 733 296 495 c 0
 296 265 415 112 629 112 c 0
 715 112 776 138 848 175 c 1
 871 51 l 1
 805 3 700 -21 600 -21 c 0
 579 -21 558 -19 538 -17 c 1
 498 -396 l 1
 358 -396 l 1
EndSplineSet
EndChar

StartChar: ccircumflex
Encoding: 200 265 306
Width: 985
VWidth: 0
Flags: HW
PickledData: "(dp1
S'com.typemytype.robofont.layerData'
p2
(dp3
S'b'
(dp4
S'name'
p5
S'ccircumflex'
p6
sS'lib'
p7
(dp8
sS'unicodes'
p9
(tsS'width'
p10
I985
sS'contours'
p11
(tsS'components'
p12
(tsS'anchors'
p13
(tsss."
LayerCount: 2
Fore
SplineSet
600 -21 m 0
 319 -21 122 195 122 496 c 0
 122 810 326 1019 606 1019 c 0
 711 1019 822 990 877 950 c 1
 835 832 l 1
 764 870 695 886 629 886 c 0
 419 886 296 733 296 495 c 0
 296 265 415 112 629 112 c 0
 715 112 776 138 848 175 c 1
 871 51 l 1
 805 3 700 -21 600 -21 c 0
232 1182 m 1
 402 1535 l 1
 596 1535 l 1
 766 1182 l 1
 646 1182 l 1
 498 1430 l 1
 352 1182 l 1
 232 1182 l 1
EndSplineSet
EndChar

StartChar: cdotaccent
Encoding: 202 267 307
Width: 985
VWidth: 0
Flags: HW
PickledData: "(dp1
S'com.typemytype.robofont.layerData'
p2
(dp3
S'b'
(dp4
S'name'
p5
S'cdotaccent'
p6
sS'lib'
p7
(dp8
sS'unicodes'
p9
(tsS'width'
p10
I985
sS'contours'
p11
(tsS'components'
p12
(tsS'anchors'
p13
(tsss."
LayerCount: 2
Fore
SplineSet
600 -21 m 0
 319 -21 122 195 122 496 c 0
 122 810 326 1019 606 1019 c 0
 711 1019 822 990 877 950 c 1
 835 832 l 1
 764 870 695 886 629 886 c 0
 419 886 296 733 296 495 c 0
 296 265 415 112 629 112 c 0
 715 112 776 138 848 175 c 1
 871 51 l 1
 805 3 700 -21 600 -21 c 0
423 1182 m 1
 423 1362 l 1
 576 1362 l 1
 576 1182 l 1
 423 1182 l 1
EndSplineSet
EndChar

StartChar: cedilla
Encoding: 119 184 308
Width: 542
VWidth: 0
Flags: HW
PickledData: "(dp1
S'com.typemytype.robofont.layerData'
p2
(dp3
S'b'
(dp4
S'name'
p5
S'cedilla'
p6
sS'lib'
p7
(dp8
sS'unicodes'
p9
(tsS'width'
p10
I542
sS'contours'
p11
(tsS'components'
p12
(tsS'anchors'
p13
(tsss."
LayerCount: 2
Fore
SplineSet
104 -373 m 1
 206 15 l 1
 284 15 l 1
 244 -373 l 1
 104 -373 l 1
EndSplineSet
EndChar

StartChar: cent
Encoding: 98 162 309
Width: 977
VWidth: 0
Flags: HW
PickledData: "(dp1
S'com.typemytype.robofont.layerData'
p2
(dp3
S'b'
(dp4
S'name'
p5
S'cent'
p6
sS'lib'
p7
(dp8
sS'unicodes'
p9
(tsS'width'
p10
I977
sS'contours'
p11
(tsS'components'
p12
(tsS'anchors'
p13
(tsss."
LayerCount: 2
Fore
SplineSet
543 282 m 1
 543 1068 l 1
 382 1043 265 883 265 671 c 0
 265 464 374 309 543 282 c 1
543 1 m 1
 543 155 l 1
 263 179 109 411 109 675 c 1
 111 936 273 1172 543 1196 c 1
 543 1361 l 1
 630 1361 l 1
 630 1196 l 1
 728 1190 811 1158 861 1111 c 1
 823 1003 l 1
 761 1045 694 1065 630 1070 c 1
 630 279 l 1
 707 286 775 318 824 353 c 1
 862 244 l 1
 805 191 717 161 630 155 c 1
 630 1 l 1
 543 1 l 1
EndSplineSet
EndChar

StartChar: chi
Encoding: 500 967 310
Width: 1147
VWidth: 0
Flags: HW
PickledData: "(dp1
S'com.typemytype.robofont.layerData'
p2
(dp3
S'b'
(dp4
S'name'
p5
S'chi'
p6
sS'lib'
p7
(dp8
sS'unicodes'
p9
(tsS'width'
p10
I1147
sS'contours'
p11
(tsS'components'
p12
(tsS'anchors'
p13
(tsss."
LayerCount: 2
Fore
SplineSet
572 623 m 1
 840 998 l 1
 1032 998 l 1
 671 506 l 1
 1041 0 l 1
 854 0 l 1
 573 396 l 1
 292 0 l 1
 108 0 l 1
 474 508 l 1
 122 998 l 1
 306 998 l 1
 572 623 l 1
EndSplineSet
EndChar

StartChar: circumflex
Encoding: 424 710 311
Width: 728
VWidth: 0
Flags: HW
PickledData: "(dp1
S'com.typemytype.robofont.layerData'
p2
(dp3
S'b'
(dp4
S'name'
p5
S'circumflex'
p6
sS'lib'
p7
(dp8
sS'unicodes'
p9
(tsS'width'
p10
I728
sS'contours'
p11
(tsS'components'
p12
(tsS'anchors'
p13
(tsss."
LayerCount: 2
Fore
SplineSet
98 1138 m 1
 268 1491 l 1
 462 1491 l 1
 632 1138 l 1
 511 1138 l 1
 364 1386 l 1
 217 1138 l 1
 98 1138 l 1
EndSplineSet
EndChar

StartChar: comma
Encoding: 13 44 313
Width: 503
VWidth: 0
Flags: HW
PickledData: "(dp1
S'com.typemytype.robofont.layerData'
p2
(dp3
S'b'
(dp4
S'name'
p5
S'comma'
p6
sS'lib'
p7
(dp8
sS'unicodes'
p9
(tsS'width'
p10
I503
sS'contours'
p11
(tsS'components'
p12
(tsS'anchors'
p13
(tsss."
LayerCount: 2
Fore
SplineSet
216 -293 m 1
 120 -293 l 1
 187 213 l 1
 367 213 l 1
 367 173 l 1
 335 45 228 -266 216 -293 c 1
EndSplineSet
EndChar

